<mxfile host="app.diagrams.net" agent="Mozilla/5.0 (Windows NT 10.0; Win64; x64) AppleWebKit/537.36 (KHTML, like Gecko) Chrome/129.0.0.0 Safari/537.36 Edg/129.0.0.0" version="24.7.12" pages="3">
  <diagram id="Y70No2XIEPS_yMRd8dKZ" name="TARGETTY">
    <mxGraphModel dx="1339" dy="785" grid="1" gridSize="10" guides="1" tooltips="1" connect="1" arrows="1" fold="1" page="1" pageScale="1" pageWidth="827" pageHeight="1169" math="0" shadow="0">
      <root>
        <mxCell id="0" />
        <mxCell id="1" parent="0" />
        <mxCell id="q96hR671Snfqx3eqbh_l-2" value="" style="rounded=0;whiteSpace=wrap;html=1;" vertex="1" parent="1">
          <mxGeometry x="260" y="580" width="220" height="120" as="geometry" />
        </mxCell>
        <mxCell id="q96hR671Snfqx3eqbh_l-1" value="" style="rounded=0;whiteSpace=wrap;html=1;" vertex="1" parent="1">
          <mxGeometry x="260" y="700" width="220" height="60" as="geometry" />
        </mxCell>
        <mxCell id="bffVrXs4wsRks4A8QZo4-8" value="" style="rounded=0;whiteSpace=wrap;html=1;" vertex="1" parent="1">
          <mxGeometry x="260" y="760" width="220" height="60" as="geometry" />
        </mxCell>
        <mxCell id="eMzF4xJFRhqNWofxbKlj-1" value="" style="rounded=0;whiteSpace=wrap;html=1;" vertex="1" parent="1">
          <mxGeometry x="80" y="36" width="690" height="437.97" as="geometry" />
        </mxCell>
        <mxCell id="eMzF4xJFRhqNWofxbKlj-2" value="" style="shape=image;verticalLabelPosition=bottom;labelBackgroundColor=default;verticalAlign=top;aspect=fixed;imageAspect=0;image=data:image/png,iVBORw0KGgoAAAANSUhEUgAAAaEAAACTCAYAAAAnbabQAAAAAXNSR0IArs4c6QAAAARnQU1BAACxjwv8YQUAAAAJcEhZcwAAFxEAABcRAcom8z8AAGwESURBVHhe7X0HmB1V2T/oJ4oNQVAQaYIgiNIhZO8mdFERC02KItItKNiQ4iKoKAgYyu7dFDZt98573lPn3t1UXBCIIPkUBQt8AgLJbhIiEAhNyv0/vzN3kpvZdrcli//ze5732U125syZmTPve96+0UYBAQEBAQEBAQEBAQEBAQEBAQEBAQEBAQEBAQEBAQEBAQEBAQEBAQEBAQEBAQEBAQEBAQEBAQEBAQEBAQEBAQEBAQEBAQEBAQEBAQEBAQEBAQEBAQEBAQEBAQEBAQEBAQEBAQEBAQEBAQEBAQEBAQEBAQEBAQEBAQEBAW86iLJ4a2traXMqFrcVIt6+UDDb2Tb7obY2+yH8TkQ74f9b43jLls6Wd2TPDwgICAgIGDJo7twtnHOflNYeqpQ7kkgdKWXp0Ciyh+L3AutPR9IewdburzrUh1tagiAKCAgICBgmOjo63q6U+oAwpb21jo9Syn42isyniOxnlSp+MYrMF4jc0QU2h7ApHhJJ+SnpZJ2UpR2EEO/OjhcQEBAQEFAzIIDa2vgg5vjTEEJa6FyhYMYTuSNJ2S9G0nyB2dQXCnp3IrtHocCHF1gfQzo+uFDQu2bHCwgICAgIqAkdHZPeTtbuFkn5uSgyn2G2+1i2BxHrE0maM0nbr/uf0pwCoRQpdUAUqQOE0DlS7jBmfVR2zICAgICAgAEhhHirXqDfD8FCSh2LnzNnqg9E0k6IpL2SlP0VSf2dSJjvEpvLSdpLmd3J0IaUUh8WOs5Fwn41O25AQEBAQMCAuI5o05lEO0XO1bExhyP6rbOz8x34PZJmEin7a5LmK0LYLwthfsjS3sBsvq9UcU9r7XtI6wOJ9dnZcQMCAgICAgbErI6O97ax+3iBTT1MbHPnzt0CQQqRlEdE0l4bSftzYncysztBCPNdZvczKd35Wpd2n2rtexAlR9qdnh03ICAgICBgQLSWSpvDB8RcrCcyn4jj+J2Lmxe/TUp7KLG7htg2ErurmKEB2VuEcD/UOs7NpblbQIBBE4pUMMcFBAQEBAwBYsGCzaJI7QUhFEVq31mzZr0XQohIHUZsbxAynk5sGkkazWy0EOZ7Bd2+a3Nz89u8OY70wZFQZ2THDQgICAgIGBDz5s17lywWP4oAg9lSTqDptG1nS+c7okh+iqW9MZLmepL6fGJzCbO9kchcjoi4KURbID8IQij4hAICAgIChgQhxCZq3rwPtLE9qKD1MTDNtbbGWxYKfAgp8yP4ewpa745ABGb3JSL7TfiIZkbRnkS0LXKHhLBBEwoICAgIGDwaGhreQkSbzibzCVLqi8j5QfIpTHSk3JFt1u4zc97Md0FYQehI6eqQSxRFcgKzPYjZHC5l/IXsuAEBAQEBAbViY6LitgWG9mM/S6QnEukDmd0nRRxvD5Md/EQwv0kpP4qgBWb9eWmKn4FQQqmf7IABAQEBAQE1A9pQoWB2RKh2oaA/r5Q91ldEILuHMWY7peZsI6X8COnigVKaz0VCfZk5PgpCSQixWXa8gICAgICAQWHSpI63E7mdYGqTEuV7zOHMZjyz3T8hMx5BCZFEYVN1GLP7eEdHx3uz4wQEBAQEBAwJqJbQ1tb2QWg4ShX3gt8ngslNx7lEIPH+Mo4/1mbth2CeK5fLb8mOERAQEBAQMCygTxAqa0tZ+kirjD9W0KXdiWgXBCcgPwh+pOw5AQEBAQEBI4bOzs7/aWnpfAeqKIDgN0KUHCLqsscGBAQEBAQEBAQEBAQEBAQEBAQEBAQEBAQEBAQEBAQEBIweyuXyxiBELYxlwhxHI7QPERuIWUfmrjHmfSD8PnWqfQ/+lj1+fWF9vpfyKDzX9Qm0GZ40adLbKxE470YYKN5hNaHMPP6GSB003mpoaPif7DjrCevtvdZC/rsq93z/WBPl8kYblxs2esuYJsyxav3i94bsMWORquY9nG99nZc2Csher1YaFL+mYnFbpTo+jPIKQojtxxrJ2XKHQkthR5R+ACMZyQQnMCQkVRVYfwnVXFFWPBLmLPweSXMcCvG1dHa+I3veaKOjwzPULRBXP1vKHaQs7YCf2WczHMJ4IFNAWQ21jdb6/eh2iGtn5zNWIR58cJO4Nd6ytVV+FJ0dkyxt/XmS5qQCya+wdqcLab4mZfwVoeyX28h+kbU+KlJqHJHdzbW5D0JwZccdLUBYQhA6t/CDs2fjvSbvIPtu1gfNnEk74dptzn1QdIp3i3L5rek8H5509NufmDJui5VNh2372A0Td+y6+eAdQEub67YfC5TO59GbD97hX/n6bZ6aOv49i5v3e9vDHUe//dnG3OZPTR3/Ifz9saaDdsyeu6Epnfvymw/Y+pHmIza7a+qv3oNvr5LAub1fE7Nn97smcEx6HN7fvHkz37XuShs+sAHXesH7CwWzXbpWs/PIUjqvGf7fpa2F6Hx3Qy38mqQ5Uxp3Jml7thDmnDFHypxrbft5kbKnonESBEf2HoYCSGqt9c5CmG8LaUkqt5DY3CHY3C5VEb8LIdQ3CsbsuD52HNWAUCByhzHr0yNhzhUqPtf/zD6bYRDGS8Y2ZzG709EHnrX7PCl1pFLqAJTgaI3jLSsa4RoGtSEBDaa1tXXzOI63b2O7TyTtEcz6ZFb2AmZzFUt7C7FuFcoakqaDpJlPrBeQtHOEtJakK5CyzcTmapL2ImZ3GpE7uq3N7m/MnB0h+Edz07Fo0aJNI6X2lCY+Du9UmZF/rzWRNOdIXTxfSHdOm7LHsnMft3fdhSRCj3/l992mOz/+0O587oynJtef19VUd66nxtw5Y4Ka6s5dBmquP3dZU+7kFTfV7/vslHFbPDxp4odX3JKbuCw/4RR/zOTx53Xlezl/A9K/m+vO/XfzuHNXNu5/3EM3H3nQvOlX78fMnyYTf6Ugwe/ic6NIDbQm8He/fqSJv4JCoKXW0ubrrrah48EHH9wEZXVIFY/Xtv1s8ODKNbPzyBL4ybnE+rxI2C8LYfa+rpZNHkl7J0goexdJe/dYI6Xju0sd8xcRmxIEZhzHW2bvYSiAyaaAl086UqbYbVz7KpL2eRB+Z2m7ifXMAuujWlrM+7LnjyYgbJndVcRmvlDublZuEX5mn81IkGBzFyt3h1Dut0K5uSSMAqOOpG4g6c7E/UMgNTTUsKMZRZgW8z70K4nQr166HxKaZEnDgs1vWbl7SZoHBZtHiM1SknYFsXlaSPuMkOZZIe3TQpqniG2XkPYxweZvUrn7hLS3C6EN2hAzm0uI9cmRUgdgB5i9/kgAO17S+kRSutW69rulKY7ae+2PhLR322LHIhL6biFNEyl7PBUXbpvOc/nk8Xt35+t/2pXPdT4zbeKiZfnc3d1Nubu7xggl86lf9NSUCfi3W9Y48awVN+V27b45d9CyxvrLu/M5253P3f3UlPpF+Jk9f0PS01Nyi56ZfPCipxoPmPGPxk99s73ll2cLISdFMp5DyuJbXIT3k31n2fdH0i5yxTl3K1u6ndlcHUXxAehYuu6KGzzK5Ya3oBipEOYbQtpisTTXz4nYLMrOYx0S9m4JXiUt1vQ9+DaJ9enYNGav0QNC2jIrV1amOCbJxh3lufN/WyZpVwptr4T5MHsPg4UQJ7wVNYyE1BeT0A+64pxyqWN+WerYXxO/a1sqkzR/JDY/QjXY9akNRZE9VLCVQtrV2raXjWv388k+m5EijA2SplgW0v6H2K4k6f4qlJtH0uYLUn9LytIEpdSHR0oTrQXNi9EquGOrpD+JPZ7ZXAENlaVdLBJh8wrmj+eT3ovUoLhPSo9LzxFsXhXSLhNs7kcbYiHtz9F4q63N7oNrj8SHnUKUSlsT2wtJmn/EpbllrLvRfK99Ea7ZPmeBfx6Cze9J2u8U9G07p/PsbjrokK58jrryuVdXTz+k/O+pE8orp0woPzVGCPP599SJ5WenHVLubqpf1p2v/xm0oa4b6z7d1ZRr7c7nunHcqpZDyiun9jx/Q9IL0yeUX2qpKz/VeOCDD9181K+Kt159iRBsIhl3sS6WsS6q13NfhHdY6ljo1xAJfR+x/SZaJ2y0kffFDBmlUmlzUvZYEloKaV7umLvQ8+Ds9XsjG8/xx7J24Nd/Iam/M3fu3C2y1+gBCCDcEG6m2D7PP4SxQpgPPpYFt/2uLKR5Wuj4SjDC7D0MFrDLo9w4SVMgYVbiOqD05eJ3PExi7J51hPLjzc3N6435oucGSauI7ctxKXkGo/lu0vsHYR3gORCbV1nFzwhl/0Vs/iCEnSWE+zbKseP5Zec80oBNulDQuwuhTiXWNwh2cxmCMREYL2HdYtEnz2Ve2RbnlE3csUZg90b4m3Ed/jx/75X7BTMmNq+wcitYu78L5RYQu99EkTqVLO3W2TkyQQzeTq7cdwXbh/BO8YGP5nvti3DN+Qvv8Pcu2C5uI3thtRB6qumgQ7qbcmJpU+6NV2YfWl49/dDy89MPKT/XMjZo9YxkTqDuxtxTyyGE8vX7djXWfborX9fW3ZRbieNemXXYmJo36LXZh5TLs+vLTzUd9NDDtxz58/jWn51FpK6LVPFP0pTK8xbe7r/37DvrSfPKc+Z1ltvnLMRG4qmI9UzW8aeHu0lUSu2VbMTMP/C9zFvQ6TflPa/fc03NmV+ZjzTPRWwcNo7oJ5S9Rg8Qm1XE5iVi+zo+RnzcY4Uwn1RAwozCyl1irf1Q9h4GCzjPWJlLhDQPsHIvg+n6XaG0ntbsmnX8imDzgBDmhxB+iGjJjjUaQNtbUnYmhCCeg9dS1uO7Se8/YdqpxmCfUbp4Byv7C5RjnzVLbTMaviIIn1lKfRhBBtBCWTpNbP4lpH0dG4N0PtXPI31vg6V17zfRjiDMhHSvJ8LXaVbm+yhPj4KMww2KaUMghHTng/Hjuuv7vaaEa4Jp4BlEbO6MRPyNguncMZ3n8uaDcsvydS1dTblnnp46obxi8oTy8sn15WXNY4NWTKnMKV9f7mqqf2RZvv6y5U11ey1pzB3Rlc9N7W7MPY7jnpk2cUzNG7Tq1gnl1bfmysubDv7LI02HXbowf+GhkZSfI9l+C0nXjY0R1kX2nfVGyXcALSR+iaR+UEh7GUznlci0wWLjmTPnvYvInELKLJC6+FxqOchetzfCsa44t8zSvk5+TZlvYxNZrgp46RMRm2dJ2hdJ2tcwWPZD3ZCUPmgIIVb20ZEQQnQdbSqlncDSzCA2z5m4443e7hv/B4ZEbJ9haaegSdNwdxm1Yo0QknYF5pIuhOwcR4vSRYWPAYwfmoPXEuOO52BKEtJNQwTaSGil1YDJk6zdTSh7BinbItjeL7XDM/ACCOsgFUJcYd7ZuQ+F0nWGsXENb1JQ7nWp3AqYZIVI/CaIIs3OeTBYI4Skuy+95kjdw2AI18Tuldi8QdL+rjchtKK57taufP3TMH0tb57gGWh3fmzQcgggzCkRQv/sIYSacv/CcU9PnTim5g16dtrE8qpp9eXuprq/PdE4oeGfN034xNzCLdu1ivYziOPfS118Ld0EDrw2EgGA9SqkWU3KRn6DOIQ+PQggiFRxL2L9K5LmcVuc80at6zPlF36zKl2XEOZm+Khmzqwxas9rQm8CITRSmhCcblK68+GUxYPDx9jbffsPtX1e8qGyvoPInS9LpR2y440GNrQQ6o38s2qf5xm1NMUniU2BWJ8IxjoSGhHCORF40Mb2QmniotSuOxGCiQDE9bNzGi1KP6jk2t5n8y/SriCE/WqhoHeGryo7/1qQ1YQ21HutRQilmtCbQAj11ITGsBCCdvbMtAn4/aHuxrqfvXzD1ruXT9jorS2ic+9IFicJtv/C+0nNxNl3l6X0XWItEdv7I6kvQ7TjuitvYGCDJVR8FgmNyOCXix3zK0Kl5zWz5C0IifviOUSiErvThFhQe8fU/5+EEEJ8ZWSPiISZDBOPZzTJ2D0o3WFUFsJjQprJkbSHjgTDHQhjUQjh+sli85rC60LqpUKZ6UTqiyUhts7ew2CAroyRcuN8RB7bu6QuPqNt6Y3Ev9Ne465w5AjX8ppg5eOyccdr0MhIGhcJdVZB652HEqgShNDI0JtfCE0sL8vnHn4qf/AvXrlxx70ghH4pHtmsjTqOF9JYwWY1fD6DEQLYsCEKNGJdYu1OHKzVBjwHFh+Sdon/1tfyvn4pXUuYAywXBUSZWrvHoEyCMMcJaV8Y60II5jipiz8ejhBCeDfyguBoV6b4vGc0fbzolBF5MsUXiM29iIEfyXj8vjAWhVBKeB7wJ2DRKxs/QlLnpZSHondI9j5qARJkkadTIHWFkPYPUscvp4Eh2WtvCEo/MjAFaYsrBdsYoaeI0hzUh/ZmE0JvInPciuYJl1YJoSlvFiG0Mj/u6mdv+fgBb0zayCeIFwpzdiQ2lyCFwMYdPvKzFkGQ8illim9E0jwOv63W7bs2Lx44shObaiLayuf4SM8XX/XXrfh6stfKriMca1w7XBpPE9uZBTaHxIsHJwChCT0npH0Jdvd0xzkQZSczNOo5bpa8kLAl/8F4R7G0lw5ZCJU32lgYs3ckzc0IQbZxxxu17LBxjC12vCGkWeajtITZu7OzPCLRUn1hZIRQz+fZG/U8r3/COWmkmXalVxGKiVD3QkHv2tnQOajn0tDQsEmk4gOI3eWC7e9ZuZdSv08tH19vlL2/LGWPr4UqH1plM+T+LaRt84m9RFtl76k/jJQQyt7TYCndSGCsPgMTmsZP72rKPfv0tAnlFc1g+vWe6fdKVX/LMt3BUm9jZglBCemcuhpzj3Y11l++Rgg15ab5wAQw/KkT+593FWXnMVjKjtcXwScE6m7K/d+KpvG/XNZ44Lhyyw5+A4dGcMz600KaWaziJ/CusO7wM7sGsoRjsFFC2gLye4i8z3abdRZgL0BJq0jKQyP4PaXpBq+taFUDUhp1ysqtEsogaOmb04kGn0JDbMFIPEP2u9te4r+zVAvz7ovSjyA7Zm+UOsYRygohwMpdMdQ8IUQ3FaQ8haSZhx1gsT3JC8rOL0v+g+2YVyZlX0EWvlD21Da38IPZ8UcSwxFCPZ8v3mk19XzOQ3mfOA+hm8T6BRLKYtF3UEfNTBm7tBkFvWskzPdImHu0La1OgwKy16qV0vteG469LqXre7D3Smz8OWkIO7F5nKS9hdkcAhNv9t76wnCFUHrOcAnPIc0TIuQJsb2gVS74SDrPFc3jJnbn69q68rmXEeKMnJya8oR8FN3QtCacg3MxRo9xM4T5gKDpdDfVL+1uyl25onHCPssb6z/Vna+f2d1U14XjEBJdU55QlWaVnddANJh5g/A8QcvyucdW5HPXLm8aV/cGfXhNVQGUyUEVExJ6AbF9BUKhFj6FtZGmV0SsHyVpb2RTGj+Q2Ximc7sUkC+JNAxpX07HyI7fG+Fb1a5UjqT5B7H52Syl9h2SvxQaEJhyukuqmWTtH0+WeozVD+GDgRAiNsuJzU+HIoRQrFLr+OAI8fhS/wPjVna1PeaWJRwDP4iQFqruPyKhr29je1D2GiOJ4QihdM6DISzylGq9TvJcvDPyDaHsw9ASjSjtl72XvoD6Ut6sJXQ78n5S52qt16+eR3b+mTHeqD62t+OzY/ZFVTu/1xIN0P1Ylkpg3jWZ5YYrhEDZdzcU8huriibks+/ZXlCdJwQh1NWUi7rzuZdXtUwsPzW5PtEoeqEe/98Lo66VsmP3RZgPmD5MhV4I3ZK7Csmqy/O5o7ub6md153NLMa/Bhmhn51MrVY/R43lk6NlbJ5ZX3ToR5z2yDEJoSq6u3LzfGvMVzGPGmE+gtJRg+1i6ccB7y66FLKXH+g0zm9/DfaAX6D6rf4AvIpoO1Q1Y2WfTTdxA10rXUPItoMqMUZE0n6mpRE9vIGn/jRwQkuZ5YrPaU6V8TTUJ6RCeu0pIu0qweUEwMuvNmg98IMLEiS3Uxddg/kvG9DlKiKjocT1PbFazci8Y1/4ysXlYaHuxmjNnQBUzC1//TNmvEpvboDqmDzA7x74IGkTCtIpIwroN5V1Gs/DlcIQQni+iWwghm4mpFT6/Kqo8czbPcfKMYYr1AgVx/oN5LumiNa79RSFtJ2t3Qi1hmajPRsodDRsyyiNhQ1DFFGsmXB8aDrRamCJYxbj/54W0y0mYJ0maR8mX8oEp1ywRbFcKaV5SOvEzgpL7re3Zph9fxezxIkocwSzX2lpbKanhCKHkWzP/EdLAP/lc8j328s3UQEkljhIYFcZAfb3z1jHHNY2rg1mrK1+/fOWUCS8uy+dWdzXlVnflc8/3Rt35+lVdTbnn/DFNuVe687nXPIOugbGnzL+rCefkXk7GqH/OUy/XAmE+y5rqX1jRXL+6u6n+H1235C598sa6vZblc4d3N9U1d+dz/1jalFu9YvKEF7sw917GWGf+TbkXuvP1ryA5Nzu/gakyb/+M6p/r7mfeoBWT619aMbke9/mX5c25q7qn5Q56g8atw0uQ4BlF5jghrBHSrUwtQtk10RthfWJdR2xWopaicm5cb8nlsESQczsRm+8TmweMwwarNtOfn4+P3nMvkTD3SWl/gCLL2WvUDEJmK+qy+TplZgGxQcHH+VkSys4VyrWTtPME2z+wtI+DgaW7q+xEqyn9eCsCaCVJg8z324W0KDI5J3uttdc0C4Qyv2Ud31FgM5u1Oxn1t7L30B/gPEaVZVYOBS4fQ9TVYHfAKcMwruMNYvsIafsTcm6XgVTdoWIoQij9O2qmEeu/ohAro3An23YCSVfCTzxzwXYuiNnMJ2HuENL+GcKAlXtlsBpCIgTmQTP+JzSDmTNpl/4iCH0ukHO7kLQ/Qc6R1PEbqZksO3ZflK6nyjxfhy8JWeOC7QNYNyydiISZztLmURvNR/14gWe0YHMHS/cPIe1TsJ9Xj5W9Tm+E4yvRmqAHSLmrlYoPqCWRdahCiJX/iU3fk6gZhm8G32P2e6mV/Hee1IycL6S5nkgd2yJKayIcuxsP3rO7sf4HXY05uzRfd3tXc93Crqa6BV353Pwsdedz87rzuY7uJvysv6s7n3u4K1+/CgwaZqqeTHtdgn+nK18P5v90V1Pu7935+t915XNzlzbVzcleaw011S3sytfd1tVUvxDmt2VN9acuazz8I0vz9fsuy+cu6m7Oze7K1y3obqq7HT97nO/HyM0DJfOvv6srX/9IV1PupVSTyc6zmrxWA8GZz71eudeHuppyv+tuqpvT3ZSbizF7XC99Xk31t3c35e5Yms/NWJqvP6tryoTd3+g4eh2TLniWlPHHhDDf9fX92LzeVypJlpJNkg86+Y9f68peoLXetXp8AMWJkfsWCUOoq+hNazVuQL15G1YQaR5ltjfIyE7oTdDVDEjciPUJKHVP0pxCpE9GReUs4Ri0N4BPhNldASYWsV2RqoDZiWYfDCaOHbqQ5s+MSsbSnS+lOY7IHp+9VkqYjxD21AKZr0TSfE5rvftgNZCkJYL9LBK5BOsXfJRTjQynmnCP2HFj91iQpoBSPhg7e72RwGCFUMrQiC2inf5GbPOozkzEJzK7L4GUKn4RP32xSjInIccHP5H7kuyGbCMYHCv3bFXI54CEY+FfEOyw85pC5I6EszN7Tym8bw7zYKOhTSD3qNb3kfpmktI7+Aj8pgah+3OJzE2+LhuqarM+BvNgYw6B34aUOyyKzKd8TSyYAKW9lNhOJTZ3YVNUFXTQ45q9USo0pYlhGViINVpLeZLBCiH8LRWSFS1mvn9XZI/He8x+L7WSL9Qq1Ff9szLx4URuF2TLp/N8rnm/Lbub6g9cnq/70pP58actzdedgmrV3Y25L/egfP1JXc31x+H3rqa673c11RXA0MGsB4pOw99gMgMz787X/62rqf7WpY0TLliSH3/Sk02545dkr1UhzGVp0/hTlzbWndLdmDumqym3B9oiLJty2Ae7miccsKR5/LGYc1d+/Gl9zrup7kRP+fqTlubrv7u0KSe78/UrYOKDYOxv3r5aQ/MEaG//8cIrn5vdna/7ZldT7ngQxuxxvQp13ZI77cnG3FeW5Os+54Mpbjrg/WVxQo9NW1K9QB9IrG8RbJZhzdWyOcTf09QSEnY5S1NAOZ+sr2Y2mU8Iaa8lYR5RJv5PLRvBZD0mEcXKFlf7jSzpE2EJGGyk6DpoaWl5BwjMHZT+O0so5NjQ0Pk/aPomrT0iKZtvH0udvtkJV1OqIvqsXuy+pT5f646dMV5DZ+f/ZK+VnRMIDuD+dth9oa2NP0lsLhcSH759zZeWGOBF9ka4B/iGoC0gi94HSZD5RPZ6I4GhCCEsIgghRDslZdXF9qKhYRP/jKsI77HyLNHMb5N5M2e+q2DMdpG0E8CcIzao4vsSwj1rEQ6YG56LNxFBw/Il31FIsXcw24OI3TUokAoTE9T6/u6tmjCfZNNTeiMxJeo/RaybUV2d2e7vmXzS2A59e94K7aTSYOst6f/NnDfvXa1SfqTA5nAfFME6FtJ2KVv8jxcsNdxzKhhssQO5ESgp1CCl/MhAmvFQhFB6zzCbo7o5+l/hm0EkVfZ7GQyl3xXK9le+q7WN4dB0rXm/tz3WMvEdT9C4TUHllonv6JXECZt0Nkz8nzfo+E0fb8zt15Wvu6w7X78YzHrVrYf0y8yhdSB4oBumuKb6O5c21X2nq+mwPaAZ+DEnHf32HterUDov9D4CE/dN+Crz7qxh3g827LEJCNeAEFvalLuqu6n+X/DZwN/U37zxd6/BNeVe8vc6ue5Hy6blPoI5DzTvdO6Y4+Lmjd5W3mijPtcMeC2RPl1Ii2CqVVgHtWwOU83em6eFeZCk/QG+8XRcaC1QKthrxu61NAKvv7UIwvWxAWRo5fCJCnul1qXd1531egLK3XspyuafqWqWnXB28g4qYrKbK0bCnloq3Tnq+TYVx9vnvBlGmqfxYmD3zM6vFkqYht+NvMHSPSPYGinNZ8pDEIwDYUhCqLIRgN/LazqD1Bj9wozcOGLzC2L7J/ji0t1X9nrVhL+nWi5J+6eIzE9bZfyx7PiA9wVB22b3W6mLz6Nqt6rhowKlOzxcS6r46aSFg7mklfTESsOtQXXBRWmTVik/RlKeIqSZxto9nGw0/EfW4/pZwrGJBoiNlW0hUoeJ5r41QGA4QgjmQ5b2hpEulTSS6J584E5L83Xf7WqqvwfMGgKmP2YOIfR8RQh15Sfc1t1Y9/XHbp44rMTnoaC78cgPdOcn/KirKfcoBCei2Pqbd7UQwr12Nee+gcZ62XFHAujrg5pwEeu/YB34dJVe1kqWkmNR8cU+43mJUkemGzRmh4351ULaf1aSz3uc3xuBHyT+ULOiwOZWWBuwqcvOedSBG2Fj6ontDXD6DlYIwa/URvrrw63DNRCwK0XV4oK0F8EHle5yB2Kq/VHKOEyidfyF2V6AWPxa/AGDwXCEEHxBROYrNZVQz6Cjo+O9Bdaf9qYqaZbUYidOBDvaXiAgwj5SEHoScqmyY2Pxo0EgfEHI+cLihxDq776q7y8RdvDJ+aCY29GUTqninsMyAyTreaso8huVGcR2OdYztLM0X6kvwt/RYgRRoijYSGQvgO8xO341hiOEkNvGbG5yzu2SHXdMoLzRxtAouvP1P+huyv0BzBqtFPpj5hlN6PauW+rP655cv1N26NHG081HbN/VWH9ZVz732LODFELdTfV/gDlv2W8OGpW0DXRNhTkZuUPQhpAYmmg5fa8bEI6p+C7/AysQKXPJLGt3Q7dmdBsWrBewcs9gUz7QN56uVRznA1qkvTtS8Vngr9n5rhfA9q11PBGl7gXbRAi5/oUQKr3CDOYj75TrQLM07F6zY48kfBJWZCf4TprS/rvWvKCBCC+iWJoHM8xyFLaEz2FQdZJqwJCEUEXDQ3dYYnc6euFkx60FqMKbmKnM/ZVFN+C1EyaJGnu2K2I9NYrUuOy4rehTQupIz+yled73bxrABp0Sxq/Q84jGgXk1UsU9B6v99AWFiuDSfI2EbUfJoBLaLMy7rUe5+mrCeoIQ8r4poZ8gMmiMNz47djWGKYT+LaS5GUnB2XHHAtCjq7tx4p7QKLqb6u8bvBDK3dHVmDt/eX78zjCtZccfTTwz+cidltwy4Sdd+frHBm2Oa6q/b0lj3fcen7rP0JLoawDSUtCbB72fEKGbfpfZ9ZJdO+m3S6wR/WxJ65OjSH4mEkjYN0ukjl9LN+fZ86tpjYVAuVdZuYeIzW9aSR+4wRpdQggxFw8R0qHY3uCFECK2VHzWaAshJEIK4b4LHwmioGpN+hqI8NK8DwQhusnYF8G/lb3+cDBcISSk+5pS8z6QHbcWwCzngxakuQ05ZLUKocq1n4qkmYUq5dnmWq2l0keI9LdI2k6SZlDvo/IB4Pe/RcJeWyiY8fCLVI8/HECTRTRSG9sLiM0c1vG/jOt4HNWE4fPxId4ZgjanTCk9ZjE6vRbY1GfHrsZwhJAQbqUQZlJ//rYNCfhlluUnfKK7sf7iIQuhptw3nrh53C7rWwgtzx+685LGCQ1DFkJNdd9/cvKBo2bZgQ8PGxxicw36/CQ8qH+em64fv758dKX5ZyTN9IjMTb6RIRvvA11zTC/np4TjYt97yiHFoQ31IhFglJ3nesObQwiVN24jqLB2eiQMWjp7E8pAD7sWSs1PrOPXIzYrWJsZEBrZGQwHG1IIAb6lt/Sh+2t6LfV1/ZRR4idJ8zQaBcLpn90lRSreFwIEgkRI41sz9DVmdvzkWLsaSXGs9TGzZs0adKn6gYDadyhlL4Q5S+j4l9oUr4ffs+L7xMe/DuFeWBWvQ4gzmoCxtl9HB97suNUYthCSbtLsUf1uho4ghEZPCAELxAKU1/mCT6lR7sVa+Vm6hrzPlvUTgi1SKZ5J/z97fPbcdJ0qHb8OX7FQ5ruFQmG7wZboGlGMdSGU5AWVNie2Z5O090od/wcPuxZG6h/2AOrpmheTOO3fEMrcg/43iGQZKDqqVmx4IWQO962u2SBKrqZnh58RayzuKJL2iGohBH8Q/o+kmU1slqGKwUAaFih9b3iHxBZmgCuMMWuSKkcavsq6LO3Qxrw/kT4YlTGIigciDyhLCJ9Vyo0jrQ9Gt1m0ix+ouO1QhFDyfH1TwWeJDZNSx0dK7atUvC8iAodAB+G+ZhN9wtr5H0K15eH61YAghEZXCAHTC4WdUeCUhPmz1PEr2JylVoiBKN08gwZad9Xn+A2gdvA1P0nspkRSTqi1QsioYawLIbThRl+aZBdrliIPBVFt2TllqYrh1fSCEAiQ3JN+gpX+tdZ6xNpeb0ghtLi5+W2s3TFIchVsfP5Aygyz102v7T8ErwnBb2HbSKnDqs1xqKJQIHkSEp0RWJAK/L7GTCn9YHxiqbBxgcwps2YNvmHXYICNBIQRAnA6Ozvf0dnS2SO8ORvmXGsKwWCFUPUzruTY/U2wlmgrwoxGi2baYInYtgppZ0VS/1xK84U4jrcfaN61IAih0RdC/jtiPhw5fUK6JwZTazERQklQTa2CC8f53MjE9VCKhP1qW1vbqPm+asZYF0KzlNqG2SG2HtUYXozb+2/OVGECKOL6PMIZUdYmrSqePbaaMGbiGzLPo9iglOacWbNGJnx2QwqhuLV1S2h2qCkGFTxV+/u6/hoh5EsGmRUs3Qyhda56TJ+dzfo8ROlIHb+e3k9fY6aU7vSgBUXCXVvg0nghHhyRYIQNgaEKoUpZodexnok1wtOXITAGz3swhKoSUsXPoU6YUOYuVu5HkVJ7LR5K0ckMghAafSGEDVKLEFszu5MFmwXaltaY5WpbR7VTulF08Zz/oLJJJO1ls8juNlLBQMPCWBdCbDv2QeQewoWFNG/45CrVu3ktfdCVWmp/RW8VX1U4qTm2xh+SPW/tuSU4/WAr/RexuamtjffPzmcoGK4QGmp0HHbzMPWwMlehtE0ajpy9Xs/ngMq9iI4zTzKqNUTqgOpxkSgnpPkhCp2urdfWc6zsPeFYjE/S3IOe9a2yNGBCaAqYmIQovxW+Hl87UIjNhGjeDGHo0KZ6IxyHTPXm5vidRIs2TQn/zlL6N5izhLj53fguoB1VkmR7ZaJDF0K9E/KZBkVVXTiFNA/iPfucvxFgLEEIjb4QArxpWxX3ZDZXSxX/FWa5KovBiBDWSSrcpI6XRMK0oUDppEmTaq4YP6oYy0IIiVPSxMeRtAuVKb6YfOS9CxEQXl5FnV0mWBtic1XE5mpfm0vaZ5Oy5n0zzIT5wzdUfBk7E5RTmWqnvmejPphQrRiKEEqFBaLaSJqTaikjk0Vbm/1QQZozUWMOfXMw5kACIxXGxOZV7JiEsNdWV5KA0ChovauvgC7NktKc+QOOmd5TJXgBFavn+JJR/ZQDygKMlWjhtszFel/2SahvtxF/E+WMhHDnjBQR6fMRPovABHTe9XkYfTD14QqhClPw5w2F8NwRGu9NrNL8lZX5WRBCby4hBGDDRKQ+i3qI4BHYWAy0WRwMYY0lBYF9Ne7bkgosYygqc6wKoQYhNimgthxySNj8Xy07biTZJkm05v/QjRB5LAWOj0oiouyTyQfb/8sFo4RZLmLfU+PySKk9xYPDMxkNTgglqniyCKGN6N+SMacgOCM7bl9ItIYFmxG5o0maW71Go1xNOQQ4Bu8/aRGPkj/mhyhQmo6N8jIQSkLaX8KMhCoDA70X3E+VYEWR3Ah14JCLsu7M+4YQne9upfjgSqHU20ja/yPW/yBp/zyixOZvqF8HbU1I/fNCgcd3dnb26hscCSE0HEqYS0UTYvOAkPpKBGEEc9ybSwjhe8WGkdieVwm+GjCfr1ZK1knSxBHpBxGpa5j5k/iOs/PYYBirQmgK0Ras9ZeENATfTtqCOjuXaoIQMrFn3ohw+ypi32HGEtKdQ2zvTysG9Pdycf+Ve3tasJWR1ieIBcNLXh2KEEruFb19zD2k9Q8ipcb5sjRkd0MOTEGXdk9I7y6l/Fjlb3sgiENKe2gk7BnEtpnY/J2kXeO36Xm9dQnXreyaniXWGmV52pxbkz0OEx+isny1ZjYrBiOE/HFJ24JpmOe6T6l/tBjzvkgW0SvlVlQbmDPvNu9kRUDJSBKY+rwFt0MIIwQ2wg61VOp9AzBcITRcwrVSEycKCROrnwpj9gtC6M0lhAAIIralg9IgBfhawYsG2jQORKn1Q5p4JUnt2pQ9HlUbstffoBirQqiiBf1UKL9DfaW/F5LuCqVBJBzq2RmBAp54sX6XAVVXOieUe24gZpHuQoTy5TGwK75Syv7LtwyEwQmhtfOo/P5PVM6VaDfB9sII5eBRuijpG/J9Ic33SOqLiNWFKGwIRkSsp6KlA0uzBEls/tn08eyyBE0RzB2RiGj4hxBg+EnSe8HvPoxZ2htxP6k5KDtONaXvJxFC9hlUpigU9O7rPqX+ASEkZfFTkTTT4MQvdSzwazBrohouYaMCAYeoP2IboVJ3X+1GghAKQmgkgSAsInMKSatQG3Mg98FAhPVRqU33ulD2bvAJ8NXsdTc4xqIQgk2bkWDJRitbekbqpAJ0Xx84Pv7E8Qabp/4rsbuquhwKap9FbK4psEbfmVfBaPpiymt27Q7Owfh5aENS2iOqGfFgMRQhtPbvZhXMi4LNHyoVHX6H3jECbQsqRNLcWfkbepX8b2JOsi+C6ftdUD/PLks43peukfYvxOqb0Cara+khbB2VBNAOGxUVBi+EzNMoV9M6SMEOIcQcH0UIZWbbldjNkwTZkSTMMWlzjgZxrsBafx716LLzAYIQCkJoJAG+VyjonZPNpP6LtqXXIYSGsqZwDtZFYoazyyNpmpArN1JpJyOKsSaEvD9jBlpF2wsiof9cy3zAOPAxkjT/JjYi6a2zNpoM9lZU+iZpLcxBMO2BYWTHqaa04CXaPEADAdMcav7FUIRQSr6GW9Jd9VVQpRma/71XSo717d0HI3xSJgptsiL4lJTmU9nIsGELIV+FQd+C4IbqcQcCfFzJxsQ2CzZLvY9wBJ23KeEZJF1h/TMIQigIofUKBP4o5Q4j1jPQkgTvGd/NYNcVzqnwuFVJ92j79dbW1po6Bq93jDUh5FsQ+Gx8dM80y+CfqDi0+6TEj+N74DwCEx5CHuG7SMdEWC/KnSfOdL20Fv9SGqBAbLpR2h8hjUPdRQxHCKW7GdxfdcFNBGCktOb/iqBEeA7mGqA1zFeZ10noP/pMbrK7Ze/Fm+NIH8ysE3PcIH1CvhQ96zzZ/kviZLF+hZA3R66KpGlDs8O+2n2PJSGEKvBY+21sQ2DCm1gIAdbaD6GnViUZ/MW1Yfg910BflJ5TEPoBVCYB/8tuKMcMxpoQIqKdSMHXYX8vpF0NH0V/LyBlbqggS8rchQ6TKLmTHRfhwL4eGBtEn7zqd/19mORA+HuFqbwgpLlPSPdDNJbLjlsLhiOEQCkTR3g6V5pbrfN/a2hd01J2nL4ofYZYuKwshG4e/XRaWno+RzRNS0rMmOvQKmFQQigxDTzvW3Wz3X8wzGn9CyFfVme27+JLvbfRGK4QSrXDxHmcOJAHQzivfc5Cv1kSbP9OjBDt+IAghN7cQgjvD1G5pNDx2jxkXPurtVo10m/Nxh2wiDwdkZ4ZRfKIoW6g1wvGkhBqKDe8JZKyjrS5laRZqUzxdVyrL2FR9eGjGsIyz+i1nthbAmS5vNHG0tpDoeayskt8vbN+igbi/ytayOtwppOyLXDId3aWBx3aOFwhNJqEeSRMsFTWpvQcmssJRNYhqrAX8yP+T0VqTyH0L4U0y9rnLhxQCK25TtLHHrkKHEX2iI5Ja7XVgbBehVBHIoRQQZw5/vRoCSEcDwECbb9ay62VoLnOW9BZRpAGClkiLQF18IIQenMLIQAWhwK7z8MnrUzcDX6F+pYDra90cy1N8emk44D+FnLdsuOPKYwVIQRVkTpoK2J9ulDmjoQ5rnU8Z+eQPnAwI1+Wxzvo7UW6oPtsw1DQcPol7QciNi/DlNWXgAPhul470L6CwJ2k7dfhX8qOOxDGqhDCvcPxWTFlvkQClQzsZSpSe2XvIUVSUFZ+FCo+8o9q8QmBKrszH3bO0swn0if3ZebqDRBC8FEJ6SbDRIr3AqGWro/+KDuX/mitEDIQQtMh+HrTrIHhCKGK7w5Cf2lS0cM+lm0vMSBJ+7i2pSUs7RJiO5+VvRA5XOXy4DdKWQQhtGGFEBBFxb2YzVVCmvvh762lUn1qigcvj9g0ooEeaiFmxx5TGCtCCA9KOTdubZtx+GT6nweYH3aDJO1TYE4FNofMm9l3ZQFcI4pcHUmbj4RZCUbWnxAC+R23RbtrjYizGxH6Xe1vqgVjUQjh+qlZB6bMiPVfI1JXo5r0QKp7oWC28yHi0vxjbe5Vz2tkCbt+/4FI+wcihIu271ou99S2egMEAZJvme1UJMnivWM8v+vrhwb7nDG/JDpOPyOUm0w6nmit7bXV82CFULVgRPSiYPu/iPZjCHTlrorgsxwEkbK/YlO8jlX8a5LxRV5TpOK2I9EZOAihDS+EpJQfQXkrIc3tQg68aQYl/Aq+Vw0f4eVITO3NojGmMFaEED5ogaRSqRcKaX2b2v5i5NOP3hVRkK/SmnvmwI2Zpk2jrUja70TC/Nm40isps8qOn1Ki3oJxuueS8Gh9/mDruI01IZQyQmWKMI2tjNjeS6x/jSoGteyaYJ6KhDmLlL6HdVKJob9ySilhXeEDidg8GqGrKBcPqVWgQwihVXlSOdosL7XPT/KENHqjrEvVwifpEGveyM6lL/KaEDY27MNaJ0Eo9zXHoQqhynp7ltiJKDLHWWv3aGP3yVZh9hOmNChCGwft21MU94QACq0c/nuEEPzjkVDnkrTzhTQv1b5p9lGof4yE+SER7dHc3Dxs8+yoYqwIoaQUjJkE84QyxdcG8gWljEbqGFWy5xHJUxZUapGBkeJjrCaU8cffUP5GCHtqhI6byj49EPNIruMdyChs2oViqmAYg/nQx5IQqr5f3D9J/TuY4MDMaq0M8fDDD7+dtfsSSVMS0vgEYLyvge4JH0eiCZln8WFFyp5RazkiFCpFS4mkDb35u9Txiyzdap/8WkU++g6h+tKi0jRC9ldXQtt7zCdL6bPxGrg3j7mrUIWiL81iKEII6wnHoU0GAkCwU0W7DeSItHR2rtNOohZqxvpujt+JCFAwm978oUNBEEIbXghBE0pK+WBjXrsQSgoxuz8KaS9mdh8PQmgAgJmjs2Yb2S/6VszKvYYHWWGSPa4NSj94YgOG9jSz+S1J/RNS9otSms9gdyllvA4xuy/ByYyfQtgGFPKDSQ7j9cc8knkkviFUH0AfDlL2+L6c1b1hOEIovddsZFQaTTWYsdLxEvOZ72mzHKVpoGFk59wf8M4Q5MHaIYAEVRnewHwGmsdaM1nxNaHcYzC9Rj7IoTyguQAMl537uJDmayztDcSmQKzRS2d6SoxQemGmRUJNJtbNKGKLGoARG6/xZueTpfRZy8Rk+ICvTEHFPp26wxJCbFeiUrvWhT59mBsSQQhteCFERLsQ228SgoWkHZwQkvZ+kvZSn5oyAgVtRxUbWggh5LetjfchUleQMA8i4qkSbNAv4WVUTC3YDT+CagEkbIdQrj1iMx+O2nXIx9y7dpK2I2KzKHEG69XpWNnxqwnMIxWMxPYB7JDR3rqhxiKAwxVCKfPGeVlKNcJaxwOlQigS+hm0Fy6w/nx2zgOBrW80+POK7fnV1D+TvVaW0mcplH1ZsJ3L7E5TauC+TbBre22IaCfmjn0KBTM+yVeyB6WEyLAoUnvhw5NS1kmpv0NCd6KNRyok+3pOyXNOnqfXnJS9Cy005s28v08f43CEkGC09zY3O0drisOOJQQhFITQesOGFkKJw1me4nuts10JBok5ZK+ZpUQgeFs/ary9RCC2L1OlokDl/9dQUlHA/8QxL8HRNxgzTcWBXxYqXikgzNidfPMADvwUwxFCfu5o0AfzTXVDM4lGaOYp5FIRW18hoZdze6XUdKZMERFxyLS/BBUhJvXh++gN6ClEhDYRBgL+FeTWeObay/WqKRVC2pTKUrnHiXULEkIR/Za9xnCAtuFS2osEG+Sb/WegSMvkeXgzRpmEWSWUjonssdVtzbMYjhAihjnONKL4bHbcsYAghIIQWm/Y0EIItZIilBth81DabqAWZpYSGDB+pjvZrKaQpVp8F71Rqo1o2/4aGuwRuyuI3E7Z++kNQxFCVYttJey7xHYusXYkjCVprFBWCtZx0nLALYUgSJlcdqyelDBjV5zzOrFZRULHCI0vFMyO2bn3BbQmxn2xtFPgZEdEWa3vrepdYIPwkJTmeq3jXKfovWXCYIHoPqHsl1k5gwADVu6NxFnbcy4p4XlU1j2eyaNCmiaUJ8qOXY2REEJE1KMqxVhAEEJBCK03bEghhK6XyMxHeRRWdnVaWLS/D7k3Sne4qaAYiNLjs+MMRDgXiYWVHu0FhMTCRJS9ryyGIoTWMHRlH2Rlb4pUfBazPpkqxKxPFEKdGkn3Q5JOsLSP45xaTJmgihBKTVBPoqFWJM2nBpHo6Hug+EoSbB+2cUfN7SLS61fW2ass7f2s7K+Z9TGoSoGk5ezFagHMo+h95J+RspHQrgsCKH3v2Tlk5+PfLRskPt9NrL7fW9miagxTCK0klD4iqmkjs74RhFAQQusNG0oIwcaPStek7AVonsbavYEx+/uI+6NUsNRK2fNrIZxXCVB4A1WtEX2C8hoDdV4dnBBK5peYJA3aON8uVHyGUp0fhskqaWud/ERl6RkFvavvHQSfl7SvIby477HXpZQhGtf+GiLOUC/Oudq0OwBRN5E0XxBsY6ndv3Hd1N+UvVZvlGhDflMA/9DDEIQ+8AABCNBm+mmtXYWNEREmOjvf3cZ2H6HMtxNt0VfF8IIxe93eCPPwlQekeQGFSwusj0FPq+zFqjFUIVQpEvsUAhMGW8h1fSEIoSCE1hs2nBB6cBMkHxaknkFsuhJfUP/XHQuE54OF4H0zjL5F5nPoApu9v2oMRwihzTgi+vorFwS/ArG5Rkj7JGpG1bLzTylhvvMh7F4E81bKHt9X/5zegEKkSIojNvdj3hCCtV47vX4a1MDKPUHCdBCbqyGMCqyPQgAINityttwB5UdQ3BHJsjAdwpQlhNmPlDsSVYIjNtcJCG1pn8J4a/x4vVy3mlLhgDWNPkqkzC/I2t0GCjwZphB6GhUZiOKJQoit/X0Zs91QCd8fnkniq6OthpsvFIRQEELrDRtKCCk17wNJgzaDePb/VHwEPa411mgNg1fudbSDFsp8V4jS1tn7q8bghFDCrNI25CgxhAiyUunOPvNpplr7nkipLwtlYyEdau7VXFcN16pUpniDfctse1OBzfhaGVhLS4tvNueLfVa1yejv/taltSYqmM5ImheF1E8gMbjAZkYk9JXE6gJm+3UifRpyvBC15pNlpf4OWlp7Zo5eStItFdK+nDD72ueQCitW7kWUjBLKnrGghpypoQihVBBVvp3boE1LaU7CfUHwDpWkcWfiO0RHYZQ3gkY7nEz5IISCEFpv2BBCiGjRpgin9dWa2T6T+Cbwgfa81lijNbvm9nnI/EfC4S1R5MbhOWbvM8WwhBCbOyIVnwGGlx23GmjvLYz7YST0HzE+Fmx23L4oFQLWdbzom+eBsYrS1rUkPib9Tzo+zCq+EBsK49p9M73+ql30RpgD1h3mbWOUSUL0on2SpP2Tr1QhzALkkQlpOwS7uSTtQt/MD39ng+NegUaF8wdjEsRxOAf3H7F+NGLzG631wX0lqFZjsEKo+pqVqM0nfGNCaYtCmo6KSXVIpHS8gKRb6PPYUP2CzeHDYT5BCAUhtN6wIYSQlKUdBHayQuPhvj4YP0a6mxwtyl6vN8JCiJOada+QsAuVis/tL1JuuEJISPc1aI7ZcauBjHnUzqs0w3rGxO39dqPNUpXgWolWC6Tc0a2trX1qX9WAaVXa0oRIoOKF/TvGqzVvqJow11TTrJo3NM7em/pJ+5pvXYxzM4En2bF7o+R6aRM7+5KPEiR5UltbW01FaocqhKoIc1+TTtCjQeEgCO1JhHT4/TkkYgtVPBUJvtk514oghIIQWm9Y30LoBAQksKkX0t2MGmL4cJOIrto+XpTQwTmjQQO94LVzSNoS4GckzJOcFKHsM5x3fQghIGmGBROV+b3UxefS6grZ8XsjL1h9PyGHEOW/EdtfENEnstfoC3Ecb1lgd0xEuhXlctLCprU+02pKGTrWItYG5gVBUU3YBOD/8ffET9f/M81Sco01FSggABCYcTmR26XWj3Y4Qih5x6hgjnub3+P+Bksdcxcmvj3l/ZUI2/9aEEJBCAUh1AsQ0VUgc6ZQ7g6p4+fxUBNG2f/Hm+6Sqz7ymotS1koYO6Xs37LHYS4VwfUfZvt7+Cysves9G23U05eyvoQQ6uNprXNC6usF24dwnYEqkVdfM70nRKv5hS/UqYjCq9U/JEqlrREgQNLMQXJtev3BaCfZOa2lKk2nKsy+lveVJX+vlV4++B3VM4Q0kxHgMGnSpJoTdocjhNJ5pM89eUZDJ6wXfJfE5gW8O7SzT+slDgVBCAUhtN6wPoWQD8vWeveIzDWIiLNxR80mo0o+S+orQM23LkLVAGmXCbbLh0JIZMQYJE03mKbvS1RhDtnr90ZgOt6ElRQ2vYad+2Rvu8/1JYQA1LRjrU8UbNtZu5fSSgHZa/RFye7c9xdagjwWoXUOtf2y1+kNEFYzye0SCfMN+ClQeRzXH6pGNFqUbnygzQppnybW0tcD7BhcdfThCqGRpPTaJL05bgEqegQhFIRQEEIZoImZ/9h9hr75D8wHAz3UdLeYdE91qJB8H/I4WLopkTTTWLpbiW3LUAjnYgxiOzWShgTbPxCbp+BrSK+bnU814cOHKSRJXrXtiEzqreDl+hRCQBvzx4XQP69UoXh1MEIg1V6SSDF3D3KHBltaBrkvpB2aB85LKxYMxzw3UgSNYa125nv6YCPSTmzPRth39j4GQhBCQQiNJoIQ6uUGUxqqEEIyIXJASJi/IRKuluTUisnL9/PxfW+UuYqUOpJ08UC0H0ARy6GSUm4cxkjGUUcTm59GbO9EGRqYa3Dt7HzWfQ7IcenAc0Ah1YeFdNdHkToge9/rWwgl9fjsF4W0bWC0tuI3yV6nN0qZqU6e+yoSphhF5gtiECV1mhcvfht8K940x4YROo01g3nUYnodLcLHiefgn78XQNqQNGe2ytJHhhLOHIRQEEKjiSCEernBlIYihPBBEOsTUQONVfxM8tEOHEoLJo8PzFe9lvYWdLocCsMYCD77P3J1kXDXozacidsH9Kdg7qk9X5ni80I5fPwnZk1y61sIdXZ2/k+h0LEzkfsWsblXu/bXamkNXH39NCggIv1oROZqFcX7DnYxI3SbyKA4LVo+/Flq92xi7ku65ibPof+PajiUvp/kXhD67X1A6Gj6kJCmTQjk1PS/bvvDGiEk3X1BCI09IbQsP+HRIISCEPJoKJffQm7eTngoQpmHjWv35VQGeqD4qJIsdp+0+TtmezYiwLLjjxRmzNDvj4T9KoImlEEGfeK47m/nngiMUjkuzUGgxD8jaS9D/TIIgnRcRAOuTyEEoBuoEHGOpbmVVbwMZZFSgZm9Xm+U+oaEMC+QsJ1CmG/U0nKhGqhAjXyjApvDI6EbWLkFrNwK3D/WWWKeS55Ff89j8LQ2YCHVVpN15F5CS20hzPVE6lhf+24YG5qgCY1tIRQ0oTeJEEKNLub4cGLbiOQ5hL7Cz6GQcNgHwaHbPmdBkieDpEFtz0Pp/OzYKWgunOXuGJiHhDSrEU6KXSmYEB5YdnyQdxy7du/4j9g87304bMY/PIh2A4NHeWOi4oFCmWno/pkK5LTVeHaO/v8qIeZz5t0GBvAiSasirU9A6ZR01FYdT/QFNaVdhfvy9w6zUHa8qntHMU1cH+G2qA7gBkhW7Q1KqW2EMOdiEZM0LyEUOFmklbD0Xq6d3hOuDebtw5+Ve1oIQyizhIKttSSxVmPSpI63tzF6RunzSXqt6B6S9nEh7QvJhiYJw07DrZN10X+vJE4FzVpN1J+XCJw5nhLTn8+hWcEq/muE3klkLyXS0KYHrIgwEJxzHxTKfVuwfQDXTcyNfb/X0SSsKWP9ekHL9juIzFeyGvlgACG0vOnQvZbl6y/rytffv3LKhPKLMw8t/3vqhDJ+742enjqh/NLMQ8srmuvB0Bctbcxd8MhNuV3XuxCaMnGXJxvrf9aVr+/GfJ6dNrG8sp95PzNtoqel+frXu5pyf1naXHfxklv3H7SPcKQhpfwoSfsdYp+U/Rp4rrcg9PL+U0qOmYt18Fds/IQwe78phFAk7RGRNE2oxJx+wOmuuTfCxw1BBekcsbkNu8H+kjV9jS/pvofqxEjOQ0CCZ269jJ1SwozQiCz+DwnzgJT24qE4jwcLY8x2QprvkTT3snIvJIw4CTPuizDXyvN4naT7S8Tmp1LGa5z5MCGSNAKJhAmzTPwS2XGqCUy5Yg78AxznQxFCWHxRFO8bkboa1QAg2NLdVC2EOeL4RBj6ygUXad2+61AWdUtLyzugSUE788KIbTN6/RD7yETfwiPVjLLz6C0kO9VyspQKWF93T9pnkf/D2mmS8U/ayB6Lgq9Tp9r3ZOc3FEAI+bwstn/zQqBiYszOaX2Q/15MKdkYsrkTpsbhCqElN0/ce1lj/eXdTfV/gqawevqh5aemJFpDbwSG/sKMQytaR+7upU1131kyObdrubx+hdCTTRM+uqQx94uufP1yCKGnp03sMddq+vfUiZ6WNtW/3pXPPbA0n7tkya31o85rBgICfARKm0EIsXkVPCYN7umLcIy3ZCn7oJC2gZn3Gcr3ul6BvjBgkknxR/OAMvFqqePVgs2qvogRemtLq5PQZmPhgEaByezYKSCNSZmfsrT3IiRWmeJqVm4Vetlkx05JareaVfx8xOb/4FNgdseg9UN27JFGKpRR4TgS5u/w9TCeh7Q95rjmeSi3CjlPFaaHdtK/Ybb7pGNG0tURa0TxPYEAC1buee5zPLtKSAON6Xlliqt8f3mhvtpBgwsfTjFrFrqRqmNJGKVd+1JtS8/6Jnlsnut57bXk+wyxn8dqbUsvkTQPsnJXsW3ffzhmHmhRs2fLHdA2gkh/x7czQENDae9l7f6OUj0o7olQfGg8qeYIAYrNS2nOfP8zbk+END48aDvJPSHk3j4q2N6PqgEszQxS7gq0dohUca9amxDWCqXUB4j1eUgOVrZUWQOu3+c6WoRrs3TJM0ARWBmfNJz3BCHU3Thxz+7G+h90N9X/rqup/rmnp0xc3Z2vX9XV1Dsty9evenrqxBe6mnLPdudzc7ua689dnh+/8/oWQsum5T7SBQ2uqe6hZ2+duHr55AnPdfU77wnPLWuuf74rn1vZ1ZS7e1lz7sKVTYf1iHJd3yhovTOzPS95n3YFvkXwmuy7rybwZanAvy02eD9qa+Oxb4677rrrNoWQaCN1AZy1UrnfCQmyC/uhTlb2Ll/viu2vCgV9jGgRfRbxRF8W1vY8MAWc76+R2Dmz464hlvZO+GYIYdTCniGLxY8Ox35fK1AzzJi523nGJdQ0Vu4OodzvKsUme8zTU3Iv/p5IWBlBk6rqRUNkPhEJ/WPB1uDZCfh5+rh/Ynub/xuuqx2eww2I3Os05n3rzrRmbIyuqUKYbyvtWv01hMX77cxeO0u4Z1buTqHiu4ldJLX7ljHtn4BWk73IYFBuKL8FRVfVLLUNM38SfYSI7QWs4l8RmxnwMyah+Pb/SNruiM2zFVPnK4nAMfiJjcFKluZxmMMq96SEdE2+8oGMv8KmWJ8EaNAWMAlm5zFctJZKm7N2nyelm1m73/r3Ki3aife9VkaLsF4Y34vtQO04+OGGw3zKDRu95Zkbj9xpWeOEU5Y3Tsh35es7V+Qn3NWVz93W1VS/sDdals/dtiw/4W5/TL7+N0ub6j//1NTxo+bD7Qu45vLJE77a1VRfWDG5/s7ufP3t/c27u6n+dviwIDi787l89+S6E59rnrhldtz1jelE20q0SpEGyedzPc9l1yvfSAnHeN4p3TRid5qUpY9U+6fHJDBBOI8Rsuy7UbI9r430eQhd7ZNYn01Sny9RvRcVlMnuBg0iO3aKadNoK2Z7ELM7wdeMY3ue/5kdd91rnCekOyeS8edQnBMaW3bc0QI+Xq31zmjTIIQ5B3NJqjb3Mk9pzsS9wPeCwInIVxnQOeREpePBgR1JOwGVkpNjzLl93T+ug79FQp1bwL+l/Exrq/xo5zAYf3Mcv9MLQmm+QKy/LhT8RPbs7LWzhLlgLRSkPl+p4pfZmPHwMyGSMHuN4QBrB4ISPj9ovMzudFL2Qpg10eyOWN9CKI0kza0CFbOhVSrdLKSZxGx+IYT+MdYUoi+hxc4WZu+SKG092h/fdUSbIvmatf48vgm8s8oa6PXdjiZFypyLdVUQ5mvYtLRKOaSw8xTQXp5tzG3+ZFPdXstumfiFZU0Tz+5qzJ2/NF9/VndT/Zm9Ef625JbcN5bhmMaJx3TdMmH3p6aOHxHT52DwlB3/niWNB+/TPXnCiUvy48/ryk84p795dzVOOKerqf7c7nzujGXNE47tbjx4z3LzMe/Mjru+gSRxrfXuROqzqOwOntsX31hDMHWTPr+N7PFQLlpbS5vXUox3Q2NjfKxg8p2dne9rjeMtZ2j9fuwe+6a5W6BW2Ny5c7ew1r4HkVj9OasbGhr8+MhfQa8an7TaY8x1CcdhHtgxNzQ0DHlHN1TgmXR2dr47nQvuOTvHasI9JfdW2hz3Ws0A0vvH37ReULn/vsbD/8/dApF6+DeeL0rJ1Fo6py9AsGIsP9e4v+uvOxe8AxxfKpU2RyQlnstw59Ib8LywjmByxbUg7OBntNbuhsaBSqm9YOIEec2d+ZOzyO6BfCT4CqdRx1b4aJub43eiO+xozDELXCOJQhSbpesa77fncxx9wrXT7wo+r0qPq2E9A3HCCW99rGXiO55uPmKzVTcd/v6lv5645bNTjtqiP1raPHFLHLty1tHvfaPj6LeX++ELowWYEp+4btymz7RMfN+Smw5/Pyg7z2rC33FvS2464P0rJx34XtwzNMHsuOsb4KlYX7M6OiCM3g+eO9B329raijWwVWNj6+bwCQ5nIxIQEBAQEBAQEBAQEBAQEBAQEBAQEBAQEBAQEBAQEBAQEBAQEBAQEBAQEBAQEBAQEPDfCCToIs8KuW4z5817F/69PnKR/puB/DeiRZsuXjyyyc8BAQEB/3VAEuCsSI2LpDwCbdyRPDjaFRmGgY0riYqbzZznk9AxzzElMJOkSyQiF/eSUn4kjuMNXqHgzQBsftBgsqPjnvcikTX794CAgP9SzCLarY3tBULanxPr01DheLg19EYLzUJsRlofTMoejzJGQsTbj4W5QnNEiSYpix8lsseiAjmKbDLrs6W0R0hZ2iEw1r6Bd4geQ1LGn2N2J6JX0BjeCAUEBIwkIhUfgHYn6AwspG5gtvuP1d17oVDYkZW9IJJ2OrG5CrUMYUbMHre+cd11tGmbb7JmzhLS3IzK7oK1ZGlmM9sbIdyJaINXr97QQKkdFNxtael8R2dneY2QaW1t3Zx1fBSRaWTpZrN2Jy9atGjI7ToCAgLeRPDtOKQpRNIuJjbXoRX8SLeGGCkUjNlO+uK/5mYUd0XxYDQjzB63voFOtqiIT2ynsjQFFKAlNj8V0kwjX33cNmKu/7/v7gsFsyNRPDGK4gPgh0z/H7URSanDhNDXolq8lOa44fSMCggIeBMBVeZJOrSZQGPGX0aRG7c++lsNBSh4qZQ6QErzOXSRJSpuiyCA7HHDAPxLg/YxtbW5j0dkriEBbdJeq3U8EaY5oeJzIza3C7axUvazo8FYUQx0iNWkB32fw0FLi3mfUvZ4Zn2jkPqy2WQ+kf4NpkpybicpzaekgUmOPz7SFe0DAgJGGZM6Ot7eZu2HYBaKIrUn+q3Atk7KHY1WJpE0x6HtRsGYHYV4cE31duzQsYNHq3Qh7ZXMHfsgsgvOf6WKexKpI4nsF4VQGOMLMIFhR1vti0kaDNrdcL1ZiVN+TyJ3GBF8N+a4VtITTeYc0SneXSjoXeHAx8/kfFMfyfg4tK5A3yAw8upWJ3Hc/E5m93HsplF1HEEUiUN7wWZpMABZu5tv7xHZI4jMSfAfCR3nku63PfsQmRbzPozlGySyPlFK85kCm/GRivfF/6OlxaxZqHxOm/YVNdjGdp+IbTMJ/wwvhsaGNiNSxl8haX9HbOdIWfxMc/PifhkrmLFS8z5QKOjd8Sxxr/79kDoyqbLe6TVUmEvJ2j3wblnrE1m7L6GZIt4XqvOn48GHVvFT+arsGA8CEu8T7wX3yhb3TlusM5GKcDMFsx1zaTzazpA0J+F9MpvDMb/qFjdJ25x4e1y/oNvxLvdI3pE5XOGdkN0D98/S5tGem6S+O5L6x5G0h6JTM4I5krY7xQO17phIRDvhWeEaqCSPY7Cm8UykdHVJWxR9gm/t0So/1ptfEGuY3NxdChwfzqzhZzoBfkQ8R1SvxxrBdbxG1sd7DQgIGAQaW1s3LxhzeEHai0naSxldgaX7FkxXJJ1maZjY3iRUfAYYdXpeK+kDUyEEExIYCT5qONNZu9PQ3JFYT0FjSGKN5o3XorEeBEc6hnPzdmIufr1A9ido4ieU+3Yk7LVCWBLSKJL6FuH7AdndyhslHzwYdSTsVyNpG4Qy30YfqIjMz4htRGxjknYKSXc+BEsqPMAspYy/QNL+gGR8CnpjQTj4vl/KnBWR+SmuT9J9i9hdJ1gbEqZI0t4YCfVl9CKqbs2CyMAosodiZ05sW4mNgE8nErqB/L34+VwArQvdZvtqH+AFn7K/ILbtQrprIayZ9VGs3OXCN+OzjVGkDuhLiAH4G7QFreODifS38FxYxd/HO/FdeqU7U6kOL0iNKe0dCfUN/26VnknKTiVpbxHKfBfCMx0THUzxjJPn5c4nQoNFczWxuzWSti2SdpaUtoEIprB1TbBSyh0U+rChIaN0t5KyEZF/N40F0t9pYz4ofS8QigXWnyapfxAJ990C2YuI3W+wVnwPLbLH+/uQ9m5i8zS6qRLrBUTmZ0rZL0JQYt0J4c4RMr5YaJ2D38ibOSEok8CZi4V030NrbyHdZHQtltLMEsJ9GwKqeoOB9YuNAen4vEi6Jr8G/brSNwipL0YjTmZzid90lEo7NAxNkwwICKgGdXRsFSl7RsRmjmD4d3TEbG+I2N4EJiWksULZuyCQ0FQRfY1wHj5Wv0NlcxsYBXaJaJ/tNSntTsdHT6yuSBiyaUxalpsZaGSYBgWQMZ/AtUiYe4jNfAg176Bn28LoJsvm98ROEOvT0XsK5/gdMxg3zIBsFkTSgLHcJBB0IM0cknYRSWsjFX8DzBfnQCOR0l4USUPE7iql4n1vvvnmd1tbOghzi9guxv3Dwe39RjjOayLm975poLLHT5061WsK+ImmavCDCQgPtu3EumVNs0Fh55J0fyTWkqT5CoRmX0LI97Ey7kwhLbG088kLfP+srvPPDdpYpRkhdt7QMhHMUD0ehBD6JkkTHyekbSNp/ki+I7Ef61a8C2gzQpj98Az8+FLfGAl9pb9G0t0Z9/hNHAetCr2pYGIV0psE5xLbmUK7m4njG0jZFpKuk6W9ndhcAw0Xc4MGgn5XQtgzmP2YEKIzI+/nslOITSkiUyJpfwItRzwoNsH9VJrPOSHt7RHjnbsSsfmNEOpUaF6kzBUk7Z1eAEnTTcLMIzZXwLRqye4mpT2UGZqStYnWtWhTbIRI2QtgziRp7vTPhc11zPYWwXquQJdiNg6bHmhL5XKywYDGB2EWSecQcIMAESFNEwJwKs8WY2FdXMXOfby/zUFAQECNIOrYCh+jbwnO5nlmczsYRWtihjuCWH0zaZFt/4YdcBTJI3xorDGfAPNPWnfrK9uY90FkUhx3bkm6eCDpeGKk1AEqjg9A91owIWJzP1oza13aHb6F2ULsDS2JpAGD+QexzQtpvoYW4djNRxib7d/A3LFrTRiu/BgrexNLu4SledQzUNbnwbTkGY9yhqR9EP4qMEicAx8QGJdQaDdumuDPgrlOSjuBpFFCWuyy/8zsrhHKngozpI+iY3MHsf4TsfkFGCy0ITQVZNa/YmnvFcrNFdL9GCY5aYqfIlYXJEzSrhTS/gFaBIRQXw0uZ+gZ7yftTqwIoccxD8H2f8HcC6yPQjNDNCSM43h7aDoQJOhKnPV7VDS9rwjpwCCfI2n+HEG4KnMuW3sQNCCEfwu2BkKnIM1Xks7Cro6Vu4SENhHrVkTjYZMhjNmbkg1GF+EZC9PGunh2gYuH+OcMzVi6ezxDlvZSvE+sI29GFaat4iecBYHUZu1BBY4/zdLeQGzuxcaBpP6W6uj4sG+O6TtG28UVIXNfJPB+zEloc+/Nc8p+0WtUeKdsF2Fzk5hMaTea7tt9f46ExmZgMbRib5rs6PhwQeqfCDZ/I2mWQFvFulLKHiuk+R75tvf2fvwssP5SmkMG7c8LTwhyaKFSHue1PXRxZdsiWD+G8YRyTciNq34HAQEBQ4RnHmwvFGz/LtgsY7YtYKqwqSP6CBpOJJALZBdF0t4O042I4+0NtJiEsdxGrH4GgVPxf7wFfg3s4H2Lctu+P9qnC3a/FayfAMOFTR9mkFlRtC+B+UnTJdj8lpX9JnaYbc590NvgvVZk/uaZp3JHw3zjfQGsbxHsniBh7oMQQNCBKME34P0dV5B0f4I2wOxO9hFUEELS/gTMkaWdEkWyDmMxFw+JIBwVzDymRGROIed2oWJxW5jSItJTifVfhTDT0WpdCLE1w3zERpPUf03aqdv9EwbcsZUwZj8h9fXE5nEIAtLFb/UlhBDEAUYbSfM9Id08Id0TJO3zLO2jEalrYALEcV6IKvtZITTMSefABIXOxNVjJaHKXvv8fcLMnSZpTmlj9/GCLuzsgxtYTxVes9RT/eaCaCv4aHxbe7YyYrM4knoSNhO4D5g1IzDwRGu4Aua6JMBjzjbQ0EgaCIY/+ZDypAU9fFFXeK1WmiKx/SbeFd4zzZ27BQQ73r1g878RtEsdT7TWfog1hBC0N/O4N2vCDEhuJ7w3aFi4B5gYoQ2xdMK3jsezFuLdpdbWzaU0MLMujNj+RYj4XAghjIs5E5uHk02MuQRrQ81S22CdYs0Iae6BBoyNAjTJSKm9YAYUjGdoijAH4n1jDrg3mPQYWjbrJ2AhmG3M3tXvICAgYIjABx0J892KKe4uIcw5yE1JGScESxSZz2FnKJT7LfwkbEsHeYe3NGC4t7FyV+HjBmP3TIfmbuGZM8xJ0p3DDH+CvVOweYiElmAkYCKRUvuyNNCE/ghziVJuXJrn4bUtqc8nqRcKmFpYn+bNTjL+mBd+3uRlWxAZVXGQI/HzrRHrEyq72dvACKdPp20rQugHGIulvaW1lQ6G2QZCKDHj2AeE0Fdq3b5ruVx+Kxg/2slHwnyPhP0ds52JhEhoIkJAoNp2ocyCSNmvNqwNn94YZjMpzUlCVEx5Kv5Gb0IIz8gHSrA+u+LDcswuEsrBp7XIm8xIH5wEHKhthHQ/rJi3fgXBUT0WAPMm/G3ePyfMfVLHP8A7xPOAf0co8w0hbRGaCIQwsT6ZtJ4ILaBA+iKh4lnE5n+Z9a2RlHUIavAaI5s/wJQWSfM5BHHgWj7BNo63Z22/Dq1GsLkLvijm+NOJj9DP/yr45KoTbXWptDsreyG0W689q6IXNpF/ntA4zQLMBcKioWGNr2VjCD2h3HdJ2vlCummRUuNSMxjWkA8MSZ7NvVK6M1Mh5H03EpqXjdvIHY1nkWjFtAWzPibyGwl3n7cCiHh7BFyQdIKE6YCvD4InjQT0ZkPlDvPm52Tj0zRbBCEUEDAiQFQVSfudCvNzcOhmzT344OCUTRiBnUXKHWlMaT9WDr6LBdA+YFrDrtE722V8ivDak/kNsfsps/0VGDdLu5iVjZS1xyNPB7trJJAKZe7C+FLKj1ZfF7t575NKzEhnQrtKNCFzXTJfBzv//tXO5TZSR0NTYWlvI7IXef8ANBv4Q6SZ5wMIIjVurRBymtj+QQjzXWgH6TiJoICWYOYzu5mJv0EdKYS92GtNykaILFsz2QoSZ71t9z4lqc8XQmyfDYVugdBgfVrEugW5VkLayyIZf8H75qAlSDBIe6mPDGN9lBf2iTD8BRhm9VjAFJqyBbM7reK/mS9lfEr6NwitSOjLcL4Q5s94lohmRGUGIfXPEQhAys6EoBfCNiQajRkfCdVU8S1dRVofKER5jR+q4+GOt5NSRwq2suJfuUIShKCNhHSdXruI4y3XTND7Hmkr1voEEsYmvr7EB4VwdAgz+F+8hlX1DgDXBq04voCkhZlzCt53+jeYVLFBEiqG5rKI2H4dfklENBKrH5HUyLWa2dZWOig9p6Wz5R2IpsT/k9d63Ld8oIq25wl2mAe0rdNKorR1eg6+B3Yd8JP9XLC9Pck3C0IoIGBEAB8DhJCQ2LnbONn1rhuS3CrMfsTm8ooQmo5dYWJ6Mtd7xiftpTBn+MoEPjLOR9Rhx/sbIns2kTsdGohQPgGzNXG4i81SIVSJfrpEtkqYbzyz81oNbPTKGs/shD3Dm/haEyFUMS3d0Mb2oObmtZUa2vzO2Fgh7cI2Vhdi1w4hBHMKBEqvQkia+4Qw30uDLoDOzs53C2G+kTBIN4O1O9GX/JHmhyRdCXMiZY9Nj0/htUYBvwec6b0LoaltbTAX/YIkAjLsTCJ3ZNzc/E6EykMQIdCBEKEH0ygELqLYEGTA7rTqZM0U3rcEPw+CK9jOEcJ+Od3Fw5zqow+FvZukeZAh4NhdXvCaof0JfCyszCWIJGOOD8empLVV5HxkYxJ+//NIuXHVQmjevHnv8sEZAhGMML/Zn8CMxtIVmO3tQphv411VzxGmLWwqSOiY2NwJE61n/oi+k2Y+Ah4KrD+PaMJ1z4u3lzL+AcGcK8w0VOpI/zZv5jwvhCrvA4Lt69DcfQSlf0/QfM2MQsHUp+cgFB0bBf/ckzD482Sp9BFo7NBuERkppTkT2lR6DrQraP/kNXA8R4uozSCEAgJGAmA6ibnD/EEouzAS9lQIiOpjUBoF5hkhbSf8IErFB/gcmeSj7CBlfgTGnuww9a9gsmDpuMDuGIRk+wRMhNAqRCbZNtbuBPgxEKXmd/5sFglhL9Na755WB8DusyDM1/oXQuY3MM9UJ8mCkSWRT3ZhVPFfQQhJ477HfQghmCJ9WDMV15TIgaYGMxMJvZAVzHHmOJipoopgglMe1Q7S4wGfhyMdor3u8fOT+nzsyrNRVGCSxPaWiM0/hLCzuGDGp3/D8V4QIWCC7T9JwVcHTdB+RykEZ/T0L6VCqGKymwP/S2oC9JqjtD9ANBvuEyHw8IkhuhHvUZjSfghzhkBAoAA2IAjoIB/h5iAkb4IPr7zWRLaRc+6DQrivCa+dmDuhTWDzQuxmCpi4In2lpTlrwvkBmAVJ6osqlSBuw3xRqNWbCqFNQ+Cq4rHYFFWfZ8ycHZndJRHbOyGIMe/0b+JmmONQc890cEUIQROqFkKRNLOQ55aeA78WgmtgYvVCiPT5Zu7c7ZAP5LVBaW4nVj9FLcT0HAhdWAi8FUDaPyGABhF+6d8DAgKGgTXRcdIuFso+GPnILHOI90UIsTUin5C3AsbBbOcoZb6BXBA4sH3tOAQAKDh+9UREKsFuT2z+6u33kdpzhtbvR4BCJO0vSdp7yfsm3MkIuYZphZVFYMIfYSICk01NgfgZCXUWwq7hz0B9tVmz5mxTKJR2jwhReWAGCKmWdWglkd6Pt+2zhnYGpvV95HMgWkpoe7H3PSjbXCiY8RBCSGz1/h1oCMpdUjBzt0vHaWlpeR+RupDY3AXne2IqcrsUWB+D3Ckh7QMIP0b0mWemcbw98lR8eLG0/0T0XKTicyHYskIIgReRQAi7/b2/vtcczN5JJW3aApFxBPMUm5eVLZUTPwt2+cU1vrpqeOEhzdcIJkhpO+GrQhKyvxac9KqIfJtCReO8JrlWcVtoHRAoILyPVAOGkE6iDn3E4pxImG/DrIfjoSEgnykS5mb2wQKoc6c/LURp70rO071ECDCIz8CmAuY1rCXk1pCG/8/fy1Rmcwi0RC+Y2NwFLQrzhA+o+t7wb2b3I/hvEDYdaXcCBBU2HknCsPu8zx2S+k+s7dkQQn7jIe2lxPYuYs2RlIem43kNXJpPsc/tcvcR6YvUPPWBtjbe3+eyJRp2jGeIdAOMBU2QlfkRTJokzEMI9a74jAICAoYLrRe8HyYJH1LMdiWxuSPylbHd6ditwsHL3kxh70c+hiZ9MHb8CCrwZiNpfye1/UmSkW4OxwdKbB8hdguQ3wPfQSJMbIeQFhFgt8GsBKbnI5WUj5h6QGj7c3zYaXUAL4Qida7XRLwgMuf4yCyyeyD8GIJDCDO5wKa+OmESO1oSdiG0kUi6HxbMnB0hhMCUhLR3R9JMaxU6h3toQ1UH1jAxPuRNSvFafwuEkA9MYHOvd1YL9WUw1FYpP0ZS/ySSBj60uyCIC6QvLUj9LeS0QAMjqZ9CJJVQ8VltbfM/lBVC2I37RExf9sjcI4QpCqEvgxYnZfFT0Cyg/bC0zwpp3hDS/hnmUDxzMNnqsYAk1BmBAu4OCF9ojTffnDwTmKd85QD4hWBe834jRI7p0xGyjEAOPDM2ph7CEedEPmrRNiOakYR9xCecIvyc9YnYDCThyt6vMweh32DWM71vMT4pyeuy9zI7hh8OGmQklK+PV1lj7dAWE22qtDWeHTYn3rwpzUlINK2+N2vveg+RO78Sgv1Y5E2T7kRLdg8vzJOqDNBwH2Btz/Ph1okQQgL0vUJog/py6Xjwx6URjiztX4j0pWLBgs2wHonkSZHPZ7N/QcRgYmZ23yblLoeviIR5mNg8hAhIBJZUzzMgIGCIQMSZD9NNdsnL0gTNAiOh0UdIaWgQzK4A3w5NSUq1+BImbK6JhCFUqIYWgwoE3saf+Il+BxMeK3O5EPp6z8iVuQs7bGS7+4gug1wVMwk2fR84QHa31ByHn758DpsZ7DP7ERjQsZXWHTt7Zg9mRuZn0KaqS/T4ckPSTkc4r78vWrhtCeHbUp/vk1UVnPtmPx/1J2Vd4n8x82F6a2trW8MAk9Bu/XUhtCTSLfD/4P9QpBWRZRGrn2HHnJxro8j7btzVXtOT5nEvEMicCcGZFULe1FjQuxbInElKR5UESBEJfS1jftJcHwkzmeAkVzaGQIqEvh5CCtUaNqpUj0gB0yY0NU6qNxRkFB+XCiEAPg1ofRF2+sJ24NlFwkxPCqZq5GZdj8oRrbL4UcxVIVzZazrm/0BJIrFG3tA1PgLOlxnSPmiBrd0f42PzgNJLxPE34SvygSE+WRUh6z7/CxUoipGPPGPPwP1GBFqgspKlvRHlgGAerr43+AaJ3NHefOY1bAQGxD+HHw2bC5jaBBKWpS6hiravemDthwqkIcglI4GY9MHpePauu96D9ye0uTnVQtP1QzNpl6RyhhGkfD2/tkgiSdfeKBQqf5j/jYT+Myv9K2xGqucZEBAwRFSSDM8TCrtocx+0DKntpWBYkQ+5Ra6M+hl2y4WC3jk1B2G3KaU5JXFo60/D5AKnOXbrKM9SkPYWBCMwoqvYfN8LGQQKCHuGUmocGDpykYigbcXfR4ivD8etDkxQahyipxRK60RqnM8baXMfLGj3JVbm+5gTTGEdVcVIfb4HzGBsL0A2PUxcEHhIcATDI61PRO2vhgaxCQSBD7mW+mKl1JHV7R18DTFCvTT9HRzTBmFXMfthN42IQSnhF4mvTCIB7XlKFb/o85SEuYfZgnGfXvFxrCM0KqHCm8K8B2d9UhLH5iPWzUgABqNGUAZK2sDX4nf4rL4PMxg0haoQZg8wUSQIs48409+i1uKBKF9TfQxCzlHbzmtZ0kwC40bIMX76nlDSnDQdPjHf48gHojR6DQU5MxJtJfwcf40kVm+KQ7i1dHXVNed8UAASV6FBq/gXESHhE+M7bGZ+gZJQrUL4DQCO9xo1QuwRGCPsV+Fn6ZjVs7p5pRIDEohh6pyOiEt/HhW39TXukNMjzfdwfw0NDZu0lkqbI4IzGdd8rTrq0muGcfyxQmK+/AE2LXTddX4+SXqB2wl+JmjRSekj9X28f//8UcInqV/3S3wL60wyICBgaPDRcb5uGzQhOxfmFjYGmfEnoCZXJNSpEAYw+VSfh06WqB4A/4IxZsdFVYwFxTsjY9Bo7HQUgRQizsGM1tra+lHPeIm2hVlp6lT7HgQaRFG8L0KpYedPtQafjyLE1nCaY+eM38EkEAlX0B07I7LOOV9m5r3VZWwQGoxzkKeCsj2dLZ3vgH8kKarpPolkVAjAE04Qb4XQqYy/vzFmu+rK2tDEpk8vbhtFGKe4Z4sQW7ckprCNMbfmc5rfZtvmfwjXQQVxPAfMyQtcONEFEh71lypBHn2Wd8F9gZn7Kg2IplPmLISZw5GP+WBnr7XeNYokytPsD801K4SgWcG8hfuLIrUX3ml1NFuKJG+oY2fWyOnRp+NaCH1HhQpUSUhbcRDFByMZFVqH1G6SkO5rqFyAoBW8Uzjpk4KjvVT3xnsrIZS+va6A5F+Y0oT7GuYPf1L1u8Izni1LOyQCPf5YHMdbZiMzAfyfT0CleKIXRiikqtReFT/WZggiQKDMLKW2OeGEE96KZwb/Ht4N/FLVm4vOhob/QSUKv0ZVvC8K8+L5VaqK+/cEE2CrT7T1eWF7+0ANac70VSV8YIW5Qs1SviRUQEDAMAG7Oml7kVDmPgQBSBkfl9rrkwrHPkChR58gMBPstiF00HCs2uSEf3s/ReL83gaJjonJBpWrfc2wTRC2XD0G/i/rdMfxYHQQWPgd18AxGAvn4GeFqa25dmLGg5axaFOUvME5FYG2Cf6/+pzE1EObptevvgcvaHw9NGhEtKlnVKgGkcxpKzFDbA8hB6FQai1tjt02kj99LTv4eaSbJiNZN1AvIFwH2kSSA1XaAc88jVJLj8HvMLmB4Sb/v645Lpkr5rV2rtljUiTHIQCiuC0EL7RRBBwkc0gEBHOxvhIYAfPptdAqMK9EEKCaBKpX9xQWKTAfaK0QCrinWUkl8s2y7zd9L83Nze+E4MCzqn4H1cB6wZhYmxCy2EhU1sRbsMlAlY5KUItfI+n79oEK1bX2Ku99zdrtSNYuzsWGBusVAgzvA1XeKxrk4TDB+eogqHMnfHj5OpuygICAIWKNEJJmMZzWiDYC884eF5AAvhYkc8Lf4+vqJUmnJ6Aemjc7STMnkpbgG0PNt+z5bwYkNfXcbPgJI6mvhabW0NC/MH2zA0ILGwlYAJLkbXdmUnndB1v8zPsghemAFsTM4xct6kULDAgIGDwQHecLNPosfSRExkdVl1sJWBeVWmLHJFUbjIpYowK0iqQv0Ip8F2Tin4feSL1Fsr0ZgPwh+H98rTepL4Y/rKJl/NciicYs7oUSST7ZWljrA1mQkOuTgI2DjwjRmFgDWa0uICCgf8DEASYC4bKOryCOF78TVQd8vyDtTkY+CMxp1ccErAVMPGDSqHkWCZS90UjYvaGN1HUzZ0dX3zqj7evT29rgw+rTXDXWYczc7QrsPp/4f+QRs6XcYfHi/24hBLNeoTAHFT9OYFRcF/baQiSvnzUrumnGrOjatja+AE0OEV6fPTcgIGBgYNcG8wF8O+swR+zofKY/zd0Cjl7Y5vuyywckzwsZ9PCjIDMf3WLh3J6Uz+988cUNu55//vnbXXjhhW9qUw3Msb5oJ9EWFV/ROv6y/1b4duE0dwtUrUBC9s03T9nlssuu/PiPf9zwsV/96qYP4TvJnhMQEFAbwECg3YA5/lfb9gMCAgICxiYgiFIKCAgICAgICAgICAgICAgICAgICAgICAgICAgICAgICAgICAgICAgICAgICAgICAgICAgICAgIqBH/D7Y1lhUYyShsAAAAAElFTkSuQmCC;" vertex="1" parent="1">
          <mxGeometry x="578" y="39" width="187" height="65.92" as="geometry" />
        </mxCell>
        <mxCell id="eMzF4xJFRhqNWofxbKlj-4" value="TARGETTY Core" style="shape=image;verticalLabelPosition=bottom;labelBackgroundColor=default;verticalAlign=top;aspect=fixed;imageAspect=0;image=data:image/png,iVBORw0KGgoAAAANSUhEUgAAAFAAAABNCAYAAAAxWePoAAAAAXNSR0IArs4c6QAAAARnQU1BAACxjwv8YQUAAAAJcEhZcwAAFxEAABcRAcom8z8AAA7qSURBVHhe7VwLdFTVuT55kkwehISQNxDCy4SnImhFAwqoXWqt1fq4gouLxbrUq22vlWQyZ868H+RFYgIBgYpFRYnU1qJX27LE2y7vKr3YAjPnfeaZwJK3dtUuav6u/8wEwp4ZxEwgIWv+tb41s87Z/9l7f2effc7+97c3RV1l234Q8u7a6qmeu0FZOtEuPVjTIr4wycavr3IKb+fQ7O5yB3+g1Ca48hj2cLY+BPyPxyY6+AN5jLu70sm/XukQHNOa5bWTncL3bnhZWnz/L7xVfX19WWR+17Q9806goMohXD+92fNkuY3fnMOw+zNpXsqk2bMagwhjrEeBYgJA0V6gGmSgdDJQ9XwIWgL9xzENAn2MPZBh6QGNnoNMHXs81yBwRWb+d6U2wT6jSfpBTYtyXV9fXyZZrhFt//Gav/zGTs+TEyzC9lyG/ZuGZiFJ71FB6b2hymsFoOpYoNa5gKrrh/sC6mNgYJrzfi6g6jmgGkSgdAokMV41r2S9Alk0ezbPLH4ytVFsr93iu+vFX32eQ5Z3RFhvX1/WvA3Sg6V2ZUeunj2erpcg2dSjVoiqZ4kKu0MtqkECivaEK+wFSiVZUUHR2MIicf68mtYLFONVr6FeC695/oaEScZjtBdSTQFI13Ff5xt4tqpJctRu999E1mFYrP3/AgVz2j3P5Zv4gxqjAhTjD7UulbT+1sGGjiGZhiBkmP2QqXN9pdGxwRwDd6jAyH5cZuN3FZi55gqHwMxtkxtyaHZlsYV/vNgkrFRh4R/X0OzKuW1iwySnYCi18e0lVn5XvpH9OJvhDmU0sMEMneurTGtQzUPNK6Ic2EolSDIGIcsofllsE/cs2igtJ+t01WxOu/JIkU35W5oh3ArwkRz4WGkFtbBpOgEyde5TxVZ+f7lTsk+2i0/c1CHXPv3e0SkAkE5e99saXmP17qNT5nXItTNbhB9NXi83FVn5/RrafTqVFoEyBEJ9J1E2vNlZjAilVqF7xRZpIXndK2bOfceKpzbyOzKY0CMY0R9pBUg2+CCH4U4WW/g357XLT9y12V8+FGRdrh0GSH/y3d7KWa3K6jKr8E6ugT9LMb5w33tkQHk5SDIEINvAn57dJr5IXmfITfvBiYoyu7w/1dQbeiQGEoegFchmuLNVTYqjtkuZSfoPly3e6Kkud8hNY83S37GMEeVukCDd5IfZLdI2AEgj/YfEfuX+PGfyevEjytAT2eoQOhnyzdKh5Vv9i0jfkWJ3bvPeOtYkuZLwpUSWv56DdEsvzGgU20m/IbEFHfLzY8xIHtHXIbQC5Bj4k6t29V69vmSQdv+rvloNw58OPc4kiTxoTB64tcv/A9IvLus6AGmFZm6f+vFKZlrngiTGD7mMax/pNxINAJLyjeyBWHWh9D4otwu/fQsghfQdtK396OTYEivfo36skhkiGiTI1vOBNe/6ppK+I82e6Q5en2PgTkRtgWpdRCi28MHn9h7PJX0HbTgkm7JeiN7sw0iiPVBmEz55fNfIJfH+NwLTK5zSX6L2gf3QClBh50+t2eXLJ/0HbT/5wJdf6RROXopAlUS9FwqMfGDRRv/z//WuVEReZ7jsR92eklltys/GmcWg+pEdpewXEWjjTzy90zuOvM6g7XIJVIGfBEYvFJgFbqJdsC/b2lP74C7fVR/Q39MV1Cza6F9SZuPXF5gFKRU/+HEcTpaXxLATqMKtRldSjH4Yo+P/mWdg+TKbsK261fPsda3iHY/u9k8DgAwyn8EaAGge3RmcObOZXzGtSXq20sm/Mc7AyWkN/D+TDf7QWDnap1c0jAwC+xEe0Otw1OKFNHMPDuu+zqLZniyaPVhgZD+cYOZemewQbDOauBfLbfxjc9qUB76/M/BQbZd3GfXSobkI/H/fjsBDNS3iAyU28bFp6zGtYCux8q8Wmrg/ZNPcX7Np99FMmoVU/NRSw2PhAMPlEtePkUUgAYyWhAf1aiTG4Ff7TTXKgtEWnagiGX8bBKC0nAr8rx7rR39kBiM5GMBQIzJi9NHRt8WIJjAmBsYB2QG/AzHgXLSY4FDh2iRwBCFBYJxIEBgnEgTGiQSBcSJBYJxIEBgnEgTGiQSBcSJBYJxIEBgnEgTGiZFFYH8AgAsjHBiISBcFavBggN83Bg+iBCC+0ScKRgaBblWJlcJ4IEnLQnK9C1K0bkjWspBCS6AGOaNNj4YrgGEuNZ3WDSn1rpCfXg5pb2KFrJAwDIENRKy0l8KwE6gVIEMvwgSL8GmVQ3CUmvl7b2hXltz+in/pda3id2dixNghvprDcGcvbo1uQPmFhuFPlFr57qmN4vM1G+QVtVuUJbNaxe9Oa5Lqiq38B1k0ey4kKRmQJ0rn1h35I7Xu8Gqq7vBTVP3htVS960mqzv1bVdlFlvFSGFYCtQLkmYQz3+n0Pv1NIfuaVunPqqgS/VAVYPRCZZPcffsW/xwy7UC7/RVlaZFN+mOKwXchX+NR/O0i01J1LloVF5HlvBSGjcB6FjQG6dyyrb5HSX/SACB1elM/gW5IZRSY2SK14XEybTRDgVO5XfgdTqWqeRt78XcbmY6qc5kptbuIUt5YGDYCaQUmmNnfkL7rPjpTMK9NfHR+u+elmpf9K5du8d6ArfO6ZulPKoG0ByY7+PejkQcAyXV7zxaSx9Ge2tM7ebxFCFBaaZQQyARgWlOkRKzKKfz3GOcpoJgeSLf0oOzti2IL9/tSG99L1YuQY+D+seqdSE3N/A3SvQVW+X+zGMlV5pTfeuG9o1PINPPapHp89EcHgYYATHGKL5C+89uVm8eZhM9SDaiRRo2eFNJK4wtE74MKK/se6lUG+mA/mM2wp9S+TadAivU4THIIu986fLHGcM2uY1MzdOxxynICy3CNE0h7YJKD2036oj23l89d2On7z2IL//ssfVjuu84N6eYemOTk15HpZzRJjjTrsQua53oOW+65e1/31pBpJ5j5Q5TtNKa7xgms53C5wVdLOoU7Sf9+wz5txTbvw4UmgaP0fshgRKhuFp8g0+WbuV+qyx/OX5tVpzZv7JTuIdOON3LvU/bRQCBCJ8FYk9hza5fnkvq6VW8cq8ozcu4MSwAWbfI8Tp7P1nM7SAJxfri6Rb6PTJvLsO+OHgIRDTKMaWC/LrVLexZ0iA+gspW8HhoqEMbaA1BmE9eS5yY7xY5kk/ptFwJ+IjEiLNusXLQ8AfvOAhN7cHQ8wnUuSG3gVIG5qjxgfJBh9EChVfr/mzq895LXxM+bTJ37eLlN2ESeW9Am3p1tUsIrl1hAWXGFjT+44dOLNXsvvv/5DI3OdYqyHMf8Iwmsd1koYzDKGDmy7MNPoFZEfeD+Sie/I4tm/5GMi2GMQUhuPgeFZv5j8k2799PjuWkNLjHPwCkv7zuWPfAcpp3byluzDfLpMYzSV2RX/rp4kxyhvZ7TKv0sHVVXMT5jkurc1mRzDyTjjUVoQ4go+4ggkPZBmZXfjunve1WZX90iv1Rh4/eU2aU9i7t895PXXLrVP1fDcGdSjEGY3yb/nDyPNn/9kUnjW89Me36Pkkeee26vv3y8WZDVN3oMAhdvDkyv3dp7zy1dyt2I27Z4l89vF3+crnWdilmX4SPQC6U2YSfpG8tmNAldKbhUSytANsN/eUuneDeZJpahnG2iU+5OwrUfmHcMAqPZwjZPZVqDuzemXHk4CSyzcd9IYF9f35jr22VaY0DNHvZHR9Q+M8sonrixU8EgRMSQrt/0eki+faNv4USH8GGaGkwIx/vwhfOSK6IvjWY1jUJFWgMbW+89bATW85Br4IJVjVL9FId4x82dvlm1m/3lj7zuLb11s6dyZotw84wm8akKu/BpOo5KLlp+hSSKkM7IUGThP67eIK+taZVutOzvuWgc3LIP8qqbpQ9SHWcukI/+eh9k0O4PcUXm4k2xUbvJd9fcNvmpNPURJpZ/DTuBWBkMYOp9oDHKkKVnT2bq3FIW7RY0tNunod3/Ut/QqkY5RqQY35A6BVKNftDo2a8KzMKhmzuE7wwsy2M7j06Z5JTfTjPh2zVMwrojMEYvwnhnEPIdsVHgDMJYq18N1F681HZEEDgQqEzFIVt4cTR+1nzb6DCSwwRgnEXxr3rTd9vA8mA3UN2qrM/E9XqqfDcs3rxckHkNxMggcKhwRA3jj7fK/ts2+WaT5VrQrjySbZT8Easx48HoIhBxRH1BjTOw4i0bPc+u2KqsXr7Vt2bZFmX1fTu8D9VulneONYl9GJyI9B0ERh+BoT6O0omQppcgjRYuQMdDqtZ9DieeInwGi1FJYD/IIdlgpy4vhVFN4NVAgsA4kSAwTiQIjBMJAuNEgsA4kSAwTiQIjBMJAuPElSDwmY9wzwTxTILAQRruYFFk4Xwxo7ijCUignT/1k6HcdAL3UCm0cHtx4igiw9GGBhlKrMJn+n3KJfWN39pQQZBpvoTEdjRgnQvSLL2woEMxkvWP2wAgZYqT+6W6sWIsffO1DIxUMwGcWfyz/n++mEDWf0hMfyCoKTQLO/Euja4XCqvuuFlil9gf7hBnkfUeUvv1gaCmyinYNTR3TtX7XeutUaeo+uyJjcqv11zNXZduaJeWl9rET3AqUiXymuob3aokGYXqY82SWL1Begald2Qdr7jhFsMLO+WVRVZhfxYjhPYvVbcfGYmt8sKmtBkmH+RbZL5mg2L8/mueErJeV93w7i3qVO4ub/RszGXYAO6bisKi0BzwFQi7XxYwT9QV4j6qQUhjPDhX/WWpQ9o7r01a07jv7HiyHiPCftzdOwGnG4stfFeBSfgsh2EhGVcsRdtHOqLSg4A6z4tEhbdWVjfyCW3mg5Pt+UbOW2KTume2SD9d9XZvzbA8qoO1pj/58ue+rMyb0+ZZM9EhbMozcJ9k6lhJQ7Nf4Ca26ttc7wdK5wkTG959iNzF/Pxu5ngON9wOLY/AvjfVchQyDDJk6Ni/Z+lY/zgT/5dCq/Da9Ebppws65NqH3whUkOW6pm37wVN5d/7CWzOjRVlS6RQemt0s/rzSIXROMPNvFlv5P5RZeRfuDZ2idR+i1oWA//FYmY13YZoCM/9mhY3rmN0iaasa5YenN4p3LOqQ5uj3HSsm87vS9m81Tp1FlfQ8BAAAAABJRU5ErkJggg==;" vertex="1" parent="1">
          <mxGeometry x="610" y="670" width="59.22" height="57" as="geometry" />
        </mxCell>
        <mxCell id="eMzF4xJFRhqNWofxbKlj-7" value="TARGETTY" style="shape=image;verticalLabelPosition=bottom;verticalAlign=top;imageAspect=0;aspect=fixed;image=data:image/svg+xml,PHN2ZyB4bWxucz0iaHR0cDovL3d3dy53My5vcmcvMjAwMC9zdmciIGZpbGw9Im5vbmUiIHZpZXdCb3g9IjAgMCA0OCA0OCIgaGVpZ2h0PSI0OCIgd2lkdGg9IjQ4Ij4mI3hhOzxwYXRoIGZpbGw9InVybCgjcGFpbnQwX2xpbmVhcl8zNTc0OV8xMTM1ODkpIiBkPSJNMzguOTk5OSA0Mi43MTE2QzQxLjc1OTkgNDIuNzExNiA0My45OTk5IDQwLjQ3NSA0My45OTk5IDM3LjcxOTJWMTguMjQ4N0M0My45OTk5IDE3LjY0OTYgNDMuNjg5OSAxNy4xMzA0IDQzLjIxOTkgMTYuODQwOUMzOS4yNzk5IDE0LjQwNDUgMjkuNDk5OSA4LjM3MzY5IDI0Ljg1OTkgNS41MDgwM0MyNC42MDk5IDUuMzU4MjYgMjQuMzE5OSA1LjI3ODM4IDI0LjAwOTkgNS4yNzgzOEMyMy42Nzk5IDUuMjc4MzggMjMuMzc5OSA1LjM3ODIzIDIzLjExOTkgNS41Mzc5OUMxOC40Njk5IDguNDEzNjMgOC43Mzk4NyAxNC40MTQ1IDQuNzk5ODcgMTYuODQwOUM0LjMyOTg3IDE3LjEzMDQgNC4wMDk4OSAxNy42NTk2IDQuMDA5ODkgMTguMjU4N1YzNy43MjkyQzQuMDA5ODkgNDAuNDg1IDYuMjQ5ODkgNDIuNzIxNiA5LjAwOTg5IDQyLjcyMTZIMzkuMDA5OUwzOC45OTk5IDQyLjcxMTZaIi8+JiN4YTs8cGF0aCBmaWxsPSJ1cmwoI3BhaW50MV9saW5lYXJfMzU3NDlfMTEzNTg5KSIgZD0iTTQgMjYuNTQ1OVYzNy43MTg5QzQgNDAuNDc0OCA2LjI0IDQyLjcxMTQgOSA0Mi43MTE0SDM5QzQxLjc2IDQyLjcxMTQgNDQgNDAuNDc0OCA0NCAzNy43MTg5VjI2LjU0NTlINFoiLz4mI3hhOzxwYXRoIGZpbGw9InVybCgjcGFpbnQyX2xpbmVhcl8zNTc0OV8xMTM1ODkpIiBkPSJNOSA0Mi43MTE2QzYuMjQgNDIuNzExNiA0IDQwLjQ3NSA0IDM3LjcxOTJWMjYuMDc2OEM0IDI1LjQ2NzcgNC4zMyAyNC45Mzg1IDQuODEgMjQuNjQ5TDE4LjEyIDE2LjQzMTRDMTguMzggMTYuMjcxNyAxOC42OCAxNi4xODE4IDE5IDE2LjE4MThDMTkuMzIgMTYuMTgxOCAxOS42MyAxNi4yNzE3IDE5Ljg4IDE2LjQzMTRMMzMuMTkgMjQuNjQ5QzMzLjY4IDI0LjkzODUgMzQgMjUuNDY3NyAzNCAyNi4wNzY4VjM3LjcxOTJDMzQgNDAuNDc1IDM2LjI0IDQyLjcxMTYgMzkgNDIuNzExNkg5WiIvPiYjeGE7PHBhdGggZmlsbD0idXJsKCNwYWludDNfcmFkaWFsXzM1NzQ5XzExMzU4OSkiIGQ9Ik05IDQyLjcxMTZDNi4yNCA0Mi43MTE2IDQgNDAuNDc1IDQgMzcuNzE5MlYyNi4wNzY4QzQgMjUuNDY3NyA0LjMzIDI0LjkzODUgNC44MSAyNC42NDlMMTguMTIgMTYuNDMxNEMxOC4zOCAxNi4yNzE3IDE4LjY4IDE2LjE4MTggMTkgMTYuMTgxOEMxOS4zMiAxNi4xODE4IDE5LjYzIDE2LjI3MTcgMTkuODggMTYuNDMxNEwzMy4xOSAyNC42NDlDMzMuNjggMjQuOTM4NSAzNCAyNS40Njc3IDM0IDI2LjA3NjhWMzcuNzE5MkMzNCA0MC40NzUgMzYuMjQgNDIuNzExNiAzOSA0Mi43MTE2SDlaIi8+JiN4YTs8cGF0aCBmaWxsPSJ1cmwoI3BhaW50NF9saW5lYXJfMzU3NDlfMTEzNTg5KSIgZD0iTTM0IDM3LjcxODlWMjYuNTQ1OUg0VjM3LjcxODlDNCA0MC40NzQ4IDYuMjQgNDIuNzExNCA5IDQyLjcxMTRIMzlDMzYuMjQgNDIuNzExNCAzNCA0MC40NzQ4IDM0IDM3LjcxODlaIi8+JiN4YTs8cGF0aCBmaWxsPSJ1cmwoI3BhaW50NV9saW5lYXJfMzU3NDlfMTEzNTg5KSIgZD0iTTkgNDIuNzExN0M2LjI0IDQyLjcxMTcgNCA0MC40NzUxIDQgMzcuNzE5M1YzMy45MDUxQzQgMzMuMzA2IDQuMzIwMDEgMzIuNzg2OCA0Ljc5MDAxIDMyLjQ4NzJMMTMuMTIgMjcuMzQ1QzEzLjM4IDI3LjE4NTMgMTMuNjggMjcuMDk1NCAxNCAyNy4wOTU0QzE0LjMyIDI3LjA5NTQgMTQuNjMgMjcuMTg1MyAxNC44OCAyNy4zNDVDMTQuODggMjcuMzQ1IDE5LjQyIDMwLjE1MDggMjMuMiAzMi40NzcyQzIzLjY4IDMyLjc2NjggMjQgMzMuMjk2IDI0IDMzLjg5NTFWMzcuNzE5M0MyNCA0MC40NzUxIDI2LjI0IDQyLjcxMTcgMjkgNDIuNzExN0g5WiIvPiYjeGE7PHBhdGggZmlsbD0idXJsKCNwYWludDZfbGluZWFyXzM1NzQ5XzExMzU4OSkiIGQ9Ik0yNC44MyA0MC40NzQ4QzI0LjMxIDM5LjY4NiAyNCAzOC43NDc1IDI0IDM3LjcyOVYzMy45MDQ4QzI0IDMzLjMwNTcgMjMuNjggMzIuNzc2NSAyMy4yIDMyLjQ4N0MxOS40MiAzMC4xNjA1IDE0Ljg4IDI3LjM1NDcgMTQuODggMjcuMzU0N0MxNC42MiAyNy4xOTUgMTQuMzIgMjcuMTA1MSAxNCAyNy4xMDUxQzEzLjY4IDI3LjEwNTEgMTMuMzcgMjcuMTk1IDEzLjEyIDI3LjM1NDdMNC43OTAwMSAzMi40OTY5QzQuMzIwMDEgMzIuNzg2NSA0IDMzLjMxNTcgNCAzMy45MTQ4VjM3LjcyOUM0IDM4Ljc0NzUgNC4zMDk5OSAzOS42OTYgNC44Mjk5OSA0MC40ODQ4SDI0LjgzVjQwLjQ3NDhaIi8+JiN4YTs8ZGVmcz4mI3hhOzxsaW5lYXJHcmFkaWVudCBncmFkaWVudFVuaXRzPSJ1c2VyU3BhY2VPblVzZSIgeTI9IjUuMjY4NCIgeDI9IjIzLjk5OTkiIHkxPSI0Mi43MTE2IiB4MT0iMjMuOTk5OSIgaWQ9InBhaW50MF9saW5lYXJfMzU3NDlfMTEzNTg5Ij4mI3hhOzxzdG9wIHN0b3AtY29sb3I9IiMxMTRBODUiLz4mI3hhOzxzdG9wIHN0b3AtY29sb3I9IiMwMjhFREIiIG9mZnNldD0iMC42NyIvPiYjeGE7PC9saW5lYXJHcmFkaWVudD4mI3hhOzxsaW5lYXJHcmFkaWVudCBncmFkaWVudFVuaXRzPSJ1c2VyU3BhY2VPblVzZSIgeTI9IjI4LjI2MzMiIHgyPSIyNCIgeTE9IjQ0LjQyODgiIHgxPSIyNCIgaWQ9InBhaW50MV9saW5lYXJfMzU3NDlfMTEzNTg5Ij4mI3hhOzxzdG9wIHN0b3Atb3BhY2l0eT0iMC4yIi8+JiN4YTs8c3RvcCBzdG9wLW9wYWNpdHk9IjAiIG9mZnNldD0iMC41NSIvPiYjeGE7PC9saW5lYXJHcmFkaWVudD4mI3hhOzxsaW5lYXJHcmFkaWVudCBncmFkaWVudFVuaXRzPSJ1c2VyU3BhY2VPblVzZSIgeTI9IjE2LjE4MTgiIHgyPSIyMS41IiB5MT0iNDIuNzExNiIgeDE9IjIxLjUiIGlkPSJwYWludDJfbGluZWFyXzM1NzQ5XzExMzU4OSI+JiN4YTs8c3RvcCBzdG9wLWNvbG9yPSIjMDA5NEU1IiBvZmZzZXQ9IjAuMzEiLz4mI3hhOzxzdG9wIHN0b3AtY29sb3I9IiM0MEQ4RjkiIG9mZnNldD0iMSIvPiYjeGE7PC9saW5lYXJHcmFkaWVudD4mI3hhOzxyYWRpYWxHcmFkaWVudCBncmFkaWVudFRyYW5zZm9ybT0idHJhbnNsYXRlKDE0Ljc4IDM5LjI1NjgpIHNjYWxlKDE0LjY5IDE0LjY2NzgpIiBncmFkaWVudFVuaXRzPSJ1c2VyU3BhY2VPblVzZSIgcj0iMSIgY3k9IjAiIGN4PSIwIiBpZD0icGFpbnQzX3JhZGlhbF8zNTc0OV8xMTM1ODkiPiYjeGE7PHN0b3Agc3RvcC1vcGFjaXR5PSIwLjMiLz4mI3hhOzxzdG9wIHN0b3Atb3BhY2l0eT0iMCIgb2Zmc2V0PSIxIi8+JiN4YTs8L3JhZGlhbEdyYWRpZW50PiYjeGE7PGxpbmVhckdyYWRpZW50IGdyYWRpZW50VW5pdHM9InVzZXJTcGFjZU9uVXNlIiB5Mj0iMjYuNTQ1OSIgeDI9IjIxLjUiIHkxPSI0Mi43MTE0IiB4MT0iMjEuNSIgaWQ9InBhaW50NF9saW5lYXJfMzU3NDlfMTEzNTg5Ij4mI3hhOzxzdG9wIHN0b3Atb3BhY2l0eT0iMC4yIiBvZmZzZXQ9IjAuMDkiLz4mI3hhOzxzdG9wIHN0b3Atb3BhY2l0eT0iMCIgb2Zmc2V0PSIwLjU1Ii8+JiN4YTs8L2xpbmVhckdyYWRpZW50PiYjeGE7PGxpbmVhckdyYWRpZW50IGdyYWRpZW50VW5pdHM9InVzZXJTcGFjZU9uVXNlIiB5Mj0iMjcuMDk1NCIgeDI9IjE2LjUiIHkxPSI0Mi43MjE3IiB4MT0iMTYuNSIgaWQ9InBhaW50NV9saW5lYXJfMzU3NDlfMTEzNTg5Ij4mI3hhOzxzdG9wIHN0b3AtY29sb3I9IiMzQ0M1RUUiLz4mI3hhOzxzdG9wIHN0b3AtY29sb3I9IiM1MEUwRkYiIG9mZnNldD0iMSIvPiYjeGE7PC9saW5lYXJHcmFkaWVudD4mI3hhOzxsaW5lYXJHcmFkaWVudCBncmFkaWVudFVuaXRzPSJ1c2VyU3BhY2VPblVzZSIgeTI9IjI0LjY4ODgiIHgyPSIxNC40MSIgeTE9IjM4LjA2ODUiIHgxPSIxNC40MSIgaWQ9InBhaW50Nl9saW5lYXJfMzU3NDlfMTEzNTg5Ij4mI3hhOzxzdG9wIHN0b3Atb3BhY2l0eT0iMCIgc3RvcC1jb2xvcj0iI0ExRUNGRiIvPiYjeGE7PHN0b3Agc3RvcC1vcGFjaXR5PSIwLjkiIHN0b3AtY29sb3I9IiNBMUVDRkYiIG9mZnNldD0iMC45Ii8+JiN4YTs8L2xpbmVhckdyYWRpZW50PiYjeGE7PC9kZWZzPiYjeGE7PC9zdmc+" vertex="1" parent="1">
          <mxGeometry x="90" y="520" width="58" height="58" as="geometry" />
        </mxCell>
        <mxCell id="bffVrXs4wsRks4A8QZo4-1" value="" style="shape=image;verticalLabelPosition=bottom;verticalAlign=top;imageAspect=0;aspect=fixed;image=data:image/svg+xml,PHN2ZyB4bWxucz0iaHR0cDovL3d3dy53My5vcmcvMjAwMC9zdmciIGZpbGw9Im5vbmUiIHZpZXdCb3g9IjAgMCAzMiAzMyIgaGVpZ2h0PSIzMyIgd2lkdGg9IjMyIj4mI3hhOzxwYXRoIGZpbGw9ImJsYWNrIiBkPSJNOS4zOTM2OSAxMC4yMjE4QzguODg2MDYgMTAuMDA0MiA4LjI5ODE4IDEwLjIzOTQgOC4wODA2MiAxMC43NDdDNy44NjMwNyAxMS4yNTQ3IDguMDk4MjIgMTEuODQyNSA4LjYwNTg1IDEyLjA2MDFMMTQuOTk5OCAxNC44MDAzVjIxLjE0MDlDMTQuOTk5OCAyMS42OTMyIDE1LjQ0NzUgMjIuMTQwOSAxNS45OTk4IDIyLjE0MDlDMTYuNTUyMSAyMi4xNDA5IDE2Ljk5OTggMjEuNjkzMiAxNi45OTk4IDIxLjE0MDlWMTQuODAwM0wyMy4zOTM3IDEyLjA2MDFDMjMuOTAxMyAxMS44NDI1IDI0LjEzNjUgMTEuMjU0NyAyMy45MTg5IDEwLjc0N0MyMy43MDE0IDEwLjIzOTQgMjMuMTEzNSAxMC4wMDQyIDIyLjYwNTkgMTAuMjIxOEwxNS45OTk4IDEzLjA1M0w5LjM5MzY5IDEwLjIyMThaTTE4LjE1MzkgMi44OTgwM0MxNi43Njc1IDIuMzY0OCAxNS4yMzI1IDIuMzY0OCAxMy44NDYxIDIuODk4MDNMMy45MjMwNiA2LjcxNDZDMi43NjQ0OSA3LjE2MDIgMiA4LjI3MzMyIDIgOS41MTQ2M1YyMi43Njc0QzIgMjQuMDA4OCAyLjc2NDQ5IDI1LjEyMTkgMy45MjMwNiAyNS41Njc1TDEzLjg0NjEgMjkuMzg0QzE1LjIzMjUgMjkuOTE3MyAxNi43Njc1IDI5LjkxNzMgMTguMTUzOSAyOS4zODRMMjguMDc2OSAyNS41Njc1QzI5LjIzNTUgMjUuMTIxOSAzMCAyNC4wMDg4IDMwIDIyLjc2NzRWOS41MTQ2M0MzMCA4LjI3MzMyIDI5LjIzNTUgNy4xNjAyIDI4LjA3NjkgNi43MTQ2TDE4LjE1MzkgMi44OTgwM1pNMTQuNTY0MSA0Ljc2NDczQzE1LjQ4ODQgNC40MDkyNCAxNi41MTE2IDQuNDA5MjQgMTcuNDM1OSA0Ljc2NDczTDI3LjM1OSA4LjU4MTI5QzI3Ljc0NTIgOC43Mjk4MiAyOCA5LjEwMDg2IDI4IDkuNTE0NjNWMjIuNzY3NEMyOCAyMy4xODEyIDI3Ljc0NTIgMjMuNTUyMiAyNy4zNTkgMjMuNzAwOEwxNy40MzU5IDI3LjUxNzNDMTYuNTExNiAyNy44NzI4IDE1LjQ4ODQgMjcuODcyOCAxNC41NjQxIDI3LjUxNzNMNC42NDEwMiAyMy43MDA4QzQuMjU0ODMgMjMuNTUyMiA0IDIzLjE4MTIgNCAyMi43Njc0VjkuNTE0NjNDNCA5LjEwMDg2IDQuMjU0ODMgOC43Mjk4MiA0LjY0MTAyIDguNTgxMjlMMTQuNTY0MSA0Ljc2NDczWiIvPiYjeGE7PC9zdmc+" vertex="1" parent="1">
          <mxGeometry x="760" y="532.5" width="32" height="33" as="geometry" />
        </mxCell>
        <mxCell id="bffVrXs4wsRks4A8QZo4-4" value="TT Landing" style="rounded=0;whiteSpace=wrap;html=1;" vertex="1" parent="1">
          <mxGeometry x="350" y="770" width="120" height="40" as="geometry" />
        </mxCell>
        <mxCell id="bffVrXs4wsRks4A8QZo4-5" value="TT Plan item" style="rounded=0;whiteSpace=wrap;html=1;" vertex="1" parent="1">
          <mxGeometry x="350" y="710" width="120" height="40" as="geometry" />
        </mxCell>
        <mxCell id="bffVrXs4wsRks4A8QZo4-6" value="TT Account" style="rounded=0;whiteSpace=wrap;html=1;" vertex="1" parent="1">
          <mxGeometry x="350" y="650" width="120" height="40" as="geometry" />
        </mxCell>
        <mxCell id="bffVrXs4wsRks4A8QZo4-7" value="TT Statement" style="rounded=0;whiteSpace=wrap;html=1;" vertex="1" parent="1">
          <mxGeometry x="350" y="590" width="120" height="40" as="geometry" />
        </mxCell>
      </root>
    </mxGraphModel>
  </diagram>
  <diagram name="PWTC" id="C4O2UrPE6b0XbYrt_uVH">
    <mxGraphModel dx="2166" dy="785" grid="1" gridSize="10" guides="1" tooltips="1" connect="1" arrows="1" fold="1" page="1" pageScale="1" pageWidth="827" pageHeight="1169" math="0" shadow="0">
      <root>
        <mxCell id="gxo681l_O-IEjd7Bf2fG-0" />
        <mxCell id="gxo681l_O-IEjd7Bf2fG-1" parent="gxo681l_O-IEjd7Bf2fG-0" />
        <mxCell id="gxo681l_O-IEjd7Bf2fG-2" value="" style="rounded=0;whiteSpace=wrap;html=1;fillColor=none;" parent="gxo681l_O-IEjd7Bf2fG-1" vertex="1">
          <mxGeometry x="-30" y="20" width="890" height="651" as="geometry" />
        </mxCell>
        <mxCell id="gxo681l_O-IEjd7Bf2fG-3" value="" style="rounded=0;whiteSpace=wrap;html=1;fillColor=none;" parent="gxo681l_O-IEjd7Bf2fG-1" vertex="1">
          <mxGeometry x="621" y="36" width="199" height="437.97" as="geometry" />
        </mxCell>
        <mxCell id="gxo681l_O-IEjd7Bf2fG-4" value="" style="rounded=0;whiteSpace=wrap;html=1;" parent="gxo681l_O-IEjd7Bf2fG-1" vertex="1">
          <mxGeometry x="182.82" y="36" width="410" height="437.97" as="geometry" />
        </mxCell>
        <mxCell id="gxo681l_O-IEjd7Bf2fG-5" value="" style="rounded=0;whiteSpace=wrap;html=1;fillColor=#dae8fc;strokeColor=#6c8ebf;" parent="gxo681l_O-IEjd7Bf2fG-1" vertex="1">
          <mxGeometry x="310" y="246" width="500" height="204" as="geometry" />
        </mxCell>
        <mxCell id="gxo681l_O-IEjd7Bf2fG-6" value="" style="rounded=0;whiteSpace=wrap;html=1;" parent="gxo681l_O-IEjd7Bf2fG-1" vertex="1">
          <mxGeometry x="5.59" y="36" width="146" height="437.97" as="geometry" />
        </mxCell>
        <mxCell id="gxo681l_O-IEjd7Bf2fG-7" value="7core" style="image;sketch=0;aspect=fixed;html=1;points=[];align=center;fontSize=12;image=img/lib/mscae/Azure_Database_for_PostgreSQL_servers.svg;" parent="gxo681l_O-IEjd7Bf2fG-1" vertex="1">
          <mxGeometry x="56.260000000000005" y="107" width="46.4" height="61.05" as="geometry" />
        </mxCell>
        <mxCell id="gxo681l_O-IEjd7Bf2fG-8" value="TSM, Datastore" style="image;aspect=fixed;html=1;points=[];align=center;fontSize=12;image=img/lib/azure2/analytics/Event_Hubs.svg;" parent="gxo681l_O-IEjd7Bf2fG-1" vertex="1">
          <mxGeometry x="56.260000000000005" y="398" width="44.66" height="40" as="geometry" />
        </mxCell>
        <mxCell id="gxo681l_O-IEjd7Bf2fG-9" value="Gold" style="shape=image;verticalLabelPosition=bottom;verticalAlign=top;imageAspect=0;aspect=fixed;image=data:image/svg+xml,PHN2ZyB4bWxucz0iaHR0cDovL3d3dy53My5vcmcvMjAwMC9zdmciIGZpbGw9Im5vbmUiIHZpZXdCb3g9IjAgMCAzMiAzMyIgaGVpZ2h0PSIzMyIgd2lkdGg9IjMyIj4mI3hhOzxwYXRoIGZpbGw9ImJsYWNrIiBkPSJNMTIuNjI2IDQuMzkwMDJDMTMuMzk3IDMuNjYxNzQgMTQuNjAzIDMuNjYxNzQgMTUuMzc0IDQuMzkwMDJMMjUuMDYxIDEzLjU0MDNDMjUuNjYwNCAxNC4xMDY0IDI2IDE0Ljg5NDEgMjYgMTUuNzE4MlYxOC42MDYyQzI1Ljc5OSAxOC40MjY0IDI1LjU3NCAxOC4yNzQgMjUuMzMwNyAxOC4xNTM4QzI0LjkxNyAxNy45NDkyIDI0LjQ2MTUgMTcuODQzMiAyNCAxNy44NDM4VjE1LjcxODJDMjQgMTUuNDQzNSAyMy44ODY4IDE1LjE4MSAyMy42ODcgMTQuOTkyMkwxNCA1Ljg0MTk4TDQuMzEyOTkgMTQuOTkyMkM0LjExMzIgMTUuMTgxIDQgMTUuNDQzNSA0IDE1LjcxODJWMjYuODQ2NkM0IDI3LjM5ODMgNC40NDc3MiAyNy44NDU2IDUgMjcuODQ1Nkg4Ljc2MjNDOC4yNzI2NyAyOC4zOTM5IDggMjkuMTA0OCA4IDI5Ljg0MzhMNSAyOS44NDM4QzMuMzQzMTQgMjkuODQzOCAyIDI4LjUwMTkgMiAyNi44NDY2VjE1LjcxODJDMiAxNC44OTQxIDIuMzM5NjEgMTQuMTA2NCAyLjkzODk2IDEzLjU0MDNMMTIuNjI2IDQuMzkwMDJaIi8+JiN4YTs8cGF0aCBmaWxsPSJibGFjayIgZD0iTTI5IDIyLjg0MzdDMjguMzk3OSAyMi44NzczIDI3Ljc5NTIgMjIuNzg3NiAyNy4yMjg5IDIyLjU4QzI2LjY2MjcgMjIuMzcyNSAyNi4xNDQ4IDIyLjA1MTUgMjUuNzA3IDIxLjYzNjdDMjUuNDY1OCAyMS4zOTY0IDI1LjI1OTEgMjEuMTIzOCAyNS4wOTMgMjAuODI2N0MyNS4wNTI2IDIwLjc1MDYgMjUuMDE2MyAyMC42NzI1IDI0Ljk4NCAyMC41OTI3QzI0Ljk0OTMgMjAuNTA1OSAyNC45MDkyIDIwLjQyMTQgMjQuODY0IDIwLjMzOTdDMjQuODQzNyAyMC4zMDUgMjQuODIxNCAyMC4yNzE2IDI0Ljc5NyAyMC4yMzk3QzI0LjY3MTkgMjAuMDc1MyAyNC40OTkgMTkuOTUzNyAyNC4zMDIxIDE5Ljg5MTZDMjQuMTA1MSAxOS44Mjk1IDIzLjg5MzcgMTkuODI5OCAyMy42OTcgMTkuODkyN0gyMy42ODdDMjMuNDU2NiAxOS45NzA5IDIzLjI2MTggMjAuMTI5MiAyMy4xMzggMjAuMzM4N0MyMy4wODYxIDIwLjQzNTMgMjMuMDQxMyAyMC41MzU1IDIzLjAwNCAyMC42Mzg3TDIyLjk5MzUgMjAuNjY0OEMyMi45NjYxIDIwLjczMzIgMjIuOTM4NiAyMC44MDE5IDIyLjkwNCAyMC44NjY3QzIyLjc1NDEgMjEuMTY2IDIyLjU3MDkgMjEuNDQ3NCAyMi4zNTggMjEuNzA1N0MyMi4wNzY1IDIyLjA2MTEgMjEuNzE4MiAyMi4zNDgyIDIxLjMxMDEgMjIuNTQ1NUMyMC45MDE5IDIyLjc0MjkgMjAuNDU0NCAyMi44NDU0IDIwLjAwMSAyMi44NDU0QzE5LjU0NzYgMjIuODQ1NCAxOS4xMDAxIDIyLjc0MjkgMTguNjkxOSAyMi41NDU1QzE4LjI4MzggMjIuMzQ4MiAxNy45MjU1IDIyLjA2MTEgMTcuNjQ0IDIxLjcwNTdDMTcuNDMxMSAyMS40NDc0IDE3LjI0NzkgMjEuMTY2IDE3LjA5OCAyMC44NjY3QzE3LjA3MTEgMjAuODEzNiAxNy4wNDc5IDIwLjc1NzkgMTcuMDI0NiAyMC43MDE5QzE3LjAxNTggMjAuNjgwOCAxNy4wMDcgMjAuNjU5NyAxNi45OTggMjAuNjM4N0MxNi45NjA3IDIwLjUzNTUgMTYuOTE1OSAyMC40MzUzIDE2Ljg2NCAyMC4zMzg3QzE2Ljc0MDIgMjAuMTI5MiAxNi41NDU0IDE5Ljk3MDkgMTYuMzE1IDE5Ljg5MjdIMTYuMzA1QzE2LjEwODMgMTkuODI5OCAxNS44OTY5IDE5LjgyOTUgMTUuNjk5OSAxOS44OTE2QzE1LjUwMyAxOS45NTM3IDE1LjMzMDEgMjAuMDc1MyAxNS4yMDUgMjAuMjM5N0MxNS4xODA2IDIwLjI3MTYgMTUuMTU4MyAyMC4zMDUgMTUuMTM4IDIwLjMzOTdDMTUuMDkyOCAyMC40MjE0IDE1LjA1MjcgMjAuNTA1OSAxNS4wMTggMjAuNTkyN0MxNC45ODU3IDIwLjY3MjUgMTQuOTQ5NCAyMC43NTA2IDE0LjkwOSAyMC44MjY3QzE0Ljc0MjkgMjEuMTIzOCAxNC41MzYyIDIxLjM5NjQgMTQuMjk1IDIxLjYzNjdDMTMuODU3IDIyLjA1MTcgMTMuMzM4NyAyMi4zNzI5IDEyLjc3MjEgMjIuNTgwNEMxMi4yMDU1IDIyLjc4OCAxMS42MDI1IDIyLjg3NzYgMTEgMjIuODQzN0MxMC43MzQ4IDIyLjg0MzcgMTAuNDgwNCAyMi45NDkgMTAuMjkyOSAyMy4xMzY2QzEwLjEwNTQgMjMuMzI0MSAxMCAyMy41Nzg1IDEwIDIzLjg0MzdDMTAgMjQuMTA4OSAxMC4xMDU0IDI0LjM2MzIgMTAuMjkyOSAyNC41NTA4QzEwLjQ4MDQgMjQuNzM4MyAxMC43MzQ4IDI0Ljg0MzcgMTEgMjQuODQzN0MxMS44NjUgMjQuODc3OSAxMi43Mjc5IDI0LjczNjcgMTMuNTM2OSAyNC40Mjg2QzE0LjM0NTggMjQuMTIwNCAxNS4wODQgMjMuNjUxNyAxNS43MDcgMjMuMDUwN0MxNS43OTQgMjIuOTYzNyAxNS44NzYgMjIuODc2NyAxNS45NTIgMjIuNzg5N0MxNi4wMDEgMjIuODU0NyAxNi4wNTIgMjIuOTE4NyAxNi4xMDcgMjIuOTgzN0MxNi41NzU2IDIzLjU2NTEgMTcuMTY4NiAyNC4wMzQyIDE3Ljg0MjIgMjQuMzU2NUMxOC41MTU5IDI0LjY3ODggMTkuMjUzMiAyNC44NDYxIDIwIDI0Ljg0NjFDMjAuNzQ2OCAyNC44NDYxIDIxLjQ4NDEgMjQuNjc4OCAyMi4xNTc4IDI0LjM1NjVDMjIuODMxNCAyNC4wMzQyIDIzLjQyNDQgMjMuNTY1MSAyMy44OTMgMjIuOTgzN0MyMy45NDcgMjIuOTE4NyAyMy45OTkgMjIuODU0NyAyNC4wNDggMjIuNzg5N0MyNC4xMjQgMjIuODc2NyAyNC4yMDYgMjIuOTYzNyAyNC4yOTMgMjMuMDUwN0MyNC45MTYgMjMuNjUxNyAyNS42NTQyIDI0LjEyMDQgMjYuNDYzMSAyNC40Mjg2QzI3LjI3MjEgMjQuNzM2NyAyOC4xMzUgMjQuODc3OSAyOSAyNC44NDM3QzI5LjI2NTIgMjQuODQzNyAyOS41MTk2IDI0LjczODMgMjkuNzA3MSAyNC41NTA4QzI5Ljg5NDYgMjQuMzYzMiAzMCAyNC4xMDg5IDMwIDIzLjg0MzdDMzAgMjMuNTc4NSAyOS44OTQ2IDIzLjMyNDEgMjkuNzA3MSAyMy4xMzY2QzI5LjUxOTYgMjIuOTQ5IDI5LjI2NTIgMjIuODQzNyAyOSAyMi44NDM3WiIvPiYjeGE7PHBhdGggZmlsbD0iYmxhY2siIGQ9Ik0yOSAyOC44NDM3QzI4LjM5NzkgMjguODc3MyAyNy43OTUyIDI4Ljc4NzYgMjcuMjI4OSAyOC41OEMyNi42NjI3IDI4LjM3MjUgMjYuMTQ0OCAyOC4wNTE1IDI1LjcwNyAyNy42MzY3QzI1LjQ2NTggMjcuMzk2NCAyNS4yNTkxIDI3LjEyMzggMjUuMDkzIDI2LjgyNjdDMjUuMDUyNiAyNi43NTA2IDI1LjAxNjMgMjYuNjcyNSAyNC45ODQgMjYuNTkyN0MyNC45NDkzIDI2LjUwNTkgMjQuOTA5MiAyNi40MjE0IDI0Ljg2NCAyNi4zMzk3QzI0Ljg0MzcgMjYuMzA1IDI0LjgyMTQgMjYuMjcxNiAyNC43OTcgMjYuMjM5N0MyNC42NzE5IDI2LjA3NTMgMjQuNDk5IDI1Ljk1MzcgMjQuMzAyMSAyNS44OTE2QzI0LjEwNTEgMjUuODI5NSAyMy44OTM3IDI1LjgyOTggMjMuNjk3IDI1Ljg5MjdIMjMuNjg3QzIzLjQ1NjYgMjUuOTcwOSAyMy4yNjE4IDI2LjEyOTIgMjMuMTM4IDI2LjMzODdDMjMuMDg2MSAyNi40MzUzIDIzLjA0MTMgMjYuNTM1NSAyMy4wMDQgMjYuNjM4N0wyMi45OTM1IDI2LjY2NDhDMjIuOTY2MSAyNi43MzMyIDIyLjkzODYgMjYuODAxOSAyMi45MDQgMjYuODY2N0MyMi43NTQxIDI3LjE2NiAyMi41NzA5IDI3LjQ0NzQgMjIuMzU4IDI3LjcwNTdDMjIuMDc2NSAyOC4wNjExIDIxLjcxODIgMjguMzQ4MiAyMS4zMTAxIDI4LjU0NTVDMjAuOTAxOSAyOC43NDI5IDIwLjQ1NDQgMjguODQ1NCAyMC4wMDEgMjguODQ1NEMxOS41NDc2IDI4Ljg0NTQgMTkuMTAwMSAyOC43NDI5IDE4LjY5MTkgMjguNTQ1NUMxOC4yODM4IDI4LjM0ODIgMTcuOTI1NSAyOC4wNjExIDE3LjY0NCAyNy43MDU3QzE3LjQzMTEgMjcuNDQ3NCAxNy4yNDc5IDI3LjE2NiAxNy4wOTggMjYuODY2N0MxNy4wNzExIDI2LjgxMzYgMTcuMDQ3OSAyNi43NTc5IDE3LjAyNDYgMjYuNzAxOUMxNy4wMTU4IDI2LjY4MDggMTcuMDA3IDI2LjY1OTcgMTYuOTk4IDI2LjYzODdDMTYuOTYwNyAyNi41MzU1IDE2LjkxNTkgMjYuNDM1MyAxNi44NjQgMjYuMzM4N0MxNi43NDAyIDI2LjEyOTIgMTYuNTQ1NCAyNS45NzA5IDE2LjMxNSAyNS44OTI3SDE2LjMwNUMxNi4xMDgzIDI1LjgyOTggMTUuODk2OSAyNS44Mjk1IDE1LjY5OTkgMjUuODkxNkMxNS41MDMgMjUuOTUzNyAxNS4zMzAxIDI2LjA3NTMgMTUuMjA1IDI2LjIzOTdDMTUuMTgwNiAyNi4yNzE2IDE1LjE1ODMgMjYuMzA1IDE1LjEzOCAyNi4zMzk3QzE1LjA5MjggMjYuNDIxNCAxNS4wNTI3IDI2LjUwNTkgMTUuMDE4IDI2LjU5MjdDMTQuOTg1NyAyNi42NzI1IDE0Ljk0OTQgMjYuNzUwNiAxNC45MDkgMjYuODI2N0MxNC43NDI5IDI3LjEyMzggMTQuNTM2MiAyNy4zOTY0IDE0LjI5NSAyNy42MzY3QzEzLjg1NyAyOC4wNTE3IDEzLjMzODcgMjguMzcyOSAxMi43NzIxIDI4LjU4MDRDMTIuMjA1NSAyOC43ODggMTEuNjAyNSAyOC44Nzc2IDExIDI4Ljg0MzdDMTAuNzM0OCAyOC44NDM3IDEwLjQ4MDQgMjguOTQ5IDEwLjI5MjkgMjkuMTM2NkMxMC4xMDU0IDI5LjMyNDEgMTAgMjkuNTc4NSAxMCAyOS44NDM3QzEwIDMwLjEwODkgMTAuMTA1NCAzMC4zNjMyIDEwLjI5MjkgMzAuNTUwOEMxMC40ODA0IDMwLjczODMgMTAuNzM0OCAzMC44NDM3IDExIDMwLjg0MzdDMTEuODY1IDMwLjg3NzkgMTIuNzI3OSAzMC43MzY3IDEzLjUzNjkgMzAuNDI4NkMxNC4zNDU4IDMwLjEyMDQgMTUuMDg0IDI5LjY1MTcgMTUuNzA3IDI5LjA1MDdDMTUuNzk0IDI4Ljk2MzcgMTUuODc2IDI4Ljg3NjcgMTUuOTUyIDI4Ljc4OTdDMTYuMDAxIDI4Ljg1NDcgMTYuMDUyIDI4LjkxODcgMTYuMTA3IDI4Ljk4MzdDMTYuNTc1NiAyOS41NjUxIDE3LjE2ODYgMzAuMDM0MiAxNy44NDIyIDMwLjM1NjVDMTguNTE1OSAzMC42Nzg4IDE5LjI1MzIgMzAuODQ2MSAyMCAzMC44NDYxQzIwLjc0NjggMzAuODQ2MSAyMS40ODQxIDMwLjY3ODggMjIuMTU3OCAzMC4zNTY1QzIyLjgzMTQgMzAuMDM0MiAyMy40MjQ0IDI5LjU2NTEgMjMuODkzIDI4Ljk4MzdDMjMuOTQ3IDI4LjkxODcgMjMuOTk5IDI4Ljg1NDcgMjQuMDQ4IDI4Ljc4OTdDMjQuMTI0IDI4Ljg3NjcgMjQuMjA2IDI4Ljk2MzcgMjQuMjkzIDI5LjA1MDdDMjQuOTE2IDI5LjY1MTcgMjUuNjU0MiAzMC4xMjA0IDI2LjQ2MzEgMzAuNDI4NkMyNy4yNzIxIDMwLjczNjcgMjguMTM1IDMwLjg3NzkgMjkgMzAuODQzN0MyOS4yNjUyIDMwLjg0MzcgMjkuNTE5NiAzMC43MzgzIDI5LjcwNzEgMzAuNTUwOEMyOS44OTQ2IDMwLjM2MzIgMzAgMzAuMTA4OSAzMCAyOS44NDM3QzMwIDI5LjU3ODUgMjkuODk0NiAyOS4zMjQxIDI5LjcwNzEgMjkuMTM2NkMyOS41MTk2IDI4Ljk0OSAyOS4yNjUyIDI4Ljg0MzcgMjkgMjguODQzN1oiLz4mI3hhOzwvc3ZnPg==" parent="gxo681l_O-IEjd7Bf2fG-1" vertex="1">
          <mxGeometry x="477" y="292.97" width="71.82" height="74.06" as="geometry" />
        </mxCell>
        <mxCell id="gxo681l_O-IEjd7Bf2fG-10" value="Silver" style="shape=image;verticalLabelPosition=bottom;verticalAlign=top;imageAspect=0;aspect=fixed;image=data:image/svg+xml,PHN2ZyB4bWxucz0iaHR0cDovL3d3dy53My5vcmcvMjAwMC9zdmciIGZpbGw9Im5vbmUiIHZpZXdCb3g9IjAgMCAzMiAzMyIgaGVpZ2h0PSIzMyIgd2lkdGg9IjMyIj4mI3hhOzxwYXRoIGZpbGw9ImJsYWNrIiBkPSJNMTIuNjI2IDQuMzkwMDJDMTMuMzk3IDMuNjYxNzQgMTQuNjAzIDMuNjYxNzQgMTUuMzc0IDQuMzkwMDJMMjUuMDYxIDEzLjU0MDNDMjUuNjYwNCAxNC4xMDY0IDI2IDE0Ljg5NDEgMjYgMTUuNzE4MlYxOC42MDYyQzI1Ljc5OSAxOC40MjY0IDI1LjU3NCAxOC4yNzQgMjUuMzMwNyAxOC4xNTM4QzI0LjkxNyAxNy45NDkyIDI0LjQ2MTUgMTcuODQzMiAyNCAxNy44NDM4VjE1LjcxODJDMjQgMTUuNDQzNSAyMy44ODY4IDE1LjE4MSAyMy42ODcgMTQuOTkyMkwxNCA1Ljg0MTk4TDQuMzEyOTkgMTQuOTkyMkM0LjExMzIgMTUuMTgxIDQgMTUuNDQzNSA0IDE1LjcxODJWMjYuODQ2NkM0IDI3LjM5ODMgNC40NDc3MiAyNy44NDU2IDUgMjcuODQ1Nkg4Ljc2MjNDOC4yNzI2NyAyOC4zOTM5IDggMjkuMTA0OCA4IDI5Ljg0MzhMNSAyOS44NDM4QzMuMzQzMTQgMjkuODQzOCAyIDI4LjUwMTkgMiAyNi44NDY2VjE1LjcxODJDMiAxNC44OTQxIDIuMzM5NjEgMTQuMTA2NCAyLjkzODk2IDEzLjU0MDNMMTIuNjI2IDQuMzkwMDJaIi8+JiN4YTs8cGF0aCBmaWxsPSJibGFjayIgZD0iTTI5IDIyLjg0MzdDMjguMzk3OSAyMi44NzczIDI3Ljc5NTIgMjIuNzg3NiAyNy4yMjg5IDIyLjU4QzI2LjY2MjcgMjIuMzcyNSAyNi4xNDQ4IDIyLjA1MTUgMjUuNzA3IDIxLjYzNjdDMjUuNDY1OCAyMS4zOTY0IDI1LjI1OTEgMjEuMTIzOCAyNS4wOTMgMjAuODI2N0MyNS4wNTI2IDIwLjc1MDYgMjUuMDE2MyAyMC42NzI1IDI0Ljk4NCAyMC41OTI3QzI0Ljk0OTMgMjAuNTA1OSAyNC45MDkyIDIwLjQyMTQgMjQuODY0IDIwLjMzOTdDMjQuODQzNyAyMC4zMDUgMjQuODIxNCAyMC4yNzE2IDI0Ljc5NyAyMC4yMzk3QzI0LjY3MTkgMjAuMDc1MyAyNC40OTkgMTkuOTUzNyAyNC4zMDIxIDE5Ljg5MTZDMjQuMTA1MSAxOS44Mjk1IDIzLjg5MzcgMTkuODI5OCAyMy42OTcgMTkuODkyN0gyMy42ODdDMjMuNDU2NiAxOS45NzA5IDIzLjI2MTggMjAuMTI5MiAyMy4xMzggMjAuMzM4N0MyMy4wODYxIDIwLjQzNTMgMjMuMDQxMyAyMC41MzU1IDIzLjAwNCAyMC42Mzg3TDIyLjk5MzUgMjAuNjY0OEMyMi45NjYxIDIwLjczMzIgMjIuOTM4NiAyMC44MDE5IDIyLjkwNCAyMC44NjY3QzIyLjc1NDEgMjEuMTY2IDIyLjU3MDkgMjEuNDQ3NCAyMi4zNTggMjEuNzA1N0MyMi4wNzY1IDIyLjA2MTEgMjEuNzE4MiAyMi4zNDgyIDIxLjMxMDEgMjIuNTQ1NUMyMC45MDE5IDIyLjc0MjkgMjAuNDU0NCAyMi44NDU0IDIwLjAwMSAyMi44NDU0QzE5LjU0NzYgMjIuODQ1NCAxOS4xMDAxIDIyLjc0MjkgMTguNjkxOSAyMi41NDU1QzE4LjI4MzggMjIuMzQ4MiAxNy45MjU1IDIyLjA2MTEgMTcuNjQ0IDIxLjcwNTdDMTcuNDMxMSAyMS40NDc0IDE3LjI0NzkgMjEuMTY2IDE3LjA5OCAyMC44NjY3QzE3LjA3MTEgMjAuODEzNiAxNy4wNDc5IDIwLjc1NzkgMTcuMDI0NiAyMC43MDE5QzE3LjAxNTggMjAuNjgwOCAxNy4wMDcgMjAuNjU5NyAxNi45OTggMjAuNjM4N0MxNi45NjA3IDIwLjUzNTUgMTYuOTE1OSAyMC40MzUzIDE2Ljg2NCAyMC4zMzg3QzE2Ljc0MDIgMjAuMTI5MiAxNi41NDU0IDE5Ljk3MDkgMTYuMzE1IDE5Ljg5MjdIMTYuMzA1QzE2LjEwODMgMTkuODI5OCAxNS44OTY5IDE5LjgyOTUgMTUuNjk5OSAxOS44OTE2QzE1LjUwMyAxOS45NTM3IDE1LjMzMDEgMjAuMDc1MyAxNS4yMDUgMjAuMjM5N0MxNS4xODA2IDIwLjI3MTYgMTUuMTU4MyAyMC4zMDUgMTUuMTM4IDIwLjMzOTdDMTUuMDkyOCAyMC40MjE0IDE1LjA1MjcgMjAuNTA1OSAxNS4wMTggMjAuNTkyN0MxNC45ODU3IDIwLjY3MjUgMTQuOTQ5NCAyMC43NTA2IDE0LjkwOSAyMC44MjY3QzE0Ljc0MjkgMjEuMTIzOCAxNC41MzYyIDIxLjM5NjQgMTQuMjk1IDIxLjYzNjdDMTMuODU3IDIyLjA1MTcgMTMuMzM4NyAyMi4zNzI5IDEyLjc3MjEgMjIuNTgwNEMxMi4yMDU1IDIyLjc4OCAxMS42MDI1IDIyLjg3NzYgMTEgMjIuODQzN0MxMC43MzQ4IDIyLjg0MzcgMTAuNDgwNCAyMi45NDkgMTAuMjkyOSAyMy4xMzY2QzEwLjEwNTQgMjMuMzI0MSAxMCAyMy41Nzg1IDEwIDIzLjg0MzdDMTAgMjQuMTA4OSAxMC4xMDU0IDI0LjM2MzIgMTAuMjkyOSAyNC41NTA4QzEwLjQ4MDQgMjQuNzM4MyAxMC43MzQ4IDI0Ljg0MzcgMTEgMjQuODQzN0MxMS44NjUgMjQuODc3OSAxMi43Mjc5IDI0LjczNjcgMTMuNTM2OSAyNC40Mjg2QzE0LjM0NTggMjQuMTIwNCAxNS4wODQgMjMuNjUxNyAxNS43MDcgMjMuMDUwN0MxNS43OTQgMjIuOTYzNyAxNS44NzYgMjIuODc2NyAxNS45NTIgMjIuNzg5N0MxNi4wMDEgMjIuODU0NyAxNi4wNTIgMjIuOTE4NyAxNi4xMDcgMjIuOTgzN0MxNi41NzU2IDIzLjU2NTEgMTcuMTY4NiAyNC4wMzQyIDE3Ljg0MjIgMjQuMzU2NUMxOC41MTU5IDI0LjY3ODggMTkuMjUzMiAyNC44NDYxIDIwIDI0Ljg0NjFDMjAuNzQ2OCAyNC44NDYxIDIxLjQ4NDEgMjQuNjc4OCAyMi4xNTc4IDI0LjM1NjVDMjIuODMxNCAyNC4wMzQyIDIzLjQyNDQgMjMuNTY1MSAyMy44OTMgMjIuOTgzN0MyMy45NDcgMjIuOTE4NyAyMy45OTkgMjIuODU0NyAyNC4wNDggMjIuNzg5N0MyNC4xMjQgMjIuODc2NyAyNC4yMDYgMjIuOTYzNyAyNC4yOTMgMjMuMDUwN0MyNC45MTYgMjMuNjUxNyAyNS42NTQyIDI0LjEyMDQgMjYuNDYzMSAyNC40Mjg2QzI3LjI3MjEgMjQuNzM2NyAyOC4xMzUgMjQuODc3OSAyOSAyNC44NDM3QzI5LjI2NTIgMjQuODQzNyAyOS41MTk2IDI0LjczODMgMjkuNzA3MSAyNC41NTA4QzI5Ljg5NDYgMjQuMzYzMiAzMCAyNC4xMDg5IDMwIDIzLjg0MzdDMzAgMjMuNTc4NSAyOS44OTQ2IDIzLjMyNDEgMjkuNzA3MSAyMy4xMzY2QzI5LjUxOTYgMjIuOTQ5IDI5LjI2NTIgMjIuODQzNyAyOSAyMi44NDM3WiIvPiYjeGE7PHBhdGggZmlsbD0iYmxhY2siIGQ9Ik0yOSAyOC44NDM3QzI4LjM5NzkgMjguODc3MyAyNy43OTUyIDI4Ljc4NzYgMjcuMjI4OSAyOC41OEMyNi42NjI3IDI4LjM3MjUgMjYuMTQ0OCAyOC4wNTE1IDI1LjcwNyAyNy42MzY3QzI1LjQ2NTggMjcuMzk2NCAyNS4yNTkxIDI3LjEyMzggMjUuMDkzIDI2LjgyNjdDMjUuMDUyNiAyNi43NTA2IDI1LjAxNjMgMjYuNjcyNSAyNC45ODQgMjYuNTkyN0MyNC45NDkzIDI2LjUwNTkgMjQuOTA5MiAyNi40MjE0IDI0Ljg2NCAyNi4zMzk3QzI0Ljg0MzcgMjYuMzA1IDI0LjgyMTQgMjYuMjcxNiAyNC43OTcgMjYuMjM5N0MyNC42NzE5IDI2LjA3NTMgMjQuNDk5IDI1Ljk1MzcgMjQuMzAyMSAyNS44OTE2QzI0LjEwNTEgMjUuODI5NSAyMy44OTM3IDI1LjgyOTggMjMuNjk3IDI1Ljg5MjdIMjMuNjg3QzIzLjQ1NjYgMjUuOTcwOSAyMy4yNjE4IDI2LjEyOTIgMjMuMTM4IDI2LjMzODdDMjMuMDg2MSAyNi40MzUzIDIzLjA0MTMgMjYuNTM1NSAyMy4wMDQgMjYuNjM4N0wyMi45OTM1IDI2LjY2NDhDMjIuOTY2MSAyNi43MzMyIDIyLjkzODYgMjYuODAxOSAyMi45MDQgMjYuODY2N0MyMi43NTQxIDI3LjE2NiAyMi41NzA5IDI3LjQ0NzQgMjIuMzU4IDI3LjcwNTdDMjIuMDc2NSAyOC4wNjExIDIxLjcxODIgMjguMzQ4MiAyMS4zMTAxIDI4LjU0NTVDMjAuOTAxOSAyOC43NDI5IDIwLjQ1NDQgMjguODQ1NCAyMC4wMDEgMjguODQ1NEMxOS41NDc2IDI4Ljg0NTQgMTkuMTAwMSAyOC43NDI5IDE4LjY5MTkgMjguNTQ1NUMxOC4yODM4IDI4LjM0ODIgMTcuOTI1NSAyOC4wNjExIDE3LjY0NCAyNy43MDU3QzE3LjQzMTEgMjcuNDQ3NCAxNy4yNDc5IDI3LjE2NiAxNy4wOTggMjYuODY2N0MxNy4wNzExIDI2LjgxMzYgMTcuMDQ3OSAyNi43NTc5IDE3LjAyNDYgMjYuNzAxOUMxNy4wMTU4IDI2LjY4MDggMTcuMDA3IDI2LjY1OTcgMTYuOTk4IDI2LjYzODdDMTYuOTYwNyAyNi41MzU1IDE2LjkxNTkgMjYuNDM1MyAxNi44NjQgMjYuMzM4N0MxNi43NDAyIDI2LjEyOTIgMTYuNTQ1NCAyNS45NzA5IDE2LjMxNSAyNS44OTI3SDE2LjMwNUMxNi4xMDgzIDI1LjgyOTggMTUuODk2OSAyNS44Mjk1IDE1LjY5OTkgMjUuODkxNkMxNS41MDMgMjUuOTUzNyAxNS4zMzAxIDI2LjA3NTMgMTUuMjA1IDI2LjIzOTdDMTUuMTgwNiAyNi4yNzE2IDE1LjE1ODMgMjYuMzA1IDE1LjEzOCAyNi4zMzk3QzE1LjA5MjggMjYuNDIxNCAxNS4wNTI3IDI2LjUwNTkgMTUuMDE4IDI2LjU5MjdDMTQuOTg1NyAyNi42NzI1IDE0Ljk0OTQgMjYuNzUwNiAxNC45MDkgMjYuODI2N0MxNC43NDI5IDI3LjEyMzggMTQuNTM2MiAyNy4zOTY0IDE0LjI5NSAyNy42MzY3QzEzLjg1NyAyOC4wNTE3IDEzLjMzODcgMjguMzcyOSAxMi43NzIxIDI4LjU4MDRDMTIuMjA1NSAyOC43ODggMTEuNjAyNSAyOC44Nzc2IDExIDI4Ljg0MzdDMTAuNzM0OCAyOC44NDM3IDEwLjQ4MDQgMjguOTQ5IDEwLjI5MjkgMjkuMTM2NkMxMC4xMDU0IDI5LjMyNDEgMTAgMjkuNTc4NSAxMCAyOS44NDM3QzEwIDMwLjEwODkgMTAuMTA1NCAzMC4zNjMyIDEwLjI5MjkgMzAuNTUwOEMxMC40ODA0IDMwLjczODMgMTAuNzM0OCAzMC44NDM3IDExIDMwLjg0MzdDMTEuODY1IDMwLjg3NzkgMTIuNzI3OSAzMC43MzY3IDEzLjUzNjkgMzAuNDI4NkMxNC4zNDU4IDMwLjEyMDQgMTUuMDg0IDI5LjY1MTcgMTUuNzA3IDI5LjA1MDdDMTUuNzk0IDI4Ljk2MzcgMTUuODc2IDI4Ljg3NjcgMTUuOTUyIDI4Ljc4OTdDMTYuMDAxIDI4Ljg1NDcgMTYuMDUyIDI4LjkxODcgMTYuMTA3IDI4Ljk4MzdDMTYuNTc1NiAyOS41NjUxIDE3LjE2ODYgMzAuMDM0MiAxNy44NDIyIDMwLjM1NjVDMTguNTE1OSAzMC42Nzg4IDE5LjI1MzIgMzAuODQ2MSAyMCAzMC44NDYxQzIwLjc0NjggMzAuODQ2MSAyMS40ODQxIDMwLjY3ODggMjIuMTU3OCAzMC4zNTY1QzIyLjgzMTQgMzAuMDM0MiAyMy40MjQ0IDI5LjU2NTEgMjMuODkzIDI4Ljk4MzdDMjMuOTQ3IDI4LjkxODcgMjMuOTk5IDI4Ljg1NDcgMjQuMDQ4IDI4Ljc4OTdDMjQuMTI0IDI4Ljg3NjcgMjQuMjA2IDI4Ljk2MzcgMjQuMjkzIDI5LjA1MDdDMjQuOTE2IDI5LjY1MTcgMjUuNjU0MiAzMC4xMjA0IDI2LjQ2MzEgMzAuNDI4NkMyNy4yNzIxIDMwLjczNjcgMjguMTM1IDMwLjg3NzkgMjkgMzAuODQzN0MyOS4yNjUyIDMwLjg0MzcgMjkuNTE5NiAzMC43MzgzIDI5LjcwNzEgMzAuNTUwOEMyOS44OTQ2IDMwLjM2MzIgMzAgMzAuMTA4OSAzMCAyOS44NDM3QzMwIDI5LjU3ODUgMjkuODk0NiAyOS4zMjQxIDI5LjcwNzEgMjkuMTM2NkMyOS41MTk2IDI4Ljk0OSAyOS4yNjUyIDI4Ljg0MzcgMjkgMjguODQzN1oiLz4mI3hhOzwvc3ZnPg==" parent="gxo681l_O-IEjd7Bf2fG-1" vertex="1">
          <mxGeometry x="361.32000000000005" y="292.96999999999997" width="71.82" height="74.06" as="geometry" />
        </mxCell>
        <mxCell id="gxo681l_O-IEjd7Bf2fG-11" value="" style="rounded=0;whiteSpace=wrap;html=1;fillColor=#fff2cc;strokeColor=#d6b656;" parent="gxo681l_O-IEjd7Bf2fG-1" vertex="1">
          <mxGeometry x="201" y="86" width="370" height="140" as="geometry" />
        </mxCell>
        <mxCell id="gxo681l_O-IEjd7Bf2fG-12" value="&lt;div&gt;Databricks&lt;br&gt;&lt;/div&gt;" style="image;aspect=fixed;html=1;points=[];align=left;fontSize=12;image=img/lib/azure2/analytics/Azure_Databricks.svg;labelPosition=right;verticalLabelPosition=middle;verticalAlign=middle;labelBackgroundColor=none;" parent="gxo681l_O-IEjd7Bf2fG-1" vertex="1">
          <mxGeometry x="188.14000000000001" y="71" width="46.18" height="50" as="geometry" />
        </mxCell>
        <mxCell id="gxo681l_O-IEjd7Bf2fG-13" value="Notebooks" style="rounded=0;whiteSpace=wrap;html=1;labelPosition=center;verticalLabelPosition=top;align=center;verticalAlign=bottom;" parent="gxo681l_O-IEjd7Bf2fG-1" vertex="1">
          <mxGeometry x="291" y="133" width="200" height="60" as="geometry" />
        </mxCell>
        <mxCell id="gxo681l_O-IEjd7Bf2fG-14" value="" style="shape=image;verticalLabelPosition=bottom;verticalAlign=top;imageAspect=0;aspect=fixed;image=data:image/svg+xml,PHN2ZyB4bWxucz0iaHR0cDovL3d3dy53My5vcmcvMjAwMC9zdmciIGZpbGw9Im5vbmUiIHZpZXdCb3g9IjAgMCAzMiAzMyIgaGVpZ2h0PSIzMyIgd2lkdGg9IjMyIj4mI3hhOzxwYXRoIGZpbGw9ImJsYWNrIiBkPSJNOCA3LjkzNzU2QzggNy4xMDkxMyA4LjY3MTU3IDYuNDM3NTYgOS41IDYuNDM3NTZIMjEuNUMyMi4zMjg0IDYuNDM3NTYgMjMgNy4xMDkxMyAyMyA3LjkzNzU2VjEwLjkzNzZDMjMgMTEuNzY2IDIyLjMyODQgMTIuNDM3NiAyMS41IDEyLjQzNzZIOS41QzguNjcxNTcgMTIuNDM3NiA4IDExLjc2NiA4IDEwLjkzNzZWNy45Mzc1NlpNMTAgOC40Mzc1NlYxMC40Mzc2SDIxVjguNDM3NTZIMTBaTTQgNS42ODc1NkM0IDMuODkyNjMgNS40NTUwOCAyLjQzNzU2IDcuMjUgMi40Mzc1NkgyMy43NUMyNS41NDQ5IDIuNDM3NTYgMjcgMy44OTI2NCAyNyA1LjY4NzU2VjI3LjE4NzZDMjcgMjguOTgyNSAyNS41NDQ5IDMwLjQzNzYgMjMuNzUgMzAuNDM3Nkg3LjI1QzUuNDU1MDcgMzAuNDM3NiA0IDI4Ljk4MjUgNCAyNy4xODc2VjUuNjg3NTZaTTcuMjUgNC40Mzc1NkM2LjU1OTY0IDQuNDM3NTYgNiA0Ljk5NzIgNiA1LjY4NzU2VjI3LjE4NzZDNiAyNy44Nzc5IDYuNTU5NjQgMjguNDM3NiA3LjI1IDI4LjQzNzZIMjMuNzVDMjQuNDQwNCAyOC40Mzc2IDI1IDI3Ljg3NzkgMjUgMjcuMTg3NlY1LjY4NzU2QzI1IDQuOTk3MjEgMjQuNDQwNCA0LjQzNzU2IDIzLjc1IDQuNDM3NTZINy4yNVpNMjkuMjUgOC40Mzc1NkgyOFYxMi40Mzc2SDI5LjI1QzI5LjY2NDIgMTIuNDM3NiAzMCAxMi4xMDE4IDMwIDExLjY4NzZWOS4xODc1NkMzMCA4Ljc3MzM1IDI5LjY2NDIgOC40Mzc1NiAyOS4yNSA4LjQzNzU2Wk0yOCAxNC40Mzc2SDI5LjI1QzI5LjY2NDIgMTQuNDM3NiAzMCAxNC43NzMzIDMwIDE1LjE4NzZWMTcuNjg3NkMzMCAxOC4xMDE4IDI5LjY2NDIgMTguNDM3NiAyOS4yNSAxOC40Mzc2SDI4VjE0LjQzNzZaTTI5LjI1IDIwLjQzNzZIMjhWMjQuNDM3NkgyOS4yNUMyOS42NjQyIDI0LjQzNzYgMzAgMjQuMTAxOCAzMCAyMy42ODc2VjIxLjE4NzZDMzAgMjAuNzczMyAyOS42NjQyIDIwLjQzNzYgMjkuMjUgMjAuNDM3NloiLz4mI3hhOzwvc3ZnPg==" parent="gxo681l_O-IEjd7Bf2fG-1" vertex="1">
          <mxGeometry x="312.82000000000005" y="150.02999999999997" width="32" height="33" as="geometry" />
        </mxCell>
        <mxCell id="gxo681l_O-IEjd7Bf2fG-15" value="" style="shape=image;verticalLabelPosition=bottom;verticalAlign=top;imageAspect=0;aspect=fixed;image=data:image/svg+xml,PHN2ZyB4bWxucz0iaHR0cDovL3d3dy53My5vcmcvMjAwMC9zdmciIGZpbGw9Im5vbmUiIHZpZXdCb3g9IjAgMCAzMiAzMyIgaGVpZ2h0PSIzMyIgd2lkdGg9IjMyIj4mI3hhOzxwYXRoIGZpbGw9ImJsYWNrIiBkPSJNOCA3LjkzNzU2QzggNy4xMDkxMyA4LjY3MTU3IDYuNDM3NTYgOS41IDYuNDM3NTZIMjEuNUMyMi4zMjg0IDYuNDM3NTYgMjMgNy4xMDkxMyAyMyA3LjkzNzU2VjEwLjkzNzZDMjMgMTEuNzY2IDIyLjMyODQgMTIuNDM3NiAyMS41IDEyLjQzNzZIOS41QzguNjcxNTcgMTIuNDM3NiA4IDExLjc2NiA4IDEwLjkzNzZWNy45Mzc1NlpNMTAgOC40Mzc1NlYxMC40Mzc2SDIxVjguNDM3NTZIMTBaTTQgNS42ODc1NkM0IDMuODkyNjMgNS40NTUwOCAyLjQzNzU2IDcuMjUgMi40Mzc1NkgyMy43NUMyNS41NDQ5IDIuNDM3NTYgMjcgMy44OTI2NCAyNyA1LjY4NzU2VjI3LjE4NzZDMjcgMjguOTgyNSAyNS41NDQ5IDMwLjQzNzYgMjMuNzUgMzAuNDM3Nkg3LjI1QzUuNDU1MDcgMzAuNDM3NiA0IDI4Ljk4MjUgNCAyNy4xODc2VjUuNjg3NTZaTTcuMjUgNC40Mzc1NkM2LjU1OTY0IDQuNDM3NTYgNiA0Ljk5NzIgNiA1LjY4NzU2VjI3LjE4NzZDNiAyNy44Nzc5IDYuNTU5NjQgMjguNDM3NiA3LjI1IDI4LjQzNzZIMjMuNzVDMjQuNDQwNCAyOC40Mzc2IDI1IDI3Ljg3NzkgMjUgMjcuMTg3NlY1LjY4NzU2QzI1IDQuOTk3MjEgMjQuNDQwNCA0LjQzNzU2IDIzLjc1IDQuNDM3NTZINy4yNVpNMjkuMjUgOC40Mzc1NkgyOFYxMi40Mzc2SDI5LjI1QzI5LjY2NDIgMTIuNDM3NiAzMCAxMi4xMDE4IDMwIDExLjY4NzZWOS4xODc1NkMzMCA4Ljc3MzM1IDI5LjY2NDIgOC40Mzc1NiAyOS4yNSA4LjQzNzU2Wk0yOCAxNC40Mzc2SDI5LjI1QzI5LjY2NDIgMTQuNDM3NiAzMCAxNC43NzMzIDMwIDE1LjE4NzZWMTcuNjg3NkMzMCAxOC4xMDE4IDI5LjY2NDIgMTguNDM3NiAyOS4yNSAxOC40Mzc2SDI4VjE0LjQzNzZaTTI5LjI1IDIwLjQzNzZIMjhWMjQuNDM3NkgyOS4yNUMyOS42NjQyIDI0LjQzNzYgMzAgMjQuMTAxOCAzMCAyMy42ODc2VjIxLjE4NzZDMzAgMjAuNzczMyAyOS42NjQyIDIwLjQzNzYgMjkuMjUgMjAuNDM3NloiLz4mI3hhOzwvc3ZnPg==" parent="gxo681l_O-IEjd7Bf2fG-1" vertex="1">
          <mxGeometry x="433" y="150" width="32" height="33" as="geometry" />
        </mxCell>
        <mxCell id="gxo681l_O-IEjd7Bf2fG-16" value="Microsoft Fabric" style="shape=image;verticalLabelPosition=bottom;verticalAlign=top;imageAspect=0;aspect=fixed;image=data:image/svg+xml,PHN2ZyB4bWxucz0iaHR0cDovL3d3dy53My5vcmcvMjAwMC9zdmciIGZpbGw9Im5vbmUiIHZpZXdCb3g9IjAgMCAyNTYgMjU2IiBoZWlnaHQ9IjI1NiIgd2lkdGg9IjI1NiI+JiN4YTs8ZyBjbGlwLXBhdGg9InVybCgjY2xpcDBfMTI2M18xMjQ1OTApIj4mI3hhOzxwYXRoIGZpbGw9InVybCgjcGFpbnQwX2xpbmVhcl8xMjYzXzEyNDU5MCkiIGQ9Ik0xMC40OTYgMTc2LjYzNEw2Ljc0NjY5IDE5MC4zNTZDNS4zNDkzNyAxOTQuNzQ2IDMuMzkyMDUgMjAxLjE5NCAyLjMzNjA2IDIwNi45MzJDMC44MzIwNjkgMjEwLjkgMC4wMTA3NDIyIDIxNS4yMDQgMC4wMTA3NDIyIDIxOS43QzAuMDEwNzQyMiAyMzguMjM5IDE0LjAxNiAyNTMuNTAyIDMyLjAyMTIgMjU1LjQ5N0MzNy4wODc4IDI1Ni4yMjggNDIuODIxMSAyNTYuMTkgNDkuMjQ3NyAyNTUuMjQ2TDc4Ljc3MjggMjUxLjE3MkM4Ni4xOTY3IDI1MC4xNDggOTIuMjkyNyAyNDQuNzg4IDk0LjI2NiAyMzcuNTU2TDExNC41ODYgMTYyLjkyMkwxMC40OTYgMTc2LjYzNFoiIGNsaXAtcnVsZT0iZXZlbm9kZCIgZmlsbC1ydWxlPSJldmVub2RkIi8+JiN4YTs8cGF0aCBmaWxsPSJ1cmwoI3BhaW50MV9saW5lYXJfMTI2M18xMjQ1OTApIiBkPSJNMzkuMjk0MiAxODAuMTdDOC4xNzQ0NCAxODQuOTkxIDEuNzg1MTYgMjA4LjQ3NCAxLjc4NTE2IDIwOC40NzRMMzEuNTg3NiA5OC45NzA4TDE4Ny4zMTQgNzcuOTA0M0wxNjYuMDc3IDE1NS4wNEMxNjQuOTczIDE1OS4xNzMgMTYxLjUwMSAxNjIuMzQxIDE1Ny4xOTcgMTYyLjk5N0wxNTYuMzI4IDE2My4xNDFMMzguNDE5NSAxODAuMzJMMzkuMjk0MiAxODAuMTdaIi8+JiN4YTs8cGF0aCBmaWxsLW9wYWNpdHk9IjAuOCIgZmlsbD0idXJsKCNwYWludDJfbGluZWFyXzEyNjNfMTI0NTkwKSIgZD0iTTM5LjI5NDIgMTgwLjE3QzguMTc0NDQgMTg0Ljk5MSAxLjc4NTE2IDIwOC40NzQgMS43ODUxNiAyMDguNDc0TDMxLjU4NzYgOTguOTcwOEwxODcuMzE0IDc3LjkwNDNMMTY2LjA3NyAxNTUuMDRDMTY0Ljk3MyAxNTkuMTczIDE2MS41MDEgMTYyLjM0MSAxNTcuMTk3IDE2Mi45OTdMMTU2LjMyOCAxNjMuMTQxTDM4LjQxOTUgMTgwLjMyTDM5LjI5NDIgMTgwLjE3WiIvPiYjeGE7PHBhdGggZmlsbD0idXJsKCNwYWludDNfbGluZWFyXzEyNjNfMTI0NTkwKSIgZD0iTTU2Ljk1MzIgMTEwLjMwM0wyMjkuMzUyIDg0LjgzNjdDMjMzLjQ1MyA4NC4yNzY3IDIzNi43NzYgODEuMjc0IDIzNy44MjEgNzcuMzQzNEwyNTUuNjEzIDEyLjk1NDZDMjU1Ljg1OCAxMi4wNzk5IDI1NS45ODYgMTEuMTU3MiAyNTUuOTg2IDEwLjIwNzlDMjU1Ljk4NiA0LjU3MDYzIDI1MS40MjEgMCAyNDUuNzc4IDBDMjQ1LjM0MSAwIDI0NC45MDQgMC4wMjY2NjY1IDI0NC40ODIgMC4wNzk5OTk0TDc5Ljk4MjQgMjQuMzg5MUM2Mi4xMTU4IDI3LjI1ODUgNDcuNjg5MyA0MC40MzcgNDMuMDA2NyA1Ny42MjYyTDE5LjI4NDIgMTQzLjYwNEMyNC4wNDY4IDEyNi4yMTIgMjYuOTc0OCAxMTUuNzI3IDU2Ljk1MzIgMTEwLjMwM1oiLz4mI3hhOzxwYXRoIGZpbGw9InVybCgjcGFpbnQ0X2xpbmVhcl8xMjYzXzEyNDU5MCkiIGQ9Ik01Ni45NTMyIDExMC4zMDNMMjI5LjM1MiA4NC44MzY3QzIzMy40NTMgODQuMjc2NyAyMzYuNzc2IDgxLjI3NCAyMzcuODIxIDc3LjM0MzRMMjU1LjYxMyAxMi45NTQ2QzI1NS44NTggMTIuMDc5OSAyNTUuOTg2IDExLjE1NzIgMjU1Ljk4NiAxMC4yMDc5QzI1NS45ODYgNC41NzA2MyAyNTEuNDIxIDAgMjQ1Ljc3OCAwQzI0NS4zNDEgMCAyNDQuOTA0IDAuMDI2NjY2NSAyNDQuNDgyIDAuMDc5OTk5NEw3OS45ODI0IDI0LjM4OTFDNjIuMTE1OCAyNy4yNTg1IDQ3LjY4OTMgNDAuNDM3IDQzLjAwNjcgNTcuNjI2MkwxOS4yODQyIDE0My42MDRDMjQuMDQ2OCAxMjYuMjEyIDI2Ljk3NDggMTE1LjcyNyA1Ni45NTMyIDExMC4zMDNaIi8+JiN4YTs8cGF0aCBmaWxsPSJ1cmwoI3BhaW50NV9saW5lYXJfMTI2M18xMjQ1OTApIiBkPSJNNTYuOTUzMiAxMTAuMzAzTDIyOS4zNTIgODQuODM2N0MyMzMuNDUzIDg0LjI3NjcgMjM2Ljc3NiA4MS4yNzQgMjM3LjgyMSA3Ny4zNDM0TDI1NS42MTMgMTIuOTU0NkMyNTUuODU4IDEyLjA3OTkgMjU1Ljk4NiAxMS4xNTcyIDI1NS45ODYgMTAuMjA3OUMyNTUuOTg2IDQuNTcwNjMgMjUxLjQyMSAwIDI0NS43NzggMEMyNDUuMzQxIDAgMjQ0LjkwNCAwLjAyNjY2NjUgMjQ0LjQ4MiAwLjA3OTk5OTRMNzkuOTgyNCAyNC4zODkxQzYyLjExNTggMjcuMjU4NSA0Ny42ODkzIDQwLjQzNyA0My4wMDY3IDU3LjYyNjJMMTkuMjg0MiAxNDMuNjA0QzI0LjA0NjggMTI2LjIxMiAyNi45NzQ4IDExNS43MjcgNTYuOTUzMiAxMTAuMzAzWiIvPiYjeGE7PHBhdGggZmlsbD0idXJsKCNwYWludDZfbGluZWFyXzEyNjNfMTI0NTkwKSIgZD0iTTU2Ljk1MzIgMTEwLjMwM0wyMjkuMzUyIDg0LjgzNjdDMjMzLjQ1MyA4NC4yNzY3IDIzNi43NzYgODEuMjc0IDIzNy44MjEgNzcuMzQzNEwyNTUuNjEzIDEyLjk1NDZDMjU1Ljg1OCAxMi4wNzk5IDI1NS45ODYgMTEuMTU3MiAyNTUuOTg2IDEwLjIwNzlDMjU1Ljk4NiA0LjU3MDYzIDI1MS40MjEgMCAyNDUuNzc4IDBDMjQ1LjM0MSAwIDI0NC45MDQgMC4wMjY2NjY1IDI0NC40ODIgMC4wNzk5OTk0TDc5Ljk4MjQgMjQuMzg5MUM2Mi4xMTU4IDI3LjI1ODUgNDcuNjg5MyA0MC40MzcgNDMuMDA2NyA1Ny42MjYyTDE5LjI4NDIgMTQzLjYwNEMyNC4wNDY4IDEyNi4yMTIgMjYuOTc0OCAxMTUuNzI3IDU2Ljk1MzIgMTEwLjMwM1oiLz4mI3hhOzxwYXRoIGZpbGw9InVybCgjcGFpbnQ3X2xpbmVhcl8xMjYzXzEyNDU5MCkiIGQ9Ik01Ni45NTMyIDExMC4zMDNMMjI5LjM1MiA4NC44MzY3QzIzMy40NTMgODQuMjc2NyAyMzYuNzc2IDgxLjI3NCAyMzcuODIxIDc3LjM0MzRMMjU1LjYxMyAxMi45NTQ2QzI1NS44NTggMTIuMDc5OSAyNTUuOTg2IDExLjE1NzIgMjU1Ljk4NiAxMC4yMDc5QzI1NS45ODYgNC41NzA2MyAyNTEuNDIxIDAgMjQ1Ljc3OCAwQzI0NS4zNDEgMCAyNDQuOTA0IDAuMDI2NjY2NSAyNDQuNDgyIDAuMDc5OTk5NEw3OS45ODI0IDI0LjM4OTFDNjIuMTE1OCAyNy4yNTg1IDQ3LjY4OTMgNDAuNDM3IDQzLjAwNjcgNTcuNjI2MkwxOS4yODQyIDE0My42MDRDMjQuMDQ2OCAxMjYuMjEyIDI2Ljk3NDggMTE1LjcyNyA1Ni45NTMyIDExMC4zMDNaIi8+JiN4YTs8cGF0aCBmaWxsPSJ1cmwoI3BhaW50OF9saW5lYXJfMTI2M18xMjQ1OTApIiBkPSJNNTYuOTUzMiAxMTAuMzAzTDIyOS4zNTIgODQuODM2N0MyMzMuNDUzIDg0LjI3NjcgMjM2Ljc3NiA4MS4yNzQgMjM3LjgyMSA3Ny4zNDM0TDI1NS42MTMgMTIuOTU0NkMyNTUuODU4IDEyLjA3OTkgMjU1Ljk4NiAxMS4xNTcyIDI1NS45ODYgMTAuMjA3OUMyNTUuOTg2IDQuNTcwNjMgMjUxLjQyMSAwIDI0NS43NzggMEMyNDUuMzQxIDAgMjQ0LjkwNCAwLjAyNjY2NjUgMjQ0LjQ4MiAwLjA3OTk5OTRMNzkuOTgyNCAyNC4zODkxQzYyLjExNTggMjcuMjU4NSA0Ny42ODkzIDQwLjQzNyA0My4wMDY3IDU3LjYyNjJMMTkuMjg0MiAxNDMuNjA0QzI0LjA0NjggMTI2LjIxMiAyNi45NzQ4IDExNS43MjcgNTYuOTUzMiAxMTAuMzAzWiIvPiYjeGE7PHBhdGggZmlsbC1vcGFjaXR5PSIwLjQiIGZpbGw9InVybCgjcGFpbnQ5X2xpbmVhcl8xMjYzXzEyNDU5MCkiIGQ9Ik01Ni45NTMyIDExMC4zMDNMMjI5LjM1MiA4NC44MzY3QzIzMy40NTMgODQuMjc2NyAyMzYuNzc2IDgxLjI3NCAyMzcuODIxIDc3LjM0MzRMMjU1LjYxMyAxMi45NTQ2QzI1NS44NTggMTIuMDc5OSAyNTUuOTg2IDExLjE1NzIgMjU1Ljk4NiAxMC4yMDc5QzI1NS45ODYgNC41NzA2MyAyNTEuNDIxIDAgMjQ1Ljc3OCAwQzI0NS4zNDEgMCAyNDQuOTA0IDAuMDI2NjY2NSAyNDQuNDgyIDAuMDc5OTk5NEw3OS45ODI0IDI0LjM4OTFDNjIuMTE1OCAyNy4yNTg1IDQ3LjY4OTMgNDAuNDM3IDQzLjAwNjcgNTcuNjI2MkwxOS4yODQyIDE0My42MDRDMjQuMDQ2OCAxMjYuMjEyIDI2Ljk3NDggMTE1LjcyNyA1Ni45NTMyIDExMC4zMDNaIi8+JiN4YTs8cGF0aCBmaWxsPSJ1cmwoI3BhaW50MTBfbGluZWFyXzEyNjNfMTI0NTkwKSIgZD0iTTU2Ljk1MjcgMTEwLjMwOUMzMS45ODc2IDExNC44MjcgMjUuNzkwMyAxMjIuODY5IDIxLjY2MjMgMTM1LjQ3MkwxLjc4NTE2IDIwOC40OUMxLjc4NTE2IDIwOC40OSA4LjEzNzExIDE4NS4yNDIgMzguODc4MiAxODAuMjcxTDE1Ni4zMzMgMTYzLjE2MkwxNTcuMjAzIDE2My4wMThDMTYxLjUwNyAxNjIuMzYyIDE2NC45NzkgMTU5LjE4OSAxNjYuMDgzIDE1NS4wNjFMMTgzLjU1NCA5MS42MDU1TDU2Ljk1ODEgMTEwLjMwOUg1Ni45NTI3WiIvPiYjeGE7PHBhdGggZmlsbC1vcGFjaXR5PSIwLjIiIGZpbGw9InVybCgjcGFpbnQxMV9saW5lYXJfMTI2M18xMjQ1OTApIiBkPSJNNTYuOTUyNyAxMTAuMzA5QzMxLjk4NzYgMTE0LjgyNyAyNS43OTAzIDEyMi44NjkgMjEuNjYyMyAxMzUuNDcyTDEuNzg1MTYgMjA4LjQ5QzEuNzg1MTYgMjA4LjQ5IDguMTM3MTEgMTg1LjI0MiAzOC44NzgyIDE4MC4yNzFMMTU2LjMzMyAxNjMuMTYyTDE1Ny4yMDMgMTYzLjAxOEMxNjEuNTA3IDE2Mi4zNjIgMTY0Ljk3OSAxNTkuMTg5IDE2Ni4wODMgMTU1LjA2MUwxODMuNTU0IDkxLjYwNTVMNTYuOTU4MSAxMTAuMzA5SDU2Ljk1MjdaIi8+JiN4YTs8cGF0aCBmaWxsPSJ1cmwoI3BhaW50MTJfbGluZWFyXzEyNjNfMTI0NTkwKSIgZD0iTTM4Ljg3OTggMTgwLjI3MkMxMi45MDEzIDE4NC40NzUgNC4zNjgwNCAyMDEuNjggMi4zMzYwNiAyMDYuOTIzQzAuODMyMDY5IDIxMC45MDEgMC4wMTA3NDIyIDIxNS4yMDUgMC4wMTA3NDIyIDIxOS43MDFDMC4wMTA3NDIyIDIzOC4yNCAxNC4wMTYgMjUzLjUwNCAzMi4wMjEyIDI1NS40OThDMzcuMDg3OCAyNTYuMjI5IDQyLjgyMTEgMjU2LjE5MiA0OS4yNDc3IDI1NS4yNDhMNzguNzcyOCAyNTEuMTczQzg2LjE5NjcgMjUwLjE0OSA5Mi4yOTI3IDI0NC43ODkgOTQuMjY2IDIzNy41NTdMMTEyLjc4OSAxNjkuNTFMMzguODg1MSAxODAuMjc4TDM4Ljg3OTggMTgwLjI3MloiIGNsaXAtcnVsZT0iZXZlbm9kZCIgZmlsbC1ydWxlPSJldmVub2RkIi8+JiN4YTs8L2c+JiN4YTs8ZGVmcz4mI3hhOzxsaW5lYXJHcmFkaWVudCBncmFkaWVudFVuaXRzPSJ1c2VyU3BhY2VPblVzZSIgeTI9IjE2Mi45MjIiIHgyPSI1Ny4yOTU2IiB5MT0iMjU2LjAwNCIgeDE9IjU3LjI5NTYiIGlkPSJwYWludDBfbGluZWFyXzEyNjNfMTI0NTkwIj4mI3hhOzxzdG9wIHN0b3AtY29sb3I9IiMyQUFDOTQiIG9mZnNldD0iMC4wNTYiLz4mI3hhOzxzdG9wIHN0b3AtY29sb3I9IiMyMzlDODciIG9mZnNldD0iMC4xNTUiLz4mI3hhOzxzdG9wIHN0b3AtY29sb3I9IiMxNzdFNzEiIG9mZnNldD0iMC4zNzIiLz4mI3hhOzxzdG9wIHN0b3AtY29sb3I9IiMwRTY5NjEiIG9mZnNldD0iMC41ODgiLz4mI3hhOzxzdG9wIHN0b3AtY29sb3I9IiMwOTVENTciIG9mZnNldD0iMC43OTkiLz4mI3hhOzxzdG9wIHN0b3AtY29sb3I9IiMwODU5NTQiIG9mZnNldD0iMSIvPiYjeGE7PC9saW5lYXJHcmFkaWVudD4mI3hhOzxsaW5lYXJHcmFkaWVudCBncmFkaWVudFVuaXRzPSJ1c2VyU3BhY2VPblVzZSIgeTI9IjkwLjcwNDIiIHgyPSI4NS4wMzI1IiB5MT0iMTg4LjQ2NSIgeDE9IjE3NC45MTYiIGlkPSJwYWludDFfbGluZWFyXzEyNjNfMTI0NTkwIj4mI3hhOzxzdG9wIHN0b3AtY29sb3I9IiNBQkU4OEUiIG9mZnNldD0iMC4wNDE3NDc4Ii8+JiN4YTs8c3RvcCBzdG9wLWNvbG9yPSIjMkFBQTkyIiBvZmZzZXQ9IjAuNTQ4OTI2Ii8+JiN4YTs8c3RvcCBzdG9wLWNvbG9yPSIjMTE3ODY1IiBvZmZzZXQ9IjAuOTA2Ii8+JiN4YTs8L2xpbmVhckdyYWRpZW50PiYjeGE7PGxpbmVhckdyYWRpZW50IGdyYWRpZW50VW5pdHM9InVzZXJTcGFjZU9uVXNlIiB5Mj0iMTU0LjU0MiIgeDI9IjM5LjU3MTEiIHkxPSIxODMuNzEyIiB4MT0iLTQ1Ljk2NiIgaWQ9InBhaW50Ml9saW5lYXJfMTI2M18xMjQ1OTAiPiYjeGE7PHN0b3Agc3RvcC1jb2xvcj0iIzZBRDZGOSIvPiYjeGE7PHN0b3Agc3RvcC1vcGFjaXR5PSIwIiBzdG9wLWNvbG9yPSIjNkFENkY5IiBvZmZzZXQ9IjEiLz4mI3hhOzwvbGluZWFyR3JhZGllbnQ+JiN4YTs8bGluZWFyR3JhZGllbnQgZ3JhZGllbnRVbml0cz0idXNlclNwYWNlT25Vc2UiIHkyPSI3MS44MDIxIiB4Mj0iMjQ2Ljk2OCIgeTE9IjcxLjgwMjEiIHgxPSIxOS4yODQyIiBpZD0icGFpbnQzX2xpbmVhcl8xMjYzXzEyNDU5MCI+JiN4YTs8c3RvcCBzdG9wLWNvbG9yPSIjMjVGRkQ0IiBvZmZzZXQ9IjAuMDQzIi8+JiN4YTs8c3RvcCBzdG9wLWNvbG9yPSIjNTVEREI5IiBvZmZzZXQ9IjAuODc0Ii8+JiN4YTs8L2xpbmVhckdyYWRpZW50PiYjeGE7PGxpbmVhckdyYWRpZW50IGdyYWRpZW50VW5pdHM9InVzZXJTcGFjZU9uVXNlIiB5Mj0iMTE0LjYxMiIgeDI9IjE1NS43NDciIHkxPSI5LjkwOTI2IiB4MT0iMTA2LjkyMSIgaWQ9InBhaW50NF9saW5lYXJfMTI2M18xMjQ1OTAiPiYjeGE7PHN0b3Agc3RvcC1vcGFjaXR5PSIwLjYiIHN0b3AtY29sb3I9IiNGNEUwODQiLz4mI3hhOzxzdG9wIHN0b3Atb3BhY2l0eT0iMCIgc3RvcC1jb2xvcj0iI0Y0RTA4NCIgb2Zmc2V0PSIwLjUzNCIvPiYjeGE7PC9saW5lYXJHcmFkaWVudD4mI3hhOzxsaW5lYXJHcmFkaWVudCBncmFkaWVudFVuaXRzPSJ1c2VyU3BhY2VPblVzZSIgeTI9IjQ1LjgzNSIgeDI9IjI1My45OCIgeTE9Ii01NS4yNjQxIiB4MT0iMTg4LjE2MiIgaWQ9InBhaW50NV9saW5lYXJfMTI2M18xMjQ1OTAiPiYjeGE7PHN0b3Agc3RvcC1jb2xvcj0iI0FCRjVFMiIvPiYjeGE7PHN0b3Agc3RvcC1jb2xvcj0iIzRFRTZCRCIgb2Zmc2V0PSIxIi8+JiN4YTs8L2xpbmVhckdyYWRpZW50PiYjeGE7PGxpbmVhckdyYWRpZW50IGdyYWRpZW50VW5pdHM9InVzZXJTcGFjZU9uVXNlIiB5Mj0iMTQzLjYwNCIgeDI9IjEzNy42MzUiIHkxPSIwIiB4MT0iMTM3LjYzNSIgaWQ9InBhaW50Nl9saW5lYXJfMTI2M18xMjQ1OTAiPiYjeGE7PHN0b3Agc3RvcC1jb2xvcj0iIzFGOTM3RSIvPiYjeGE7PHN0b3Agc3RvcC1jb2xvcj0iIzlFRTA5RiIgb2Zmc2V0PSIxIi8+JiN4YTs8L2xpbmVhckdyYWRpZW50PiYjeGE7PGxpbmVhckdyYWRpZW50IGdyYWRpZW50VW5pdHM9InVzZXJTcGFjZU9uVXNlIiB5Mj0iMTQzLjYwNCIgeDI9IjEzNy42MzUiIHkxPSIwIiB4MT0iMTM3LjYzNSIgaWQ9InBhaW50N19saW5lYXJfMTI2M18xMjQ1OTAiPiYjeGE7PHN0b3Agc3RvcC1jb2xvcj0iIzFGOTM3RSIvPiYjeGE7PHN0b3Agc3RvcC1jb2xvcj0iI0MwRUNDNyIgb2Zmc2V0PSIxIi8+JiN4YTs8L2xpbmVhckdyYWRpZW50PiYjeGE7PGxpbmVhckdyYWRpZW50IGdyYWRpZW50VW5pdHM9InVzZXJTcGFjZU9uVXNlIiB5Mj0iMTM1LjIxNiIgeDI9IjIyNC4zODIiIHkxPSIzOS45NzgzIiB4MT0iMTkuMjg0MiIgaWQ9InBhaW50OF9saW5lYXJfMTI2M18xMjQ1OTAiPiYjeGE7PHN0b3Agc3RvcC1jb2xvcj0iIzZBRDZGOSIvPiYjeGE7PHN0b3Agc3RvcC1jb2xvcj0iIzYwRTlEMCIgb2Zmc2V0PSIwLjIyOTUwMSIvPiYjeGE7PHN0b3Agc3RvcC1jb2xvcj0iIzZERTlCQiIgb2Zmc2V0PSIwLjY1MDcxMSIvPiYjeGE7PHN0b3Agc3RvcC1jb2xvcj0iI0FCRTg4RSIgb2Zmc2V0PSIwLjk5MzU0Ii8+JiN4YTs8L2xpbmVhckdyYWRpZW50PiYjeGE7PGxpbmVhckdyYWRpZW50IGdyYWRpZW50VW5pdHM9InVzZXJTcGFjZU9uVXNlIiB5Mj0iODIuNDY2IiB4Mj0iMTQ5Ljc4MSIgeTE9IjU3LjgiIHgxPSIzOC4yNTgiIGlkPSJwYWludDlfbGluZWFyXzEyNjNfMTI0NTkwIj4mI3hhOzxzdG9wIHN0b3Atb3BhY2l0eT0iMCIgc3RvcC1jb2xvcj0id2hpdGUiLz4mI3hhOzxzdG9wIHN0b3AtY29sb3I9IndoaXRlIiBvZmZzZXQ9IjAuNDU4NTExIi8+JiN4YTs8c3RvcCBzdG9wLW9wYWNpdHk9IjAiIHN0b3AtY29sb3I9IndoaXRlIiBvZmZzZXQ9IjEiLz4mI3hhOzwvbGluZWFyR3JhZGllbnQ+JiN4YTs8bGluZWFyR3JhZGllbnQgZ3JhZGllbnRVbml0cz0idXNlclNwYWNlT25Vc2UiIHkyPSI3NS4xMzI4IiB4Mj0iNzcuODcyMiIgeTE9IjE1My4zNDEiIHgxPSI3NS4yMzciIGlkPSJwYWludDEwX2xpbmVhcl8xMjYzXzEyNDU5MCI+JiN4YTs8c3RvcCBzdG9wLW9wYWNpdHk9IjAiIHN0b3AtY29sb3I9IiMwNjNEM0IiIG9mZnNldD0iMC4yMDQ2NDIiLz4mI3hhOzxzdG9wIHN0b3Atb3BhY2l0eT0iMC4yMzY1ODciIHN0b3AtY29sb3I9IiMwNjNEM0IiIG9mZnNldD0iMC41ODU1MyIvPiYjeGE7PHN0b3Agc3RvcC1vcGFjaXR5PSIwLjc1IiBzdG9wLWNvbG9yPSIjMDYzRDNCIiBvZmZzZXQ9IjAuODcyMjg1Ii8+JiN4YTs8L2xpbmVhckdyYWRpZW50PiYjeGE7PGxpbmVhckdyYWRpZW50IGdyYWRpZW50VW5pdHM9InVzZXJTcGFjZU9uVXNlIiB5Mj0iMTYzLjQ4NyIgeDI9Ijg3LjY4NjEiIHkxPSIxNDUuNTYzIiB4MT0iLTcuNjE3OTciIGlkPSJwYWludDExX2xpbmVhcl8xMjYzXzEyNDU5MCI+JiN4YTs8c3RvcCBzdG9wLW9wYWNpdHk9IjAiIHN0b3AtY29sb3I9IndoaXRlIi8+JiN4YTs8c3RvcCBzdG9wLWNvbG9yPSJ3aGl0ZSIgb2Zmc2V0PSIwLjQ1ODUxMSIvPiYjeGE7PHN0b3Agc3RvcC1vcGFjaXR5PSIwIiBzdG9wLWNvbG9yPSJ3aGl0ZSIgb2Zmc2V0PSIxIi8+JiN4YTs8L2xpbmVhckdyYWRpZW50PiYjeGE7PGxpbmVhckdyYWRpZW50IGdyYWRpZW50VW5pdHM9InVzZXJTcGFjZU9uVXNlIiB5Mj0iMTM5LjI5MiIgeDI9IjQyLjYzNTkiIHkxPSIyMzAuMjEzIiB4MT0iNjEuMjI2MyIgaWQ9InBhaW50MTJfbGluZWFyXzEyNjNfMTI0NTkwIj4mI3hhOzxzdG9wIHN0b3Atb3BhY2l0eT0iMCIgc3RvcC1jb2xvcj0iIzA2M0QzQiIgb2Zmc2V0PSIwLjA2NCIvPiYjeGE7PHN0b3Agc3RvcC1vcGFjaXR5PSIwLjEzNSIgc3RvcC1jb2xvcj0iIzA2M0QzQiIgb2Zmc2V0PSIwLjE3Ii8+JiN4YTs8c3RvcCBzdG9wLW9wYWNpdHk9IjAuNTk5IiBzdG9wLWNvbG9yPSIjMDYzRDNCIiBvZmZzZXQ9IjAuNTYyIi8+JiN4YTs8c3RvcCBzdG9wLW9wYWNpdHk9IjAuOSIgc3RvcC1jb2xvcj0iIzA2M0QzQiIgb2Zmc2V0PSIwLjg1Ii8+JiN4YTs8c3RvcCBzdG9wLWNvbG9yPSIjMDYzRDNCIiBvZmZzZXQ9IjEiLz4mI3hhOzwvbGluZWFyR3JhZGllbnQ+JiN4YTs8Y2xpcFBhdGggaWQ9ImNsaXAwXzEyNjNfMTI0NTkwIj4mI3hhOzxyZWN0IGZpbGw9IndoaXRlIiBoZWlnaHQ9IjI1NS45OTgiIHdpZHRoPSIyNTUuOTk4Ii8+JiN4YTs8L2NsaXBQYXRoPiYjeGE7PC9kZWZzPiYjeGE7PC9zdmc+;labelPosition=center;align=center;" parent="gxo681l_O-IEjd7Bf2fG-1" vertex="1">
          <mxGeometry x="781" y="423" width="46" height="46" as="geometry" />
        </mxCell>
        <mxCell id="gxo681l_O-IEjd7Bf2fG-17" value="Data sources" style="text;strokeColor=none;align=left;fillColor=none;html=1;verticalAlign=middle;whiteSpace=wrap;rounded=0;fontSize=17;fontStyle=1" parent="gxo681l_O-IEjd7Bf2fG-1" vertex="1">
          <mxGeometry x="7.460000000000001" y="36" width="126" height="30" as="geometry" />
        </mxCell>
        <mxCell id="gxo681l_O-IEjd7Bf2fG-18" value="Prepare and transform" style="text;strokeColor=none;align=left;fillColor=none;html=1;verticalAlign=middle;whiteSpace=wrap;rounded=0;fontSize=17;fontStyle=1" parent="gxo681l_O-IEjd7Bf2fG-1" vertex="1">
          <mxGeometry x="187" y="36" width="220" height="30" as="geometry" />
        </mxCell>
        <mxCell id="gxo681l_O-IEjd7Bf2fG-19" value="Reports" style="text;strokeColor=none;align=left;fillColor=none;html=1;verticalAlign=middle;whiteSpace=wrap;rounded=0;fontSize=17;fontStyle=1" parent="gxo681l_O-IEjd7Bf2fG-1" vertex="1">
          <mxGeometry x="625" y="36" width="80" height="30" as="geometry" />
        </mxCell>
        <mxCell id="gxo681l_O-IEjd7Bf2fG-20" value="" style="endArrow=classic;html=1;rounded=0;" parent="gxo681l_O-IEjd7Bf2fG-1" edge="1">
          <mxGeometry width="50" height="50" relative="1" as="geometry">
            <mxPoint x="403.82" y="305" as="sourcePoint" />
            <mxPoint x="432.91" y="175" as="targetPoint" />
          </mxGeometry>
        </mxCell>
        <mxCell id="gxo681l_O-IEjd7Bf2fG-21" value="" style="endArrow=classic;html=1;rounded=0;" parent="gxo681l_O-IEjd7Bf2fG-1" edge="1">
          <mxGeometry width="50" height="50" relative="1" as="geometry">
            <mxPoint x="344.82" y="180" as="sourcePoint" />
            <mxPoint x="381" y="303" as="targetPoint" />
          </mxGeometry>
        </mxCell>
        <mxCell id="gxo681l_O-IEjd7Bf2fG-22" value="" style="endArrow=classic;html=1;rounded=0;" parent="gxo681l_O-IEjd7Bf2fG-1" edge="1">
          <mxGeometry width="50" height="50" relative="1" as="geometry">
            <mxPoint x="462.82" y="181" as="sourcePoint" />
            <mxPoint x="499" y="304" as="targetPoint" />
          </mxGeometry>
        </mxCell>
        <mxCell id="gxo681l_O-IEjd7Bf2fG-23" value="" style="rounded=0;whiteSpace=wrap;html=1;fillColor=#fff2cc;strokeColor=#d6b656;" parent="gxo681l_O-IEjd7Bf2fG-1" vertex="1">
          <mxGeometry x="182.82" y="503" width="507.18" height="153" as="geometry" />
        </mxCell>
        <mxCell id="gxo681l_O-IEjd7Bf2fG-24" value="Risk" style="text;strokeColor=none;align=left;fillColor=none;html=1;verticalAlign=middle;whiteSpace=wrap;rounded=0;fontSize=17;fontStyle=1" parent="gxo681l_O-IEjd7Bf2fG-1" vertex="1">
          <mxGeometry x="187" y="626" width="220" height="30" as="geometry" />
        </mxCell>
        <mxCell id="gxo681l_O-IEjd7Bf2fG-25" value="Databricks" style="image;aspect=fixed;html=1;points=[];align=left;fontSize=12;image=img/lib/azure2/analytics/Azure_Databricks.svg;labelPosition=right;verticalLabelPosition=middle;verticalAlign=middle;labelBackgroundColor=none;" parent="gxo681l_O-IEjd7Bf2fG-1" vertex="1">
          <mxGeometry x="168.14000000000001" y="486" width="46.18" height="50" as="geometry" />
        </mxCell>
        <mxCell id="gxo681l_O-IEjd7Bf2fG-26" value="Notebooks" style="rounded=0;whiteSpace=wrap;html=1;labelPosition=center;verticalLabelPosition=bottom;align=center;verticalAlign=top;" parent="gxo681l_O-IEjd7Bf2fG-1" vertex="1">
          <mxGeometry x="349" y="536" width="200" height="60" as="geometry" />
        </mxCell>
        <mxCell id="gxo681l_O-IEjd7Bf2fG-27" value="" style="shape=image;verticalLabelPosition=bottom;verticalAlign=top;imageAspect=0;aspect=fixed;image=data:image/svg+xml,PHN2ZyB4bWxucz0iaHR0cDovL3d3dy53My5vcmcvMjAwMC9zdmciIGZpbGw9Im5vbmUiIHZpZXdCb3g9IjAgMCAzMiAzMyIgaGVpZ2h0PSIzMyIgd2lkdGg9IjMyIj4mI3hhOzxwYXRoIGZpbGw9ImJsYWNrIiBkPSJNOCA3LjkzNzU2QzggNy4xMDkxMyA4LjY3MTU3IDYuNDM3NTYgOS41IDYuNDM3NTZIMjEuNUMyMi4zMjg0IDYuNDM3NTYgMjMgNy4xMDkxMyAyMyA3LjkzNzU2VjEwLjkzNzZDMjMgMTEuNzY2IDIyLjMyODQgMTIuNDM3NiAyMS41IDEyLjQzNzZIOS41QzguNjcxNTcgMTIuNDM3NiA4IDExLjc2NiA4IDEwLjkzNzZWNy45Mzc1NlpNMTAgOC40Mzc1NlYxMC40Mzc2SDIxVjguNDM3NTZIMTBaTTQgNS42ODc1NkM0IDMuODkyNjMgNS40NTUwOCAyLjQzNzU2IDcuMjUgMi40Mzc1NkgyMy43NUMyNS41NDQ5IDIuNDM3NTYgMjcgMy44OTI2NCAyNyA1LjY4NzU2VjI3LjE4NzZDMjcgMjguOTgyNSAyNS41NDQ5IDMwLjQzNzYgMjMuNzUgMzAuNDM3Nkg3LjI1QzUuNDU1MDcgMzAuNDM3NiA0IDI4Ljk4MjUgNCAyNy4xODc2VjUuNjg3NTZaTTcuMjUgNC40Mzc1NkM2LjU1OTY0IDQuNDM3NTYgNiA0Ljk5NzIgNiA1LjY4NzU2VjI3LjE4NzZDNiAyNy44Nzc5IDYuNTU5NjQgMjguNDM3NiA3LjI1IDI4LjQzNzZIMjMuNzVDMjQuNDQwNCAyOC40Mzc2IDI1IDI3Ljg3NzkgMjUgMjcuMTg3NlY1LjY4NzU2QzI1IDQuOTk3MjEgMjQuNDQwNCA0LjQzNzU2IDIzLjc1IDQuNDM3NTZINy4yNVpNMjkuMjUgOC40Mzc1NkgyOFYxMi40Mzc2SDI5LjI1QzI5LjY2NDIgMTIuNDM3NiAzMCAxMi4xMDE4IDMwIDExLjY4NzZWOS4xODc1NkMzMCA4Ljc3MzM1IDI5LjY2NDIgOC40Mzc1NiAyOS4yNSA4LjQzNzU2Wk0yOCAxNC40Mzc2SDI5LjI1QzI5LjY2NDIgMTQuNDM3NiAzMCAxNC43NzMzIDMwIDE1LjE4NzZWMTcuNjg3NkMzMCAxOC4xMDE4IDI5LjY2NDIgMTguNDM3NiAyOS4yNSAxOC40Mzc2SDI4VjE0LjQzNzZaTTI5LjI1IDIwLjQzNzZIMjhWMjQuNDM3NkgyOS4yNUMyOS42NjQyIDI0LjQzNzYgMzAgMjQuMTAxOCAzMCAyMy42ODc2VjIxLjE4NzZDMzAgMjAuNzczMyAyOS42NjQyIDIwLjQzNzYgMjkuMjUgMjAuNDM3NloiLz4mI3hhOzwvc3ZnPg==" parent="gxo681l_O-IEjd7Bf2fG-1" vertex="1">
          <mxGeometry x="375" y="550" width="32" height="33" as="geometry" />
        </mxCell>
        <mxCell id="gxo681l_O-IEjd7Bf2fG-28" value="" style="shape=image;verticalLabelPosition=bottom;verticalAlign=top;imageAspect=0;aspect=fixed;image=data:image/svg+xml,PHN2ZyB4bWxucz0iaHR0cDovL3d3dy53My5vcmcvMjAwMC9zdmciIGZpbGw9Im5vbmUiIHZpZXdCb3g9IjAgMCAzMiAzMyIgaGVpZ2h0PSIzMyIgd2lkdGg9IjMyIj4mI3hhOzxwYXRoIGZpbGw9ImJsYWNrIiBkPSJNOCA3LjkzNzU2QzggNy4xMDkxMyA4LjY3MTU3IDYuNDM3NTYgOS41IDYuNDM3NTZIMjEuNUMyMi4zMjg0IDYuNDM3NTYgMjMgNy4xMDkxMyAyMyA3LjkzNzU2VjEwLjkzNzZDMjMgMTEuNzY2IDIyLjMyODQgMTIuNDM3NiAyMS41IDEyLjQzNzZIOS41QzguNjcxNTcgMTIuNDM3NiA4IDExLjc2NiA4IDEwLjkzNzZWNy45Mzc1NlpNMTAgOC40Mzc1NlYxMC40Mzc2SDIxVjguNDM3NTZIMTBaTTQgNS42ODc1NkM0IDMuODkyNjMgNS40NTUwOCAyLjQzNzU2IDcuMjUgMi40Mzc1NkgyMy43NUMyNS41NDQ5IDIuNDM3NTYgMjcgMy44OTI2NCAyNyA1LjY4NzU2VjI3LjE4NzZDMjcgMjguOTgyNSAyNS41NDQ5IDMwLjQzNzYgMjMuNzUgMzAuNDM3Nkg3LjI1QzUuNDU1MDcgMzAuNDM3NiA0IDI4Ljk4MjUgNCAyNy4xODc2VjUuNjg3NTZaTTcuMjUgNC40Mzc1NkM2LjU1OTY0IDQuNDM3NTYgNiA0Ljk5NzIgNiA1LjY4NzU2VjI3LjE4NzZDNiAyNy44Nzc5IDYuNTU5NjQgMjguNDM3NiA3LjI1IDI4LjQzNzZIMjMuNzVDMjQuNDQwNCAyOC40Mzc2IDI1IDI3Ljg3NzkgMjUgMjcuMTg3NlY1LjY4NzU2QzI1IDQuOTk3MjEgMjQuNDQwNCA0LjQzNzU2IDIzLjc1IDQuNDM3NTZINy4yNVpNMjkuMjUgOC40Mzc1NkgyOFYxMi40Mzc2SDI5LjI1QzI5LjY2NDIgMTIuNDM3NiAzMCAxMi4xMDE4IDMwIDExLjY4NzZWOS4xODc1NkMzMCA4Ljc3MzM1IDI5LjY2NDIgOC40Mzc1NiAyOS4yNSA4LjQzNzU2Wk0yOCAxNC40Mzc2SDI5LjI1QzI5LjY2NDIgMTQuNDM3NiAzMCAxNC43NzMzIDMwIDE1LjE4NzZWMTcuNjg3NkMzMCAxOC4xMDE4IDI5LjY2NDIgMTguNDM3NiAyOS4yNSAxOC40Mzc2SDI4VjE0LjQzNzZaTTI5LjI1IDIwLjQzNzZIMjhWMjQuNDM3NkgyOS4yNUMyOS42NjQyIDI0LjQzNzYgMzAgMjQuMTAxOCAzMCAyMy42ODc2VjIxLjE4NzZDMzAgMjAuNzczMyAyOS42NjQyIDIwLjQzNzYgMjkuMjUgMjAuNDM3NloiLz4mI3hhOzwvc3ZnPg==" parent="gxo681l_O-IEjd7Bf2fG-1" vertex="1">
          <mxGeometry x="433.14" y="549.5" width="32" height="33" as="geometry" />
        </mxCell>
        <mxCell id="gxo681l_O-IEjd7Bf2fG-29" value="" style="shape=image;verticalLabelPosition=bottom;verticalAlign=top;imageAspect=0;aspect=fixed;image=data:image/svg+xml,PHN2ZyB4bWxucz0iaHR0cDovL3d3dy53My5vcmcvMjAwMC9zdmciIGZpbGw9Im5vbmUiIHZpZXdCb3g9IjAgMCAzMiAzMyIgaGVpZ2h0PSIzMyIgd2lkdGg9IjMyIj4mI3hhOzxwYXRoIGZpbGw9ImJsYWNrIiBkPSJNOCA3LjkzNzU2QzggNy4xMDkxMyA4LjY3MTU3IDYuNDM3NTYgOS41IDYuNDM3NTZIMjEuNUMyMi4zMjg0IDYuNDM3NTYgMjMgNy4xMDkxMyAyMyA3LjkzNzU2VjEwLjkzNzZDMjMgMTEuNzY2IDIyLjMyODQgMTIuNDM3NiAyMS41IDEyLjQzNzZIOS41QzguNjcxNTcgMTIuNDM3NiA4IDExLjc2NiA4IDEwLjkzNzZWNy45Mzc1NlpNMTAgOC40Mzc1NlYxMC40Mzc2SDIxVjguNDM3NTZIMTBaTTQgNS42ODc1NkM0IDMuODkyNjMgNS40NTUwOCAyLjQzNzU2IDcuMjUgMi40Mzc1NkgyMy43NUMyNS41NDQ5IDIuNDM3NTYgMjcgMy44OTI2NCAyNyA1LjY4NzU2VjI3LjE4NzZDMjcgMjguOTgyNSAyNS41NDQ5IDMwLjQzNzYgMjMuNzUgMzAuNDM3Nkg3LjI1QzUuNDU1MDcgMzAuNDM3NiA0IDI4Ljk4MjUgNCAyNy4xODc2VjUuNjg3NTZaTTcuMjUgNC40Mzc1NkM2LjU1OTY0IDQuNDM3NTYgNiA0Ljk5NzIgNiA1LjY4NzU2VjI3LjE4NzZDNiAyNy44Nzc5IDYuNTU5NjQgMjguNDM3NiA3LjI1IDI4LjQzNzZIMjMuNzVDMjQuNDQwNCAyOC40Mzc2IDI1IDI3Ljg3NzkgMjUgMjcuMTg3NlY1LjY4NzU2QzI1IDQuOTk3MjEgMjQuNDQwNCA0LjQzNzU2IDIzLjc1IDQuNDM3NTZINy4yNVpNMjkuMjUgOC40Mzc1NkgyOFYxMi40Mzc2SDI5LjI1QzI5LjY2NDIgMTIuNDM3NiAzMCAxMi4xMDE4IDMwIDExLjY4NzZWOS4xODc1NkMzMCA4Ljc3MzM1IDI5LjY2NDIgOC40Mzc1NiAyOS4yNSA4LjQzNzU2Wk0yOCAxNC40Mzc2SDI5LjI1QzI5LjY2NDIgMTQuNDM3NiAzMCAxNC43NzMzIDMwIDE1LjE4NzZWMTcuNjg3NkMzMCAxOC4xMDE4IDI5LjY2NDIgMTguNDM3NiAyOS4yNSAxOC40Mzc2SDI4VjE0LjQzNzZaTTI5LjI1IDIwLjQzNzZIMjhWMjQuNDM3NkgyOS4yNUMyOS42NjQyIDI0LjQzNzYgMzAgMjQuMTAxOCAzMCAyMy42ODc2VjIxLjE4NzZDMzAgMjAuNzczMyAyOS42NjQyIDIwLjQzNzYgMjkuMjUgMjAuNDM3NloiLz4mI3hhOzwvc3ZnPg==" parent="gxo681l_O-IEjd7Bf2fG-1" vertex="1">
          <mxGeometry x="496.90999999999997" y="549.5" width="32" height="33" as="geometry" />
        </mxCell>
        <mxCell id="gxo681l_O-IEjd7Bf2fG-30" value="" style="endArrow=classic;startArrow=classic;html=1;rounded=0;" parent="gxo681l_O-IEjd7Bf2fG-1" edge="1">
          <mxGeometry width="50" height="50" relative="1" as="geometry">
            <mxPoint x="395" y="549.5" as="sourcePoint" />
            <mxPoint x="395.5" y="389.5" as="targetPoint" />
          </mxGeometry>
        </mxCell>
        <mxCell id="gxo681l_O-IEjd7Bf2fG-31" value="" style="endArrow=classic;startArrow=classic;html=1;rounded=0;" parent="gxo681l_O-IEjd7Bf2fG-1" edge="1">
          <mxGeometry width="50" height="50" relative="1" as="geometry">
            <mxPoint x="512.41" y="550" as="sourcePoint" />
            <mxPoint x="512.91" y="390" as="targetPoint" />
          </mxGeometry>
        </mxCell>
        <mxCell id="gxo681l_O-IEjd7Bf2fG-32" value="" style="sketch=0;outlineConnect=0;fontColor=#232F3E;gradientColor=none;fillColor=#232F3D;strokeColor=none;dashed=0;verticalLabelPosition=bottom;verticalAlign=top;align=center;html=1;fontSize=12;fontStyle=0;aspect=fixed;pointerEvents=1;shape=mxgraph.aws4.users;" parent="gxo681l_O-IEjd7Bf2fG-1" vertex="1">
          <mxGeometry x="256.91" y="550" width="40" height="40" as="geometry" />
        </mxCell>
        <mxCell id="gxo681l_O-IEjd7Bf2fG-33" value="" style="rounded=0;whiteSpace=wrap;html=1;dashed=1;dashPattern=8 8;fillColor=#dae8fc;strokeColor=#6c8ebf;" parent="gxo681l_O-IEjd7Bf2fG-1" vertex="1">
          <mxGeometry x="632.5" y="67" width="159" height="331" as="geometry" />
        </mxCell>
        <mxCell id="gxo681l_O-IEjd7Bf2fG-34" value="" style="sketch=0;outlineConnect=0;fontColor=#232F3E;gradientColor=none;fillColor=#232F3D;strokeColor=none;dashed=0;verticalLabelPosition=bottom;verticalAlign=top;align=center;html=1;fontSize=12;fontStyle=0;aspect=fixed;pointerEvents=1;shape=mxgraph.aws4.users;" parent="gxo681l_O-IEjd7Bf2fG-1" vertex="1">
          <mxGeometry x="692" y="81" width="40" height="40" as="geometry" />
        </mxCell>
        <mxCell id="gxo681l_O-IEjd7Bf2fG-35" value="" style="rounded=0;whiteSpace=wrap;html=1;" parent="gxo681l_O-IEjd7Bf2fG-1" vertex="1">
          <mxGeometry x="641" y="140" width="140" height="60" as="geometry" />
        </mxCell>
        <mxCell id="gxo681l_O-IEjd7Bf2fG-36" value="" style="shape=image;verticalLabelPosition=bottom;verticalAlign=top;imageAspect=0;aspect=fixed;image=data:image/svg+xml,PHN2ZyB4bWxucz0iaHR0cDovL3d3dy53My5vcmcvMjAwMC9zdmciIGZpbGw9Im5vbmUiIHZpZXdCb3g9IjAgMCAzMiAzMyIgaGVpZ2h0PSIzMyIgd2lkdGg9IjMyIj4mI3hhOzxwYXRoIGZpbGw9ImJsYWNrIiBkPSJNNSA3LjkyMTg3QzUgNi4yNjUwMiA2LjM0MzE1IDQuOTIxODggOCA0LjkyMTg4QzkuNjU2ODUgNC45MjE4OCAxMSA2LjI2NTAyIDExIDcuOTIxODhWMjUuOTIxOUMxMSAyNy41Nzg3IDkuNjU2ODUgMjguOTIxOSA4IDI4LjkyMTlDNi4zNDMxNSAyOC45MjE5IDUgMjcuNTc4NyA1IDI1LjkyMTlWNy45MjE4N1pNOCA2LjkyMTg4QzcuNDQ3NzEgNi45MjE4OCA3IDcuMzY5NTkgNyA3LjkyMTg3VjI1LjkyMTlDNyAyNi40NzQyIDcuNDQ3NzIgMjYuOTIxOSA4IDI2LjkyMTlDOC41NTIyOSAyNi45MjE5IDkgMjYuNDc0MiA5IDI1LjkyMTlWNy45MjE4OEM5IDcuMzY5NTkgOC41NTIyOCA2LjkyMTg4IDggNi45MjE4OFpNMTMgMTMuOTIxOUMxMyAxMi4yNjUgMTQuMzQzMSAxMC45MjE5IDE2IDEwLjkyMTlDMTcuNjU2OSAxMC45MjE5IDE5IDEyLjI2NSAxOSAxMy45MjE5VjI1LjkyMTlDMTkgMjcuNTc4NyAxNy42NTY5IDI4LjkyMTkgMTYgMjguOTIxOUMxNC4zNDMxIDI4LjkyMTkgMTMgMjcuNTc4NyAxMyAyNS45MjE5VjEzLjkyMTlaTTE2IDEyLjkyMTlDMTUuNDQ3NyAxMi45MjE5IDE1IDEzLjM2OTYgMTUgMTMuOTIxOVYyNS45MjE5QzE1IDI2LjQ3NDIgMTUuNDQ3NyAyNi45MjE5IDE2IDI2LjkyMTlDMTYuNTUyMyAyNi45MjE5IDE3IDI2LjQ3NDIgMTcgMjUuOTIxOVYxMy45MjE5QzE3IDEzLjM2OTYgMTYuNTUyMyAxMi45MjE5IDE2IDEyLjkyMTlaTTI0IDE2LjkyMTlDMjIuMzQzMSAxNi45MjE5IDIxIDE4LjI2NSAyMSAxOS45MjE5VjI1LjkyMTlDMjEgMjcuNTc4NyAyMi4zNDMxIDI4LjkyMTkgMjQgMjguOTIxOUMyNS42NTY5IDI4LjkyMTkgMjcgMjcuNTc4NyAyNyAyNS45MjE5VjE5LjkyMTlDMjcgMTguMjY1IDI1LjY1NjkgMTYuOTIxOSAyNCAxNi45MjE5Wk0yMyAxOS45MjE5QzIzIDE5LjM2OTYgMjMuNDQ3NyAxOC45MjE5IDI0IDE4LjkyMTlDMjQuNTUyMyAxOC45MjE5IDI1IDE5LjM2OTYgMjUgMTkuOTIxOVYyNS45MjE5QzI1IDI2LjQ3NDIgMjQuNTUyMyAyNi45MjE5IDI0IDI2LjkyMTlDMjMuNDQ3NyAyNi45MjE5IDIzIDI2LjQ3NDIgMjMgMjUuOTIxOVYxOS45MjE5WiIvPiYjeGE7PC9zdmc+" parent="gxo681l_O-IEjd7Bf2fG-1" vertex="1">
          <mxGeometry x="650" y="152" width="32" height="33" as="geometry" />
        </mxCell>
        <mxCell id="gxo681l_O-IEjd7Bf2fG-37" value="" style="shape=image;verticalLabelPosition=bottom;verticalAlign=top;imageAspect=0;aspect=fixed;image=data:image/svg+xml,PHN2ZyB4bWxucz0iaHR0cDovL3d3dy53My5vcmcvMjAwMC9zdmciIGZpbGw9Im5vbmUiIHZpZXdCb3g9IjAgMCAzMiAzMyIgaGVpZ2h0PSIzMyIgd2lkdGg9IjMyIj4mI3hhOzxwYXRoIGZpbGw9ImJsYWNrIiBkPSJNOSA2LjQ1MzEzQzkgNS40ODY2MyA5Ljc4MzUgNC43MDMxMiAxMC43NSA0LjcwMzEySDI4LjI1QzI5LjIxNjUgNC43MDMxMiAzMCA1LjQ4NjYzIDMwIDYuNDUzMTJWMjYuOTUzMUMzMCAyNy45MTk2IDI5LjIxNjUgMjguNzAzMSAyOC4yNSAyOC43MDMxSDEwLjc1QzkuNzgzNSAyOC43MDMxIDkgMjcuOTE5NiA5IDI2Ljk1MzFWMjMuNzAzMUgzLjI1QzIuNTU5NjQgMjMuNzAzMSAyIDIzLjE0MzUgMiAyMi40NTMxVjEwLjk1MzFDMiAxMC4yNjI4IDIuNTU5NjQgOS43MDMxMiAzLjI1IDkuNzAzMTJIOVY2LjQ1MzEzWk0xMSAyNi43MDMxSDE4LjVWMjMuNzAzMUgxMVYyNi43MDMxWk0xOC41IDIxLjcwMzFWMTcuNzAzMUgxNlYyMS43MDMxSDE4LjVaTTE4LjUgMTUuNzAzMVYxMS43MDMxSDE2VjE1LjcwMzFIMTguNVpNMTEgOS43MDMxMkgxOC41VjYuNzAzMTJIMTFWOS43MDMxMlpNMjAuNSAyMy43MDMxVjI2LjcwMzFIMjhWMjMuNzAzMUgyMC41Wk0yOCAyMS43MDMxVjE3LjcwMzFIMjAuNVYyMS43MDMxSDI4Wk0yOCAxMS43MDMxSDIwLjVWMTUuNzAzMUgyOFYxMS43MDMxWk0yOCA5LjcwMzEyVjYuNzAzMTJIMjAuNVY5LjcwMzEySDI4Wk03LjkyMzA0IDE2LjY5MUw1LjA5MTggMjEuMDc4Mkg3LjE0MTk4TDguODI2MTYgMTguMDAyOUM4LjkwNDEgMTcuODc4MyA4Ljk2NzU3IDE3Ljc0NTIgOS4wMTUzMiAxNy42MDYzSDkuMDM5NzJDOS4wOTI1OCAxNy43NDggOS4xNTc5MiAxNy44ODQ4IDkuMjM0OTggMTguMDE1MUwxMC44NzAyIDIxLjA3ODJIMTIuOTA4MkwxMC4xODA3IDE2LjY2NjZMMTIuODQxMSAxMi4zMjgySDEwLjkyNTFMOS40MTE4NiAxNS4wOTIzQzkuMzEwMTQgMTUuMjkxNyA5LjIxMjUxIDE1LjQ5NzEgOS4xMTg5OCAxNS43MDg2SDkuMTAwNjlDOS4wNTE4NCAxNS41Nzg1IDguOTYyMzUgMTUuMzgxMiA4LjgzMjIxIDE1LjExNjdMNy40MTY1OSAxMi4zMjgySDUuMzI5NzdMNy45MjMwNCAxNi42OTFaIi8+JiN4YTs8L3N2Zz4=" parent="gxo681l_O-IEjd7Bf2fG-1" vertex="1">
          <mxGeometry x="696" y="153.5" width="32" height="33" as="geometry" />
        </mxCell>
        <mxCell id="gxo681l_O-IEjd7Bf2fG-38" value="" style="shape=image;verticalLabelPosition=bottom;verticalAlign=top;imageAspect=0;aspect=fixed;image=data:image/svg+xml,PHN2ZyB4bWxucz0iaHR0cDovL3d3dy53My5vcmcvMjAwMC9zdmciIGZpbGw9Im5vbmUiIHZpZXdCb3g9IjAgMCAzMiAzMyIgaGVpZ2h0PSIzMyIgd2lkdGg9IjMyIj4mI3hhOzxwYXRoIGZpbGw9ImJsYWNrIiBkPSJNMTMgMjIuMDMxMkMxMyAyMS40NzkgMTIuNTUyMyAyMS4wMzEyIDEyIDIxLjAzMTJDMTEuNDQ3NyAyMS4wMzEyIDExIDIxLjQ3OSAxMSAyMi4wMzEyVjI1LjAzMTJDMTEgMjUuNTgzNSAxMS40NDc3IDI2LjAzMTIgMTIgMjYuMDMxMkMxMi41NTIzIDI2LjAzMTIgMTMgMjUuNTgzNSAxMyAyNS4wMzEyVjIyLjAzMTJaTTE2IDE1LjAzMTJDMTYuNTUyMyAxNS4wMzEyIDE3IDE1LjQ3OSAxNyAxNi4wMzEyVjI1LjAzMTJDMTcgMjUuNTgzNSAxNi41NTIzIDI2LjAzMTIgMTYgMjYuMDMxMkMxNS40NDc3IDI2LjAzMTIgMTUgMjUuNTgzNSAxNSAyNS4wMzEyVjE2LjAzMTJDMTUgMTUuNDc5IDE1LjQ0NzcgMTUuMDMxMiAxNiAxNS4wMzEyWk0yMSAxOS4wMzEyQzIxIDE4LjQ3OSAyMC41NTIzIDE4LjAzMTIgMjAgMTguMDMxMkMxOS40NDc3IDE4LjAzMTIgMTkgMTguNDc5IDE5IDE5LjAzMTJWMjUuMDMxMkMxOSAyNS41ODM1IDE5LjQ0NzcgMjYuMDMxMiAyMCAyNi4wMzEyQzIwLjU1MjMgMjYuMDMxMiAyMSAyNS41ODM1IDIxIDI1LjAzMTJWMTkuMDMxMlpNNSA1LjAzMTI1QzUgMy4zNzQ0IDYuMzQzMTUgMi4wMzEyNSA4IDIuMDMxMjVIMTguMTcxNkMxOC45NjcyIDIuMDMxMjUgMTkuNzMwMyAyLjM0NzMyIDIwLjI5MjkgMi45MDk5M0wyNi4xMjEzIDguNzM4MzZDMjYuNjgzOSA5LjMwMDk3IDI3IDEwLjA2NCAyNyAxMC44NTk3VjI3LjAzMTJDMjcgMjguNjg4MSAyNS42NTY5IDMwLjAzMTIgMjQgMzAuMDMxMkg4QzYuMzQzMTUgMzAuMDMxMiA1IDI4LjY4ODEgNSAyNy4wMzEyVjUuMDMxMjVaTTggNC4wMzEyNUM3LjQ0NzcyIDQuMDMxMjUgNyA0LjQ3ODk3IDcgNS4wMzEyNVYyNy4wMzEyQzcgMjcuNTgzNSA3LjQ0NzcyIDI4LjAzMTIgOCAyOC4wMzEySDI0QzI0LjU1MjMgMjguMDMxMiAyNSAyNy41ODM1IDI1IDI3LjAzMTJWMTIuMDMxMkgyMEMxOC4zNDMxIDEyLjAzMTIgMTcgMTAuNjg4MSAxNyA5LjAzMTI1VjQuMDMxMjVIOFpNMjAgMTAuMDMxMkgyNC41ODU4TDE5IDQuNDQ1NDZWOS4wMzEyNUMxOSA5LjU4MzUzIDE5LjQ0NzcgMTAuMDMxMiAyMCAxMC4wMzEyWiIvPiYjeGE7PC9zdmc+" parent="gxo681l_O-IEjd7Bf2fG-1" vertex="1">
          <mxGeometry x="743" y="155" width="32" height="33" as="geometry" />
        </mxCell>
        <mxCell id="gxo681l_O-IEjd7Bf2fG-39" value="Semantic model" style="shape=image;verticalLabelPosition=bottom;verticalAlign=top;imageAspect=0;aspect=fixed;image=data:image/svg+xml,PHN2ZyB4bWxucz0iaHR0cDovL3d3dy53My5vcmcvMjAwMC9zdmciIGZpbGw9Im5vbmUiIHZpZXdCb3g9IjAgMCAzMiAzMyIgaGVpZ2h0PSIzMyIgd2lkdGg9IjMyIj4mI3hhOzxwYXRoIGZpbGw9ImJsYWNrIiBkPSJNOS4zOTM2OSAxMC4yMjE4QzguODg2MDYgMTAuMDA0MiA4LjI5ODE4IDEwLjIzOTQgOC4wODA2MiAxMC43NDdDNy44NjMwNyAxMS4yNTQ3IDguMDk4MjIgMTEuODQyNSA4LjYwNTg1IDEyLjA2MDFMMTQuOTk5OCAxNC44MDAzVjIxLjE0MDlDMTQuOTk5OCAyMS42OTMyIDE1LjQ0NzUgMjIuMTQwOSAxNS45OTk4IDIyLjE0MDlDMTYuNTUyMSAyMi4xNDA5IDE2Ljk5OTggMjEuNjkzMiAxNi45OTk4IDIxLjE0MDlWMTQuODAwM0wyMy4zOTM3IDEyLjA2MDFDMjMuOTAxMyAxMS44NDI1IDI0LjEzNjUgMTEuMjU0NyAyMy45MTg5IDEwLjc0N0MyMy43MDE0IDEwLjIzOTQgMjMuMTEzNSAxMC4wMDQyIDIyLjYwNTkgMTAuMjIxOEwxNS45OTk4IDEzLjA1M0w5LjM5MzY5IDEwLjIyMThaTTE4LjE1MzkgMi44OTgwM0MxNi43Njc1IDIuMzY0OCAxNS4yMzI1IDIuMzY0OCAxMy44NDYxIDIuODk4MDNMMy45MjMwNiA2LjcxNDZDMi43NjQ0OSA3LjE2MDIgMiA4LjI3MzMyIDIgOS41MTQ2M1YyMi43Njc0QzIgMjQuMDA4OCAyLjc2NDQ5IDI1LjEyMTkgMy45MjMwNiAyNS41Njc1TDEzLjg0NjEgMjkuMzg0QzE1LjIzMjUgMjkuOTE3MyAxNi43Njc1IDI5LjkxNzMgMTguMTUzOSAyOS4zODRMMjguMDc2OSAyNS41Njc1QzI5LjIzNTUgMjUuMTIxOSAzMCAyNC4wMDg4IDMwIDIyLjc2NzRWOS41MTQ2M0MzMCA4LjI3MzMyIDI5LjIzNTUgNy4xNjAyIDI4LjA3NjkgNi43MTQ2TDE4LjE1MzkgMi44OTgwM1pNMTQuNTY0MSA0Ljc2NDczQzE1LjQ4ODQgNC40MDkyNCAxNi41MTE2IDQuNDA5MjQgMTcuNDM1OSA0Ljc2NDczTDI3LjM1OSA4LjU4MTI5QzI3Ljc0NTIgOC43Mjk4MiAyOCA5LjEwMDg2IDI4IDkuNTE0NjNWMjIuNzY3NEMyOCAyMy4xODEyIDI3Ljc0NTIgMjMuNTUyMiAyNy4zNTkgMjMuNzAwOEwxNy40MzU5IDI3LjUxNzNDMTYuNTExNiAyNy44NzI4IDE1LjQ4ODQgMjcuODcyOCAxNC41NjQxIDI3LjUxNzNMNC42NDEwMiAyMy43MDA4QzQuMjU0ODMgMjMuNTUyMiA0IDIzLjE4MTIgNCAyMi43Njc0VjkuNTE0NjNDNCA5LjEwMDg2IDQuMjU0ODMgOC43Mjk4MiA0LjY0MTAyIDguNTgxMjlMMTQuNTY0MSA0Ljc2NDczWiIvPiYjeGE7PC9zdmc+" parent="gxo681l_O-IEjd7Bf2fG-1" vertex="1">
          <mxGeometry x="671.82" y="296.53" width="68.36" height="70.5" as="geometry" />
        </mxCell>
        <mxCell id="gxo681l_O-IEjd7Bf2fG-40" value="" style="endArrow=classic;html=1;rounded=0;" parent="gxo681l_O-IEjd7Bf2fG-1" edge="1">
          <mxGeometry width="50" height="50" relative="1" as="geometry">
            <mxPoint x="705.5" y="288" as="sourcePoint" />
            <mxPoint x="705.5" y="208" as="targetPoint" />
          </mxGeometry>
        </mxCell>
        <mxCell id="gxo681l_O-IEjd7Bf2fG-41" value="" style="endArrow=classic;html=1;rounded=0;labelPosition=center;verticalLabelPosition=middle;align=center;verticalAlign=middle;labelBackgroundColor=none;" parent="gxo681l_O-IEjd7Bf2fG-1" edge="1">
          <mxGeometry width="50" height="50" relative="1" as="geometry">
            <mxPoint x="561" y="331.28" as="sourcePoint" />
            <mxPoint x="661" y="331.28" as="targetPoint" />
          </mxGeometry>
        </mxCell>
        <mxCell id="gxo681l_O-IEjd7Bf2fG-42" style="edgeStyle=orthogonalEdgeStyle;rounded=0;orthogonalLoop=1;jettySize=auto;html=1;exitX=0.5;exitY=1;exitDx=0;exitDy=0;" parent="gxo681l_O-IEjd7Bf2fG-1" source="gxo681l_O-IEjd7Bf2fG-6" target="gxo681l_O-IEjd7Bf2fG-6" edge="1">
          <mxGeometry relative="1" as="geometry" />
        </mxCell>
        <mxCell id="gxo681l_O-IEjd7Bf2fG-43" value="Direct lake&lt;br&gt;Import mode" style="text;strokeColor=none;align=center;fillColor=none;html=1;verticalAlign=middle;whiteSpace=wrap;rounded=0;" parent="gxo681l_O-IEjd7Bf2fG-1" vertex="1">
          <mxGeometry x="570" y="333" width="80" height="30" as="geometry" />
        </mxCell>
        <mxCell id="gxo681l_O-IEjd7Bf2fG-44" value="" style="rounded=0;whiteSpace=wrap;html=1;dashed=1;dashPattern=12 12;fillColor=none;" parent="gxo681l_O-IEjd7Bf2fG-1" vertex="1">
          <mxGeometry x="330" y="266" width="440" height="360" as="geometry" />
        </mxCell>
        <mxCell id="gxo681l_O-IEjd7Bf2fG-45" value="Gasido" style="image;sketch=0;aspect=fixed;html=1;points=[];align=center;fontSize=12;image=img/lib/mscae/Azure_Database_for_PostgreSQL_servers.svg;" parent="gxo681l_O-IEjd7Bf2fG-1" vertex="1">
          <mxGeometry x="56.260000000000005" y="246" width="46.4" height="61.05" as="geometry" />
        </mxCell>
        <mxCell id="gxo681l_O-IEjd7Bf2fG-46" value="Risk DB" style="image;sketch=0;aspect=fixed;html=1;points=[];align=center;fontSize=12;image=img/lib/mscae/Azure_Database_for_PostgreSQL_servers.svg;" parent="gxo681l_O-IEjd7Bf2fG-1" vertex="1">
          <mxGeometry x="610.6000000000001" y="542.5" width="30.4" height="40" as="geometry" />
        </mxCell>
        <mxCell id="gxo681l_O-IEjd7Bf2fG-47" value="" style="endArrow=classic;startArrow=classic;html=1;rounded=0;" parent="gxo681l_O-IEjd7Bf2fG-1" edge="1">
          <mxGeometry width="50" height="50" relative="1" as="geometry">
            <mxPoint x="531.42" y="565.5" as="sourcePoint" />
            <mxPoint x="608.6" y="565.5" as="targetPoint" />
          </mxGeometry>
        </mxCell>
        <mxCell id="gxo681l_O-IEjd7Bf2fG-48" value="" style="rounded=0;whiteSpace=wrap;html=1;fillColor=#fff2cc;strokeColor=#d6b656;rotation=0;" parent="gxo681l_O-IEjd7Bf2fG-1" vertex="1">
          <mxGeometry x="200.91" y="246" width="100" height="200" as="geometry" />
        </mxCell>
        <mxCell id="gxo681l_O-IEjd7Bf2fG-49" value="" style="endArrow=classic;html=1;rounded=0;" parent="gxo681l_O-IEjd7Bf2fG-1" edge="1">
          <mxGeometry width="50" height="50" relative="1" as="geometry">
            <mxPoint x="109" y="331.28" as="sourcePoint" />
            <mxPoint x="209" y="331.28" as="targetPoint" />
          </mxGeometry>
        </mxCell>
        <mxCell id="gxo681l_O-IEjd7Bf2fG-50" value="Bronze" style="shape=image;verticalLabelPosition=bottom;verticalAlign=top;imageAspect=0;aspect=fixed;image=data:image/svg+xml,PHN2ZyB4bWxucz0iaHR0cDovL3d3dy53My5vcmcvMjAwMC9zdmciIGZpbGw9Im5vbmUiIHZpZXdCb3g9IjAgMCAzMiAzMyIgaGVpZ2h0PSIzMyIgd2lkdGg9IjMyIj4mI3hhOzxwYXRoIGZpbGw9ImJsYWNrIiBkPSJNMTIuNjI2IDQuMzkwMDJDMTMuMzk3IDMuNjYxNzQgMTQuNjAzIDMuNjYxNzQgMTUuMzc0IDQuMzkwMDJMMjUuMDYxIDEzLjU0MDNDMjUuNjYwNCAxNC4xMDY0IDI2IDE0Ljg5NDEgMjYgMTUuNzE4MlYxOC42MDYyQzI1Ljc5OSAxOC40MjY0IDI1LjU3NCAxOC4yNzQgMjUuMzMwNyAxOC4xNTM4QzI0LjkxNyAxNy45NDkyIDI0LjQ2MTUgMTcuODQzMiAyNCAxNy44NDM4VjE1LjcxODJDMjQgMTUuNDQzNSAyMy44ODY4IDE1LjE4MSAyMy42ODcgMTQuOTkyMkwxNCA1Ljg0MTk4TDQuMzEyOTkgMTQuOTkyMkM0LjExMzIgMTUuMTgxIDQgMTUuNDQzNSA0IDE1LjcxODJWMjYuODQ2NkM0IDI3LjM5ODMgNC40NDc3MiAyNy44NDU2IDUgMjcuODQ1Nkg4Ljc2MjNDOC4yNzI2NyAyOC4zOTM5IDggMjkuMTA0OCA4IDI5Ljg0MzhMNSAyOS44NDM4QzMuMzQzMTQgMjkuODQzOCAyIDI4LjUwMTkgMiAyNi44NDY2VjE1LjcxODJDMiAxNC44OTQxIDIuMzM5NjEgMTQuMTA2NCAyLjkzODk2IDEzLjU0MDNMMTIuNjI2IDQuMzkwMDJaIi8+JiN4YTs8cGF0aCBmaWxsPSJibGFjayIgZD0iTTI5IDIyLjg0MzdDMjguMzk3OSAyMi44NzczIDI3Ljc5NTIgMjIuNzg3NiAyNy4yMjg5IDIyLjU4QzI2LjY2MjcgMjIuMzcyNSAyNi4xNDQ4IDIyLjA1MTUgMjUuNzA3IDIxLjYzNjdDMjUuNDY1OCAyMS4zOTY0IDI1LjI1OTEgMjEuMTIzOCAyNS4wOTMgMjAuODI2N0MyNS4wNTI2IDIwLjc1MDYgMjUuMDE2MyAyMC42NzI1IDI0Ljk4NCAyMC41OTI3QzI0Ljk0OTMgMjAuNTA1OSAyNC45MDkyIDIwLjQyMTQgMjQuODY0IDIwLjMzOTdDMjQuODQzNyAyMC4zMDUgMjQuODIxNCAyMC4yNzE2IDI0Ljc5NyAyMC4yMzk3QzI0LjY3MTkgMjAuMDc1MyAyNC40OTkgMTkuOTUzNyAyNC4zMDIxIDE5Ljg5MTZDMjQuMTA1MSAxOS44Mjk1IDIzLjg5MzcgMTkuODI5OCAyMy42OTcgMTkuODkyN0gyMy42ODdDMjMuNDU2NiAxOS45NzA5IDIzLjI2MTggMjAuMTI5MiAyMy4xMzggMjAuMzM4N0MyMy4wODYxIDIwLjQzNTMgMjMuMDQxMyAyMC41MzU1IDIzLjAwNCAyMC42Mzg3TDIyLjk5MzUgMjAuNjY0OEMyMi45NjYxIDIwLjczMzIgMjIuOTM4NiAyMC44MDE5IDIyLjkwNCAyMC44NjY3QzIyLjc1NDEgMjEuMTY2IDIyLjU3MDkgMjEuNDQ3NCAyMi4zNTggMjEuNzA1N0MyMi4wNzY1IDIyLjA2MTEgMjEuNzE4MiAyMi4zNDgyIDIxLjMxMDEgMjIuNTQ1NUMyMC45MDE5IDIyLjc0MjkgMjAuNDU0NCAyMi44NDU0IDIwLjAwMSAyMi44NDU0QzE5LjU0NzYgMjIuODQ1NCAxOS4xMDAxIDIyLjc0MjkgMTguNjkxOSAyMi41NDU1QzE4LjI4MzggMjIuMzQ4MiAxNy45MjU1IDIyLjA2MTEgMTcuNjQ0IDIxLjcwNTdDMTcuNDMxMSAyMS40NDc0IDE3LjI0NzkgMjEuMTY2IDE3LjA5OCAyMC44NjY3QzE3LjA3MTEgMjAuODEzNiAxNy4wNDc5IDIwLjc1NzkgMTcuMDI0NiAyMC43MDE5QzE3LjAxNTggMjAuNjgwOCAxNy4wMDcgMjAuNjU5NyAxNi45OTggMjAuNjM4N0MxNi45NjA3IDIwLjUzNTUgMTYuOTE1OSAyMC40MzUzIDE2Ljg2NCAyMC4zMzg3QzE2Ljc0MDIgMjAuMTI5MiAxNi41NDU0IDE5Ljk3MDkgMTYuMzE1IDE5Ljg5MjdIMTYuMzA1QzE2LjEwODMgMTkuODI5OCAxNS44OTY5IDE5LjgyOTUgMTUuNjk5OSAxOS44OTE2QzE1LjUwMyAxOS45NTM3IDE1LjMzMDEgMjAuMDc1MyAxNS4yMDUgMjAuMjM5N0MxNS4xODA2IDIwLjI3MTYgMTUuMTU4MyAyMC4zMDUgMTUuMTM4IDIwLjMzOTdDMTUuMDkyOCAyMC40MjE0IDE1LjA1MjcgMjAuNTA1OSAxNS4wMTggMjAuNTkyN0MxNC45ODU3IDIwLjY3MjUgMTQuOTQ5NCAyMC43NTA2IDE0LjkwOSAyMC44MjY3QzE0Ljc0MjkgMjEuMTIzOCAxNC41MzYyIDIxLjM5NjQgMTQuMjk1IDIxLjYzNjdDMTMuODU3IDIyLjA1MTcgMTMuMzM4NyAyMi4zNzI5IDEyLjc3MjEgMjIuNTgwNEMxMi4yMDU1IDIyLjc4OCAxMS42MDI1IDIyLjg3NzYgMTEgMjIuODQzN0MxMC43MzQ4IDIyLjg0MzcgMTAuNDgwNCAyMi45NDkgMTAuMjkyOSAyMy4xMzY2QzEwLjEwNTQgMjMuMzI0MSAxMCAyMy41Nzg1IDEwIDIzLjg0MzdDMTAgMjQuMTA4OSAxMC4xMDU0IDI0LjM2MzIgMTAuMjkyOSAyNC41NTA4QzEwLjQ4MDQgMjQuNzM4MyAxMC43MzQ4IDI0Ljg0MzcgMTEgMjQuODQzN0MxMS44NjUgMjQuODc3OSAxMi43Mjc5IDI0LjczNjcgMTMuNTM2OSAyNC40Mjg2QzE0LjM0NTggMjQuMTIwNCAxNS4wODQgMjMuNjUxNyAxNS43MDcgMjMuMDUwN0MxNS43OTQgMjIuOTYzNyAxNS44NzYgMjIuODc2NyAxNS45NTIgMjIuNzg5N0MxNi4wMDEgMjIuODU0NyAxNi4wNTIgMjIuOTE4NyAxNi4xMDcgMjIuOTgzN0MxNi41NzU2IDIzLjU2NTEgMTcuMTY4NiAyNC4wMzQyIDE3Ljg0MjIgMjQuMzU2NUMxOC41MTU5IDI0LjY3ODggMTkuMjUzMiAyNC44NDYxIDIwIDI0Ljg0NjFDMjAuNzQ2OCAyNC44NDYxIDIxLjQ4NDEgMjQuNjc4OCAyMi4xNTc4IDI0LjM1NjVDMjIuODMxNCAyNC4wMzQyIDIzLjQyNDQgMjMuNTY1MSAyMy44OTMgMjIuOTgzN0MyMy45NDcgMjIuOTE4NyAyMy45OTkgMjIuODU0NyAyNC4wNDggMjIuNzg5N0MyNC4xMjQgMjIuODc2NyAyNC4yMDYgMjIuOTYzNyAyNC4yOTMgMjMuMDUwN0MyNC45MTYgMjMuNjUxNyAyNS42NTQyIDI0LjEyMDQgMjYuNDYzMSAyNC40Mjg2QzI3LjI3MjEgMjQuNzM2NyAyOC4xMzUgMjQuODc3OSAyOSAyNC44NDM3QzI5LjI2NTIgMjQuODQzNyAyOS41MTk2IDI0LjczODMgMjkuNzA3MSAyNC41NTA4QzI5Ljg5NDYgMjQuMzYzMiAzMCAyNC4xMDg5IDMwIDIzLjg0MzdDMzAgMjMuNTc4NSAyOS44OTQ2IDIzLjMyNDEgMjkuNzA3MSAyMy4xMzY2QzI5LjUxOTYgMjIuOTQ5IDI5LjI2NTIgMjIuODQzNyAyOSAyMi44NDM3WiIvPiYjeGE7PHBhdGggZmlsbD0iYmxhY2siIGQ9Ik0yOSAyOC44NDM3QzI4LjM5NzkgMjguODc3MyAyNy43OTUyIDI4Ljc4NzYgMjcuMjI4OSAyOC41OEMyNi42NjI3IDI4LjM3MjUgMjYuMTQ0OCAyOC4wNTE1IDI1LjcwNyAyNy42MzY3QzI1LjQ2NTggMjcuMzk2NCAyNS4yNTkxIDI3LjEyMzggMjUuMDkzIDI2LjgyNjdDMjUuMDUyNiAyNi43NTA2IDI1LjAxNjMgMjYuNjcyNSAyNC45ODQgMjYuNTkyN0MyNC45NDkzIDI2LjUwNTkgMjQuOTA5MiAyNi40MjE0IDI0Ljg2NCAyNi4zMzk3QzI0Ljg0MzcgMjYuMzA1IDI0LjgyMTQgMjYuMjcxNiAyNC43OTcgMjYuMjM5N0MyNC42NzE5IDI2LjA3NTMgMjQuNDk5IDI1Ljk1MzcgMjQuMzAyMSAyNS44OTE2QzI0LjEwNTEgMjUuODI5NSAyMy44OTM3IDI1LjgyOTggMjMuNjk3IDI1Ljg5MjdIMjMuNjg3QzIzLjQ1NjYgMjUuOTcwOSAyMy4yNjE4IDI2LjEyOTIgMjMuMTM4IDI2LjMzODdDMjMuMDg2MSAyNi40MzUzIDIzLjA0MTMgMjYuNTM1NSAyMy4wMDQgMjYuNjM4N0wyMi45OTM1IDI2LjY2NDhDMjIuOTY2MSAyNi43MzMyIDIyLjkzODYgMjYuODAxOSAyMi45MDQgMjYuODY2N0MyMi43NTQxIDI3LjE2NiAyMi41NzA5IDI3LjQ0NzQgMjIuMzU4IDI3LjcwNTdDMjIuMDc2NSAyOC4wNjExIDIxLjcxODIgMjguMzQ4MiAyMS4zMTAxIDI4LjU0NTVDMjAuOTAxOSAyOC43NDI5IDIwLjQ1NDQgMjguODQ1NCAyMC4wMDEgMjguODQ1NEMxOS41NDc2IDI4Ljg0NTQgMTkuMTAwMSAyOC43NDI5IDE4LjY5MTkgMjguNTQ1NUMxOC4yODM4IDI4LjM0ODIgMTcuOTI1NSAyOC4wNjExIDE3LjY0NCAyNy43MDU3QzE3LjQzMTEgMjcuNDQ3NCAxNy4yNDc5IDI3LjE2NiAxNy4wOTggMjYuODY2N0MxNy4wNzExIDI2LjgxMzYgMTcuMDQ3OSAyNi43NTc5IDE3LjAyNDYgMjYuNzAxOUMxNy4wMTU4IDI2LjY4MDggMTcuMDA3IDI2LjY1OTcgMTYuOTk4IDI2LjYzODdDMTYuOTYwNyAyNi41MzU1IDE2LjkxNTkgMjYuNDM1MyAxNi44NjQgMjYuMzM4N0MxNi43NDAyIDI2LjEyOTIgMTYuNTQ1NCAyNS45NzA5IDE2LjMxNSAyNS44OTI3SDE2LjMwNUMxNi4xMDgzIDI1LjgyOTggMTUuODk2OSAyNS44Mjk1IDE1LjY5OTkgMjUuODkxNkMxNS41MDMgMjUuOTUzNyAxNS4zMzAxIDI2LjA3NTMgMTUuMjA1IDI2LjIzOTdDMTUuMTgwNiAyNi4yNzE2IDE1LjE1ODMgMjYuMzA1IDE1LjEzOCAyNi4zMzk3QzE1LjA5MjggMjYuNDIxNCAxNS4wNTI3IDI2LjUwNTkgMTUuMDE4IDI2LjU5MjdDMTQuOTg1NyAyNi42NzI1IDE0Ljk0OTQgMjYuNzUwNiAxNC45MDkgMjYuODI2N0MxNC43NDI5IDI3LjEyMzggMTQuNTM2MiAyNy4zOTY0IDE0LjI5NSAyNy42MzY3QzEzLjg1NyAyOC4wNTE3IDEzLjMzODcgMjguMzcyOSAxMi43NzIxIDI4LjU4MDRDMTIuMjA1NSAyOC43ODggMTEuNjAyNSAyOC44Nzc2IDExIDI4Ljg0MzdDMTAuNzM0OCAyOC44NDM3IDEwLjQ4MDQgMjguOTQ5IDEwLjI5MjkgMjkuMTM2NkMxMC4xMDU0IDI5LjMyNDEgMTAgMjkuNTc4NSAxMCAyOS44NDM3QzEwIDMwLjEwODkgMTAuMTA1NCAzMC4zNjMyIDEwLjI5MjkgMzAuNTUwOEMxMC40ODA0IDMwLjczODMgMTAuNzM0OCAzMC44NDM3IDExIDMwLjg0MzdDMTEuODY1IDMwLjg3NzkgMTIuNzI3OSAzMC43MzY3IDEzLjUzNjkgMzAuNDI4NkMxNC4zNDU4IDMwLjEyMDQgMTUuMDg0IDI5LjY1MTcgMTUuNzA3IDI5LjA1MDdDMTUuNzk0IDI4Ljk2MzcgMTUuODc2IDI4Ljg3NjcgMTUuOTUyIDI4Ljc4OTdDMTYuMDAxIDI4Ljg1NDcgMTYuMDUyIDI4LjkxODcgMTYuMTA3IDI4Ljk4MzdDMTYuNTc1NiAyOS41NjUxIDE3LjE2ODYgMzAuMDM0MiAxNy44NDIyIDMwLjM1NjVDMTguNTE1OSAzMC42Nzg4IDE5LjI1MzIgMzAuODQ2MSAyMCAzMC44NDYxQzIwLjc0NjggMzAuODQ2MSAyMS40ODQxIDMwLjY3ODggMjIuMTU3OCAzMC4zNTY1QzIyLjgzMTQgMzAuMDM0MiAyMy40MjQ0IDI5LjU2NTEgMjMuODkzIDI4Ljk4MzdDMjMuOTQ3IDI4LjkxODcgMjMuOTk5IDI4Ljg1NDcgMjQuMDQ4IDI4Ljc4OTdDMjQuMTI0IDI4Ljg3NjcgMjQuMjA2IDI4Ljk2MzcgMjQuMjkzIDI5LjA1MDdDMjQuOTE2IDI5LjY1MTcgMjUuNjU0MiAzMC4xMjA0IDI2LjQ2MzEgMzAuNDI4NkMyNy4yNzIxIDMwLjczNjcgMjguMTM1IDMwLjg3NzkgMjkgMzAuODQzN0MyOS4yNjUyIDMwLjg0MzcgMjkuNTE5NiAzMC43MzgzIDI5LjcwNzEgMzAuNTUwOEMyOS44OTQ2IDMwLjM2MzIgMzAgMzAuMTA4OSAzMCAyOS44NDM3QzMwIDI5LjU3ODUgMjkuODk0NiAyOS4zMjQxIDI5LjcwNzEgMjkuMTM2NkMyOS41MTk2IDI4Ljk0OSAyOS4yNjUyIDI4Ljg0MzcgMjkgMjguODQzN1oiLz4mI3hhOzwvc3ZnPg==" parent="gxo681l_O-IEjd7Bf2fG-1" vertex="1">
          <mxGeometry x="217.00000000000006" y="292.97" width="71.82" height="74.06" as="geometry" />
        </mxCell>
        <mxCell id="gxo681l_O-IEjd7Bf2fG-51" value="" style="endArrow=classic;html=1;rounded=0;" parent="gxo681l_O-IEjd7Bf2fG-1" edge="1">
          <mxGeometry width="50" height="50" relative="1" as="geometry">
            <mxPoint x="282.46" y="305" as="sourcePoint" />
            <mxPoint x="311.55" y="175" as="targetPoint" />
          </mxGeometry>
        </mxCell>
        <mxCell id="gxo681l_O-IEjd7Bf2fG-52" value="" style="endArrow=classic;html=1;rounded=0;" parent="gxo681l_O-IEjd7Bf2fG-1" edge="1">
          <mxGeometry width="50" height="50" relative="1" as="geometry">
            <mxPoint x="660" y="367.03" as="sourcePoint" />
            <mxPoint x="560" y="537.03" as="targetPoint" />
          </mxGeometry>
        </mxCell>
        <mxCell id="gxo681l_O-IEjd7Bf2fG-53" value="Onelake" style="shape=image;verticalLabelPosition=middle;verticalAlign=middle;imageAspect=0;aspect=fixed;image=data:image/svg+xml,PHN2ZyB4bWxucz0iaHR0cDovL3d3dy53My5vcmcvMjAwMC9zdmciIHZpZXdCb3g9IjAgMCA0OCA0OSIgZmlsbD0iY3VycmVudENvbG9yIiBoZWlnaHQ9IjQ5IiB3aWR0aD0iNDgiPiYjeGE7ICA8bWFzayBzdHlsZT0ibWFzay10eXBlOmx1bWluYW5jZSIgbWFza1VuaXRzPSJ1c2VyU3BhY2VPblVzZSIgeT0iNCIgeD0iNCIgaGVpZ2h0PSI0MSIgd2lkdGg9IjQwIiBpZD0iYSI+JiN4YTsgICAgPHBhdGggZD0iTTQzLjQ4MSA0LjVINC41MnYzOS45ODVoMzguOTZWNC41WiIgZmlsbD0iI2ZmZiIvPiYjeGE7ICA8L21hc2s+JiN4YTsgIDxnIG1hc2s9InVybCgjYSkiPiYjeGE7ICAgIDxwYXRoIGQ9Ik0yMi4yMSAzMy4wNDFjNS40ODYtMy4xNjggNy4yOTMtMTAuMzEyIDQuMDMzLTE1Ljk1Ny0zLjI2LTUuNjQ2LTEwLjM1LTcuNjU0LTE1LjgzNi00LjQ4NkM0LjkyIDE1Ljc2NiAzLjExNCAyMi45MSA2LjM3MyAyOC41NTZjMy4yNiA1LjY0NSAxMC4zNSA3LjY1MyAxNS44MzYgNC40ODVaIiBmaWxsPSJ1cmwoI2IpIi8+JiN4YTsgICAgPHBhdGggZD0iTTI5LjM3MSAxNy4yMTVjMi44NDktMi44NSAyLjc4LTcuNTM2LS4xNTItMTAuNDY4QzI2LjI4NyAzLjgxNiAyMS42IDMuNzUgMTguNzUxIDYuNnMtMi43OCA3LjUzNy4xNTIgMTAuNDY4YzIuOTMzIDIuOTMyIDcuNjIgMi45OTggMTAuNDY4LjE0OFoiIGZpbGw9InVybCgjYykiLz4mI3hhOyAgICA8cGF0aCBkPSJNMjYuMjk5IDQzLjcyYzkuNDg3IDAgMTcuMTc4LTcuNjkxIDE3LjE3OC0xNy4xNzlTMzUuNzg3IDkuMzYyIDI2LjMgOS4zNjIgOS4xMiAxNy4wNTMgOS4xMiAyNi41NDEgMTYuODExIDQzLjcyIDI2LjMgNDMuNzJaIiBmaWxsPSJ1cmwoI2QpIi8+JiN4YTsgICAgPHBhdGggY2xpcC1ydWxlPSJldmVub2RkIiBkPSJNMTkuNTY5IDUuODg3Yy0xMC4wODUgNi4yMy0xMy42MSAxOS4zNS03LjgxNSAyOS44NDUuMzkuNzEuODE1IDEuMzkyIDEuMjc0IDIuMDM5bC40NS4wNjkgOS45NjYgMy4zMjcgOS40NjgtNi4zNDNjLTEuNTg1LjA1LTguMTgtMy42OTMtMTIuNDktMTEuODcyLTUuNC0xMC4yNDgtMy4xNzMtMTQuOTgyLS44NDMtMTcuMDY1aC0uMDFaIiBmaWxsLXJ1bGU9ImV2ZW5vZGQiIGZpbGw9InVybCgjZSkiLz4mI3hhOyAgICA8cGF0aCBjbGlwLXJ1bGU9ImV2ZW5vZGQiIGQ9Ik0xOS41NjkgNS44ODdjLTEwLjA4NSA2LjIzLTEzLjYxIDE5LjM1LTcuODE1IDI5Ljg0NS4zOS43MS44MTUgMS4zOTIgMS4yNzQgMi4wMzlsLjQ1LjA2OSA5Ljk2NiAzLjMyNyA5LjQ2OC02LjM0M2MtMS41ODUuMDUtOC4xOC0zLjY5My0xMi40OS0xMS44NzItNS40LTEwLjI0OC0zLjE3My0xNC45ODItLjg0My0xNy4wNjVoLS4wMVoiIGZpbGwtcnVsZT0iZXZlbm9kZCIgZmlsbC1vcGFjaXR5PSIuMiIgZmlsbD0idXJsKCNmKSIvPiYjeGE7ICAgIDxwYXRoIGNsaXAtcnVsZT0iZXZlbm9kZCIgZD0iTTM5LjM2NCAzNy42OTdhMTcuMjQgMTcuMjQgMCAwIDAgMy42MzgtNy4xMDljLTEuNzA4LTQuODc3LTguNTgtNi4yNDktMTIuMzQtMi40MzMtMi44ODkgMi45MjctNS44OSA1LjM4Ni04LjE0NiA1LjgyNUM5LjQ2OSAzNi41NDIgMy45MTkgMjUuNzg3IDQuODczIDIwLjg0YTE5LjgxIDE5LjgxIDAgMCAwIC4wNSA3LjczYzIuMTk2IDEwLjc2IDEyLjY5NiAxNy43IDIzLjQ1NyAxNS41MDVhMTkuODE0IDE5LjgxNCAwIDAgMCA4LjcyNy00LjE4MXMuMDQtLjAzLjA1NC0uMDQ1YTE5Ljc2IDE5Ljc2IDAgMCAwIDIuMjAyLTIuMTU3di4wMDVaIiBmaWxsLXJ1bGU9ImV2ZW5vZGQiIGZpbGw9InVybCgjZykiLz4mI3hhOyAgPC9nPiYjeGE7ICA8ZGVmcz4mI3hhOyAgICA8cmFkaWFsR3JhZGllbnQgZ3JhZGllbnRVbml0cz0idXNlclNwYWNlT25Vc2UiIGdyYWRpZW50VHJhbnNmb3JtPSJyb3RhdGUoMTM0LjgzIDE4LjExMyA4LjI5NCkgc2NhbGUoMjUuODkyNSAzMy40MDMzKSIgcj0iMSIgY3k9IjAiIGN4PSIwIiBpZD0iZCI+JiN4YTsgICAgICA8c3RvcCBzdG9wLWNvbG9yPSIjMDI4RkRDIiBvZmZzZXQ9Ii4zOSIvPiYjeGE7ICAgICAgPHN0b3Agc3RvcC1jb2xvcj0iIzAwNzhENCIgb2Zmc2V0PSIuNTkiLz4mI3hhOyAgICAgIDxzdG9wIHN0b3AtY29sb3I9IiMxQTUwOEIiIG9mZnNldD0iMSIvPiYjeGE7ICAgIDwvcmFkaWFsR3JhZGllbnQ+JiN4YTsgICAgPHJhZGlhbEdyYWRpZW50IGdyYWRpZW50VW5pdHM9InVzZXJTcGFjZU9uVXNlIiBncmFkaWVudFRyYW5zZm9ybT0icm90YXRlKDEzOS40NCAxMi41NCAxNC4xNDUpIHNjYWxlKDIzLjMwMDYgMjguNzQ5NSkiIHI9IjEiIGN5PSIwIiBjeD0iMCIgaWQ9ImUiPiYjeGE7ICAgICAgPHN0b3Agc3RvcC1jb2xvcj0iIzQwRDlGQSIgb2Zmc2V0PSIuNDYiLz4mI3hhOyAgICAgIDxzdG9wIHN0b3AtY29sb3I9IiMwMDk1RTYiIG9mZnNldD0iLjkiLz4mI3hhOyAgICA8L3JhZGlhbEdyYWRpZW50PiYjeGE7ICAgIDxyYWRpYWxHcmFkaWVudCBncmFkaWVudFVuaXRzPSJ1c2VyU3BhY2VPblVzZSIgZ3JhZGllbnRUcmFuc2Zvcm09Im1hdHJpeCgtMi42NTMwOCAyNC41ODE4NCAtMTcuNDU4MzEgLTEuODg0MjUgMTguNDA4IDExLjc2NCkiIHI9IjEiIGN5PSIwIiBjeD0iMCIgaWQ9ImYiPiYjeGE7ICAgICAgPHN0b3Agc3RvcC1vcGFjaXR5PSIwIiBvZmZzZXQ9Ii43NyIvPiYjeGE7ICAgICAgPHN0b3Agb2Zmc2V0PSIxIi8+JiN4YTsgICAgPC9yYWRpYWxHcmFkaWVudD4mI3hhOyAgICA8cmFkaWFsR3JhZGllbnQgZ3JhZGllbnRVbml0cz0idXNlclNwYWNlT25Vc2UiIGdyYWRpZW50VHJhbnNmb3JtPSJyb3RhdGUoODUuOTcgLTEuMDExIDMxLjIwOSkgc2NhbGUoMzguNDc0OSA3MC4xNTc4KSIgcj0iMSIgY3k9IjAiIGN4PSIwIiBpZD0iZyI+JiN4YTsgICAgICA8c3RvcCBzdG9wLWNvbG9yPSIjQkRGNUZGIiBvZmZzZXQ9Ii4xIi8+JiN4YTsgICAgICA8c3RvcCBzdG9wLWNvbG9yPSIjNDBEOUZBIiBvZmZzZXQ9Ii40NyIvPiYjeGE7ICAgIDwvcmFkaWFsR3JhZGllbnQ+JiN4YTsgICAgPGxpbmVhckdyYWRpZW50IGdyYWRpZW50VW5pdHM9InVzZXJTcGFjZU9uVXNlIiB5Mj0iMjUuNTU3IiB5MT0iMTcuNDczIiB4Mj0iNC40NDgiIHgxPSIzOS41MSIgaWQ9ImIiPiYjeGE7ICAgICAgPHN0b3Agc3RvcC1jb2xvcj0iIzAyOEZEQyIgb2Zmc2V0PSIuMiIvPiYjeGE7ICAgICAgPHN0b3Agc3RvcC1jb2xvcj0iIzAwNzhENCIgb2Zmc2V0PSIuNTEiLz4mI3hhOyAgICAgIDxzdG9wIHN0b3AtY29sb3I9IiMwQjMxNUIiIG9mZnNldD0iMSIvPiYjeGE7ICAgIDwvbGluZWFyR3JhZGllbnQ+JiN4YTsgICAgPGxpbmVhckdyYWRpZW50IGdyYWRpZW50VW5pdHM9InVzZXJTcGFjZU9uVXNlIiB5Mj0iNy4xMTIiIHkxPSIyOC4zNDEiIHgyPSIxOC44MzEiIHgxPSI0MS45OTUiIGlkPSJjIj4mI3hhOyAgICAgIDxzdG9wIHN0b3AtY29sb3I9IiMwMjhGREMiIG9mZnNldD0iLjA0Ii8+JiN4YTsgICAgICA8c3RvcCBzdG9wLWNvbG9yPSIjMDA3OEQ0IiBvZmZzZXQ9Ii40NiIvPiYjeGE7ICAgICAgPHN0b3Agc3RvcC1jb2xvcj0iIzBCMzE1QiIgb2Zmc2V0PSIxIi8+JiN4YTsgICAgPC9saW5lYXJHcmFkaWVudD4mI3hhOyAgPC9kZWZzPiYjeGE7PC9zdmc+;labelPosition=right;align=left;" parent="gxo681l_O-IEjd7Bf2fG-1" vertex="1">
          <mxGeometry x="300.40999999999997" y="411" width="56.82" height="58" as="geometry" />
        </mxCell>
        <mxCell id="gxo681l_O-IEjd7Bf2fG-54" value="&lt;div&gt;Databricks&lt;br&gt;&lt;/div&gt;" style="image;aspect=fixed;html=1;points=[];align=left;fontSize=12;image=img/lib/azure2/analytics/Azure_Databricks.svg;labelPosition=right;verticalLabelPosition=middle;verticalAlign=middle;labelBackgroundColor=none;" parent="gxo681l_O-IEjd7Bf2fG-1" vertex="1">
          <mxGeometry x="187.82000000000002" y="411" width="46.18" height="50" as="geometry" />
        </mxCell>
      </root>
    </mxGraphModel>
  </diagram>
  <diagram id="PIn3Lo5pDZvpryiAzimN" name="Enwironments">
    <mxGraphModel dx="2189" dy="1885" grid="1" gridSize="10" guides="1" tooltips="1" connect="1" arrows="1" fold="1" page="1" pageScale="1" pageWidth="850" pageHeight="1100" math="0" shadow="0">
      <root>
        <mxCell id="0" />
        <mxCell id="1" parent="0" />
        <mxCell id="I4Tm8hC2iMa7jTndKI4s-1" value="" style="rounded=0;whiteSpace=wrap;html=1;" parent="1" vertex="1">
          <mxGeometry x="2" y="80" width="200" height="200" as="geometry" />
        </mxCell>
        <mxCell id="_gIUkZP-d5PhOVjkKTWp-1" value="Developmnet" style="text;strokeColor=none;align=left;fillColor=none;html=1;verticalAlign=middle;whiteSpace=wrap;rounded=0;fontSize=17;fontStyle=1" parent="1" vertex="1">
          <mxGeometry x="2" y="80" width="126" height="30" as="geometry" />
        </mxCell>
        <mxCell id="_gIUkZP-d5PhOVjkKTWp-2" value="" style="shape=flexArrow;endArrow=classic;html=1;rounded=0;" parent="1" edge="1">
          <mxGeometry width="50" height="50" relative="1" as="geometry">
            <mxPoint x="97" y="370" as="sourcePoint" />
            <mxPoint x="97" y="310" as="targetPoint" />
          </mxGeometry>
        </mxCell>
        <mxCell id="_gIUkZP-d5PhOVjkKTWp-3" value="&lt;div&gt;- ETL development&lt;/div&gt;&lt;div align=&quot;left&quot;&gt;- database model&lt;/div&gt;&lt;div align=&quot;left&quot;&gt;- test data load&lt;br&gt;&lt;/div&gt;" style="text;html=1;align=center;verticalAlign=middle;resizable=0;points=[];autosize=1;strokeColor=none;fillColor=none;" parent="1" vertex="1">
          <mxGeometry x="-3" y="110" width="130" height="60" as="geometry" />
        </mxCell>
        <mxCell id="_gIUkZP-d5PhOVjkKTWp-4" value="&lt;div align=&quot;left&quot;&gt;&lt;b&gt;&lt;font style=&quot;font-size: 18px;&quot;&gt;Data engineers&lt;/font&gt;&lt;/b&gt;&lt;/div&gt;" style="text;html=1;align=left;verticalAlign=middle;resizable=0;points=[];autosize=1;strokeColor=none;fillColor=none;" parent="1" vertex="1">
          <mxGeometry x="27" y="380" width="150" height="40" as="geometry" />
        </mxCell>
        <mxCell id="_gIUkZP-d5PhOVjkKTWp-5" value="" style="rounded=0;whiteSpace=wrap;html=1;" parent="1" vertex="1">
          <mxGeometry x="350" y="80" width="200" height="200" as="geometry" />
        </mxCell>
        <mxCell id="_gIUkZP-d5PhOVjkKTWp-6" value="Test" style="text;strokeColor=none;align=left;fillColor=none;html=1;verticalAlign=middle;whiteSpace=wrap;rounded=0;fontSize=17;fontStyle=1" parent="1" vertex="1">
          <mxGeometry x="350" y="80" width="126" height="30" as="geometry" />
        </mxCell>
        <mxCell id="_gIUkZP-d5PhOVjkKTWp-7" value="" style="shape=flexArrow;endArrow=classic;html=1;rounded=0;" parent="1" edge="1">
          <mxGeometry width="50" height="50" relative="1" as="geometry">
            <mxPoint x="450" y="370" as="sourcePoint" />
            <mxPoint x="450" y="310" as="targetPoint" />
          </mxGeometry>
        </mxCell>
        <mxCell id="_gIUkZP-d5PhOVjkKTWp-8" value="&lt;div align=&quot;left&quot;&gt;- data quality testing&lt;/div&gt;&lt;div align=&quot;left&quot;&gt;- performance testing&lt;br&gt;&lt;/div&gt;&lt;div align=&quot;left&quot;&gt;- semantic model development&lt;br&gt;&lt;/div&gt;&lt;div align=&quot;left&quot;&gt;- PowerBI reports development&lt;/div&gt;&lt;div align=&quot;left&quot;&gt;- production data&lt;br&gt;&lt;/div&gt;" style="text;html=1;align=center;verticalAlign=middle;resizable=0;points=[];autosize=1;strokeColor=none;fillColor=none;" parent="1" vertex="1">
          <mxGeometry x="347" y="110" width="190" height="90" as="geometry" />
        </mxCell>
        <mxCell id="_gIUkZP-d5PhOVjkKTWp-9" value="&lt;b&gt;&lt;font style=&quot;font-size: 18px;&quot;&gt;BI developers&lt;br&gt;BU testers&lt;br&gt;&lt;/font&gt;&lt;/b&gt;" style="text;html=1;align=left;verticalAlign=middle;resizable=0;points=[];autosize=1;strokeColor=none;fillColor=none;" parent="1" vertex="1">
          <mxGeometry x="380" y="370" width="140" height="60" as="geometry" />
        </mxCell>
        <mxCell id="_gIUkZP-d5PhOVjkKTWp-10" value="" style="rounded=0;whiteSpace=wrap;html=1;" parent="1" vertex="1">
          <mxGeometry x="700" y="80" width="200" height="200" as="geometry" />
        </mxCell>
        <mxCell id="_gIUkZP-d5PhOVjkKTWp-11" value="Production" style="text;strokeColor=none;align=left;fillColor=none;html=1;verticalAlign=middle;whiteSpace=wrap;rounded=0;fontSize=17;fontStyle=1" parent="1" vertex="1">
          <mxGeometry x="700" y="80" width="126" height="30" as="geometry" />
        </mxCell>
        <mxCell id="_gIUkZP-d5PhOVjkKTWp-12" value="" style="shape=flexArrow;endArrow=classic;html=1;rounded=0;" parent="1" edge="1">
          <mxGeometry width="50" height="50" relative="1" as="geometry">
            <mxPoint x="795" y="370" as="sourcePoint" />
            <mxPoint x="795" y="310" as="targetPoint" />
          </mxGeometry>
        </mxCell>
        <mxCell id="_gIUkZP-d5PhOVjkKTWp-13" value="&lt;div align=&quot;left&quot;&gt;- no development activities&lt;/div&gt;&lt;div align=&quot;left&quot;&gt;- only fully tested and approved&amp;nbsp;&lt;/div&gt;&lt;div align=&quot;left&quot;&gt;ETL pipelines, semantic models,&amp;nbsp;&lt;/div&gt;&lt;div align=&quot;left&quot;&gt;and Power BI reports&amp;nbsp;&lt;/div&gt;&lt;div align=&quot;left&quot;&gt;from the Test environment&amp;nbsp;&lt;/div&gt;&lt;div align=&quot;left&quot;&gt;are deployed&lt;/div&gt;&lt;div align=&quot;left&quot;&gt;- production data.&lt;/div&gt;" style="text;html=1;align=center;verticalAlign=middle;resizable=0;points=[];autosize=1;strokeColor=none;fillColor=none;" parent="1" vertex="1">
          <mxGeometry x="697" y="110" width="210" height="110" as="geometry" />
        </mxCell>
        <mxCell id="_gIUkZP-d5PhOVjkKTWp-14" value="&lt;b&gt;&lt;font style=&quot;font-size: 18px;&quot;&gt;Business users&lt;br&gt;&lt;/font&gt;&lt;/b&gt;" style="text;html=1;align=left;verticalAlign=middle;resizable=0;points=[];autosize=1;strokeColor=none;fillColor=none;" parent="1" vertex="1">
          <mxGeometry x="725" y="380" width="160" height="40" as="geometry" />
        </mxCell>
        <mxCell id="JCZtIJ0anKZUs921YgDY-2" value="Deployment pipeline" style="shape=image;verticalLabelPosition=bottom;labelBackgroundColor=default;verticalAlign=top;aspect=fixed;imageAspect=0;image=data:image/png,iVBORw0KGgoAAAANSUhEUgAAADQAAAA2CAYAAACIsLrgAAAGPklEQVRoQ+1aW0gVXRReVlpmWZiaiommhJqKaIIQFKFPXkATrMyIsEQkhRBfBCE0pIdIDCoIjCRTEBHNUlOKUFN88JKglmLRQ1pmZaSlWfb/34I5jDrntGePlzi0XvScsy/r2+v2rT1j8/t/ISsSm3+A/nJr/rOQOQP9+vWL5ubmaH5+nn7+/En4vLCwQEqI2tjY0IYNG2jjxo20adMmsrW1pc2bN/PnlRRDFoLC3759o9nZWQYiIwC2ZcsW2rp1KwM2KlKAcPrT09MMZiUFoLZt22bIaroBff36lcGspgDU9u3bpbYQBgSX+vLli7Rr6dUOrrhjxw6ONT0iBAiuBTDrIQAFVxSVPwKCe8HN1lPgfnBDEbEI6G8Ao4AQBWUW0Hq6mTlLiLifJiAkgMnJSRELr/kYZ2dni4lCExDAyBbK1UaIrAdQ5mQZoLWoM0ZBW6pTiwCBAUxMTBjdz+z8V69e0cjICL1+/Zo+fvzITAO8bt++fXTo0CHas2eP8N6urq6ajGIRINSalaYz0PDly5fU2NhIHz58sKhwdHQ0HTlyRAgUahOSxFIxAQLRfP/+vdBiegY9e/aMGhoaeAp8/8CBA+Th4UEuLi7k6OjIxHZ4eJjq6+v5MM+cOUN+fn5CW+zevXsZoTUBWomag/ZhbGyMW4adO3dSb28vPXnyhJU7fPgwRUVFmSWeXV1ddP/+fQoODqbjx48LAdKqTSZARjIbYu/p06fU2trKvdBSSUhIoIiICItKYv/i4mJycnKinJwcIUBaGY8BGUkGsEZlZSUNDAywEg4ODtzYff/+nT8fPXqUwsPD+X/EEMbD3dDwqQVl4uLFi1xj8FdUliYHBmSEFTx48IA6OztZkcTERPrx4wfV1tayPklJSRQWFsbE9t69e/T27Vv+HjF04sQJtoYicNeCggJ2SfwVlaXsgQHJZje416VLl7gIR0ZGcpA3Nzfz6ScnJ1NISAhb5ObNmwwGp4nfkHwQ0OfPnzcFNb67du2aLpcD6KXZjgGhJuBkZWRwcJAqKioW3R2kpKRQYGAgL4e1r169ymBzc3MZ0JUrV2hqaoqys7MZGKS9vZ1Te1BQEFtPVOzs7GjXrl2m4QwIxRRxJCvd3d1UU1PDykKZ/fv3m5ZSAKG6Z2Vl8ZgbN24sAoS9ARogjx07xpYVFbgoLK8IA3r37p3phEUXUo/DgZSUlJCbmxsrrRa1y+GWBxchSBhql3v48CF1dHRwbGVmZi5LGJZ0wgFh30WAxsfHZXCY5iCWCgsLOWWfPHnS5G7KAMRoeXk51yiIOikg3be0tDAFysjIIHd3d926qOewhYwCggZtbW3U1NTEFkAMBQQELLMUao06batZhF5XUy++DJBRlwPLQKoeGhrifcyBUiuhMAN8J1J4zZlN0+WMJoXLly/zvQNqka+vL7148YJBwf38/f2X6aIkEeWH/Px8vmyUEc2kYCRtQ4m7d+8yCGSyc+fO0fPnz5nDYbPU1FRuDxRRg8EBoIadPXuWfHx8ZPCQZtqWKayIuzt37nAPg1RdVlZGo6OjDCo9PZ0eP37MwNSg+vr6qLq6muMIRBV0Ce6elpZGe/fulQKkWVj1Up9Pnz7R9evXmfofPHiQYmJiuI7BUmjgAApKz8zMmGLKy8uL3rx5w9/HxsYyGwcdQnbLy8vji3sZ0aQ+esnp58+fGZC3tzcH9O3btxkQqAxAwVIQZDowBrQF6jsKtBKoOwplio+Pl8HCczTJKX6QaR9g2dLSUnYb0I8LFy4w0wYVAjdDPOEEQTwxBo0c6o4ioaGhTGBlnzqYbR+wgd4GD+5269YtVhydKJR/9OgR05dTp05xsGoJkkJdXR33R3FxcbpYwdL1LDZ4elvwqqoqDnokhdOnT3Ob3dPTw/0QLGVvby/tRqITLbbgWERPtuvv7yfc4iAhwBpFRUXsWrCUp6enqE7S4/54SYKV9SYHtTZwNXA5S5eA0tprTBS6xsI8q7poVA5CJuOt5OlbWkv3VTAWs7rLeoDSyx7WwkLSj1MU5fTWptUEZfiB198EShQMdP7jM9b1dj8RN1N7hhAgJVFYzWN99QmsRZ1akxcv1KCs6tUYNTCreXlJKz1bxetlq1l3ZNcWznKyG6z1vP8A2r8rm8mTxV8AAAAASUVORK5CYII=;" parent="1" vertex="1">
          <mxGeometry x="250" y="121" width="52" height="54" as="geometry" />
        </mxCell>
        <mxCell id="JCZtIJ0anKZUs921YgDY-4" value="" style="shape=image;verticalLabelPosition=bottom;labelBackgroundColor=default;verticalAlign=top;aspect=fixed;imageAspect=0;image=data:image/png,iVBORw0KGgoAAAANSUhEUgAAAEkAAABKCAYAAAD353lyAAAIqUlEQVR4Xu1cSWxVVRj+X1taXiuDAqKogMgkoK4UlTjFmSCujdGoMWqMOzfqwmmhJm6MCxPjtNGNKxVjjESDxojTQgMOgGgBRQGLDHZ45bX1+87rk3vPO/e9859723sX/ZMG8nqG/3zn/PP/WhoDyRQ1RaA0BVLrFzIFUmuMZAqkKZA8EPAYMvWSCg9S9W+RE4dExkZFOk4V6VzgwfLkD8nvJY1VRQa2xU/cPktk+pLJR6HFjjmCVAFIPzay1z4bQJ1bKKDyA4kwDO0WGTnWCAhFr2txYYDKFySBs2+AOl5ooHIGidgUH6h8QBodFBkdqP2M8P/4EVg4F3XMgegtzFX0JgckWrKRIyJViJURrRHdoanIqdBzookFieCcOFDzhShWodR5psi0M0Jnp543QSBBdIb/BDgHUzNoFuheLVLqzGatgFWyB2m0HxarFw9n2I+dUkdtHF+di6iPqJdypGxBMq/nrxbHaYPo4ND0hdrK0NdDIoO7MMehuH0Bqh7Gy/2jBjT9K66dIWUHUuU3KGYo5yQqTUdsNh8HOO3kCAPQjgSAzsHYua2Pyhc78EN83DTsk2EcmA1IQ7/CYB11H6jUBYaheBtuFy9n4Ce3WHZ5AsQdaTWHcEE2ZRgHpgdp6Be3x0ymm1klugKca1Pn2RDHea1fUH3E2InxGNAhrnyJBDwlpQOpsgciBn1gUxtEqwu+Df9NIpeYaAGqr01jMUjAHUCFrhnhOxwk+j7DvzsA6hYpL8PnUNCtqNoHRY+cEhUudUgahTuGrAINAF+WTeXlYKenFTeJvw8DafTfcYtkrdt+CtIcS/FhKZihVBMJ9uBOAAXAolSaBl9rld/FORgIA2kQCpeWKUoUrfLK/ACq85IEVIr0ix4kp5hBtLrPz9Urjl0YA+bBnxvfBF95+wz1Y1WChMC0f3ujgmTKlSa3SDS8vxY3xsQO7ogROx3pQKI3Ta86SkYPUVEXjRBQ08m0FXnXorhD68G2DiSzqRWTlSFmzUy9BxMTNqT6j0il19KdsHK0dgryB4kJMhNCRKiASfuGs7uMDEWOkYAn+YNEn8jkhSI0/TzoopmeWyUMOwAFu/cbkYO4gKPQI6RZ8Jnmw1IuvETkdN2tN+xCX6yyN/4xc1OMBjzJHyRb1IzvscZzG8ewIwD985dE+hxxV3T4XFikKx8SmYGgNZT6v8fMiDdu3BWoCU/yA8lVSEwTafchIP7oGRgBhBM+VIblvOlxkZmBFV5XhkKRyPMDiSkQbhQTtUCzfxxm+f3HABB0nIa6kSO65VlY0gBXg/El48woMbbs8Mub+4Hk0kc9F2DL8ayi5rCbHhU53KuZcXLsWReJXPeIfi7DFLtarMib+4Fkp0OYb+Zz1dKer0S2vBCf1QErMwe3SgUeJSpu6quqFYetf0pkXoAy7/8Oq0eKEYowxQ8kmn66AHViRK30NczUT18U6d0aB6P+OnZ+LLL11drvLrtXZPm1Ipuht/ZbTRWr1otcfIf2emphiqnvjZPiDH4g2ZYtNOv39oNgFg6eTevuF1l6tci2d+GYtous3iCya4vIFy83juWr2wDwtGT3HdBP8gxR/ECyTSjz1HTvtfTmnchiOvI9XOfSe0RWXF9bccdmkS9fd6/eiXzVba9pd64p7liCEJfRc6HXOp4g2fIcWHp+665GHVNn0xekDvg4t7/hdbjYIDqUdCz/p6xBYrNVtC4WGo688/BJrzp6gnUPQNyuEtn+Xu3TNRuTxW02cuC3Pq8HyS5WKIyP30ui+Yxm+5iTMRlIJW19RWTnJ/FJLsV9+X0iy65xK+6VN4isvVu5MYYPIbU7goxqndqYZl7htY4fSPYGoSHJfoQHm5+LM0bxWYQYbfdn8c+XXCGy71vEixGLxBE3P4l4zu9wsQUHkAeLpk0YczL29CA/kJzOJJUe5FpLHzwhcgh56BAKdiYd/ZmKsMoPJFckHZqN7Ed1ZBPCkoqju60ZcGWEJRsDwxK2HNIFiJKCfz+QTDkayf8osYDImlYIMSz58OlGUUpaiwHujQhwmUIJoZRhlR9IZMy2cArr4DyXb6pkAcSairwnRWdJA+/+jiR59wfJVa0NrD7EQDuAF7rnayTdoKeOIX9eQuXFJN2Q71m8FnFdyr5ul6gpglsdSK7NQv2lEJEJneNq5mCykBbak/xfkhE5VyEA0Tr7jIpIrvqbwvTXj6QDiXUs1rOiFBrsTgao7A1gST5KASpCBxLzMc5aln+WbzKwMXu4spFtqBGaZg4dKUFK2JxOpSlz+8u5jk3laCNmLH9ZHb8MQxiOKEkPEjdwPWOTn2G4EOCFK5luOtw0TCDBZlduU6iFMJBMAxa/YWTdlAkaGfjmBBSBMT1KdusNcvHseAl86WEgGZl3FP34ORtICVQgQ+aVsP+SPeCsjzHG8unh5sUZgOzWaPRKmSYuvZjVX2w4SFyBbcGuhnYCZG4uoJpiW1CfjIPpv+zlzTVKYgYty+lAIkvsfGUHrE3KUrKZTsAJvE3NavfNesc1XbxNFF16kLh4Q2oUn2lBSgIo6SWxYEqAxqyOu/phM3hB2YhbFP2omFDMNIoyqUmV68ecPzSRERwCarcjRnnJ+FtN2bykOoO81VHohTa4A76KOxEgKFzmfEqwlEy7MnaMpl9d4kEFzzkZh0nZgtRErp2/4lfeK/sSZtGNUHwvzgTbLHN5tEYr+cwPJNOgHpjGjR4y8WsZSiQmXHGH8ONq/NSsQx+KeaFJ+EZlfi+pqagloEWdw0YHtsykcA41d8Gx+YFkXIdeWCtHb4A5BXQLFXA7PGX+ywaHnBpY8wWJWCQ5oyY5xtRtTl/BiDy3/EEyQCV8X85UillAzBeoYoDUFKj8/8hLcUBqBpSiCVSrlH3GFwskA5Tjj7z0oFdyApxEH4Dyt25JXEatXoaBqi8o9rjivaQ6h8wumnxUTlnOwlm30CuepHn/ATVI01AD27/XAAAAAElFTkSuQmCC;" parent="1" vertex="1">
          <mxGeometry x="254.3" y="205" width="43.41" height="44" as="geometry" />
        </mxCell>
        <mxCell id="JCZtIJ0anKZUs921YgDY-5" value="Deployment pipeline" style="shape=image;verticalLabelPosition=bottom;labelBackgroundColor=default;verticalAlign=top;aspect=fixed;imageAspect=0;image=data:image/png,iVBORw0KGgoAAAANSUhEUgAAADQAAAA2CAYAAACIsLrgAAAGPklEQVRoQ+1aW0gVXRReVlpmWZiaiommhJqKaIIQFKFPXkATrMyIsEQkhRBfBCE0pIdIDCoIjCRTEBHNUlOKUFN88JKglmLRQ1pmZaSlWfb/34I5jDrntGePlzi0XvScsy/r2+v2rT1j8/t/ISsSm3+A/nJr/rOQOQP9+vWL5ubmaH5+nn7+/En4vLCwQEqI2tjY0IYNG2jjxo20adMmsrW1pc2bN/PnlRRDFoLC3759o9nZWQYiIwC2ZcsW2rp1KwM2KlKAcPrT09MMZiUFoLZt22bIaroBff36lcGspgDU9u3bpbYQBgSX+vLli7Rr6dUOrrhjxw6ONT0iBAiuBTDrIQAFVxSVPwKCe8HN1lPgfnBDEbEI6G8Ao4AQBWUW0Hq6mTlLiLifJiAkgMnJSRELr/kYZ2dni4lCExDAyBbK1UaIrAdQ5mQZoLWoM0ZBW6pTiwCBAUxMTBjdz+z8V69e0cjICL1+/Zo+fvzITAO8bt++fXTo0CHas2eP8N6urq6ajGIRINSalaYz0PDly5fU2NhIHz58sKhwdHQ0HTlyRAgUahOSxFIxAQLRfP/+vdBiegY9e/aMGhoaeAp8/8CBA+Th4UEuLi7k6OjIxHZ4eJjq6+v5MM+cOUN+fn5CW+zevXsZoTUBWomag/ZhbGyMW4adO3dSb28vPXnyhJU7fPgwRUVFmSWeXV1ddP/+fQoODqbjx48LAdKqTSZARjIbYu/p06fU2trKvdBSSUhIoIiICItKYv/i4mJycnKinJwcIUBaGY8BGUkGsEZlZSUNDAywEg4ODtzYff/+nT8fPXqUwsPD+X/EEMbD3dDwqQVl4uLFi1xj8FdUliYHBmSEFTx48IA6OztZkcTERPrx4wfV1tayPklJSRQWFsbE9t69e/T27Vv+HjF04sQJtoYicNeCggJ2SfwVlaXsgQHJZje416VLl7gIR0ZGcpA3Nzfz6ScnJ1NISAhb5ObNmwwGp4nfkHwQ0OfPnzcFNb67du2aLpcD6KXZjgGhJuBkZWRwcJAqKioW3R2kpKRQYGAgL4e1r169ymBzc3MZ0JUrV2hqaoqys7MZGKS9vZ1Te1BQEFtPVOzs7GjXrl2m4QwIxRRxJCvd3d1UU1PDykKZ/fv3m5ZSAKG6Z2Vl8ZgbN24sAoS9ARogjx07xpYVFbgoLK8IA3r37p3phEUXUo/DgZSUlJCbmxsrrRa1y+GWBxchSBhql3v48CF1dHRwbGVmZi5LGJZ0wgFh30WAxsfHZXCY5iCWCgsLOWWfPHnS5G7KAMRoeXk51yiIOikg3be0tDAFysjIIHd3d926qOewhYwCggZtbW3U1NTEFkAMBQQELLMUao06batZhF5XUy++DJBRlwPLQKoeGhrifcyBUiuhMAN8J1J4zZlN0+WMJoXLly/zvQNqka+vL7148YJBwf38/f2X6aIkEeWH/Px8vmyUEc2kYCRtQ4m7d+8yCGSyc+fO0fPnz5nDYbPU1FRuDxRRg8EBoIadPXuWfHx8ZPCQZtqWKayIuzt37nAPg1RdVlZGo6OjDCo9PZ0eP37MwNSg+vr6qLq6muMIRBV0Ce6elpZGe/fulQKkWVj1Up9Pnz7R9evXmfofPHiQYmJiuI7BUmjgAApKz8zMmGLKy8uL3rx5w9/HxsYyGwcdQnbLy8vji3sZ0aQ+esnp58+fGZC3tzcH9O3btxkQqAxAwVIQZDowBrQF6jsKtBKoOwplio+Pl8HCczTJKX6QaR9g2dLSUnYb0I8LFy4w0wYVAjdDPOEEQTwxBo0c6o4ioaGhTGBlnzqYbR+wgd4GD+5269YtVhydKJR/9OgR05dTp05xsGoJkkJdXR33R3FxcbpYwdL1LDZ4elvwqqoqDnokhdOnT3Ob3dPTw/0QLGVvby/tRqITLbbgWERPtuvv7yfc4iAhwBpFRUXsWrCUp6enqE7S4/54SYKV9SYHtTZwNXA5S5eA0tprTBS6xsI8q7poVA5CJuOt5OlbWkv3VTAWs7rLeoDSyx7WwkLSj1MU5fTWptUEZfiB198EShQMdP7jM9b1dj8RN1N7hhAgJVFYzWN99QmsRZ1akxcv1KCs6tUYNTCreXlJKz1bxetlq1l3ZNcWznKyG6z1vP8A2r8rm8mTxV8AAAAASUVORK5CYII=;" parent="1" vertex="1">
          <mxGeometry x="600" y="121" width="52" height="54" as="geometry" />
        </mxCell>
        <mxCell id="JCZtIJ0anKZUs921YgDY-6" value="" style="shape=image;verticalLabelPosition=bottom;labelBackgroundColor=default;verticalAlign=top;aspect=fixed;imageAspect=0;image=data:image/png,iVBORw0KGgoAAAANSUhEUgAAAEkAAABKCAYAAAD353lyAAAIqUlEQVR4Xu1cSWxVVRj+X1taXiuDAqKogMgkoK4UlTjFmSCujdGoMWqMOzfqwmmhJm6MCxPjtNGNKxVjjESDxojTQgMOgGgBRQGLDHZ45bX1+87rk3vPO/e9859723sX/ZMG8nqG/3zn/PP/WhoDyRQ1RaA0BVLrFzIFUmuMZAqkKZA8EPAYMvWSCg9S9W+RE4dExkZFOk4V6VzgwfLkD8nvJY1VRQa2xU/cPktk+pLJR6HFjjmCVAFIPzay1z4bQJ1bKKDyA4kwDO0WGTnWCAhFr2txYYDKFySBs2+AOl5ooHIGidgUH6h8QBodFBkdqP2M8P/4EVg4F3XMgegtzFX0JgckWrKRIyJViJURrRHdoanIqdBzookFieCcOFDzhShWodR5psi0M0Jnp543QSBBdIb/BDgHUzNoFuheLVLqzGatgFWyB2m0HxarFw9n2I+dUkdtHF+di6iPqJdypGxBMq/nrxbHaYPo4ND0hdrK0NdDIoO7MMehuH0Bqh7Gy/2jBjT9K66dIWUHUuU3KGYo5yQqTUdsNh8HOO3kCAPQjgSAzsHYua2Pyhc78EN83DTsk2EcmA1IQ7/CYB11H6jUBYaheBtuFy9n4Ce3WHZ5AsQdaTWHcEE2ZRgHpgdp6Be3x0ymm1klugKca1Pn2RDHea1fUH3E2InxGNAhrnyJBDwlpQOpsgciBn1gUxtEqwu+Df9NIpeYaAGqr01jMUjAHUCFrhnhOxwk+j7DvzsA6hYpL8PnUNCtqNoHRY+cEhUudUgahTuGrAINAF+WTeXlYKenFTeJvw8DafTfcYtkrdt+CtIcS/FhKZihVBMJ9uBOAAXAolSaBl9rld/FORgIA2kQCpeWKUoUrfLK/ACq85IEVIr0ix4kp5hBtLrPz9Urjl0YA+bBnxvfBF95+wz1Y1WChMC0f3ujgmTKlSa3SDS8vxY3xsQO7ogROx3pQKI3Ta86SkYPUVEXjRBQ08m0FXnXorhD68G2DiSzqRWTlSFmzUy9BxMTNqT6j0il19KdsHK0dgryB4kJMhNCRKiASfuGs7uMDEWOkYAn+YNEn8jkhSI0/TzoopmeWyUMOwAFu/cbkYO4gKPQI6RZ8Jnmw1IuvETkdN2tN+xCX6yyN/4xc1OMBjzJHyRb1IzvscZzG8ewIwD985dE+hxxV3T4XFikKx8SmYGgNZT6v8fMiDdu3BWoCU/yA8lVSEwTafchIP7oGRgBhBM+VIblvOlxkZmBFV5XhkKRyPMDiSkQbhQTtUCzfxxm+f3HABB0nIa6kSO65VlY0gBXg/El48woMbbs8Mub+4Hk0kc9F2DL8ayi5rCbHhU53KuZcXLsWReJXPeIfi7DFLtarMib+4Fkp0OYb+Zz1dKer0S2vBCf1QErMwe3SgUeJSpu6quqFYetf0pkXoAy7/8Oq0eKEYowxQ8kmn66AHViRK30NczUT18U6d0aB6P+OnZ+LLL11drvLrtXZPm1Ipuht/ZbTRWr1otcfIf2emphiqnvjZPiDH4g2ZYtNOv39oNgFg6eTevuF1l6tci2d+GYtous3iCya4vIFy83juWr2wDwtGT3HdBP8gxR/ECyTSjz1HTvtfTmnchiOvI9XOfSe0RWXF9bccdmkS9fd6/eiXzVba9pd64p7liCEJfRc6HXOp4g2fIcWHp+665GHVNn0xekDvg4t7/hdbjYIDqUdCz/p6xBYrNVtC4WGo688/BJrzp6gnUPQNyuEtn+Xu3TNRuTxW02cuC3Pq8HyS5WKIyP30ui+Yxm+5iTMRlIJW19RWTnJ/FJLsV9+X0iy65xK+6VN4isvVu5MYYPIbU7goxqndqYZl7htY4fSPYGoSHJfoQHm5+LM0bxWYQYbfdn8c+XXCGy71vEixGLxBE3P4l4zu9wsQUHkAeLpk0YczL29CA/kJzOJJUe5FpLHzwhcgh56BAKdiYd/ZmKsMoPJFckHZqN7Ed1ZBPCkoqju60ZcGWEJRsDwxK2HNIFiJKCfz+QTDkayf8osYDImlYIMSz58OlGUUpaiwHujQhwmUIJoZRhlR9IZMy2cArr4DyXb6pkAcSairwnRWdJA+/+jiR59wfJVa0NrD7EQDuAF7rnayTdoKeOIX9eQuXFJN2Q71m8FnFdyr5ul6gpglsdSK7NQv2lEJEJneNq5mCykBbak/xfkhE5VyEA0Tr7jIpIrvqbwvTXj6QDiXUs1rOiFBrsTgao7A1gST5KASpCBxLzMc5aln+WbzKwMXu4spFtqBGaZg4dKUFK2JxOpSlz+8u5jk3laCNmLH9ZHb8MQxiOKEkPEjdwPWOTn2G4EOCFK5luOtw0TCDBZlduU6iFMJBMAxa/YWTdlAkaGfjmBBSBMT1KdusNcvHseAl86WEgGZl3FP34ORtICVQgQ+aVsP+SPeCsjzHG8unh5sUZgOzWaPRKmSYuvZjVX2w4SFyBbcGuhnYCZG4uoJpiW1CfjIPpv+zlzTVKYgYty+lAIkvsfGUHrE3KUrKZTsAJvE3NavfNesc1XbxNFF16kLh4Q2oUn2lBSgIo6SWxYEqAxqyOu/phM3hB2YhbFP2omFDMNIoyqUmV68ecPzSRERwCarcjRnnJ+FtN2bykOoO81VHohTa4A76KOxEgKFzmfEqwlEy7MnaMpl9d4kEFzzkZh0nZgtRErp2/4lfeK/sSZtGNUHwvzgTbLHN5tEYr+cwPJNOgHpjGjR4y8WsZSiQmXHGH8ONq/NSsQx+KeaFJ+EZlfi+pqagloEWdw0YHtsykcA41d8Gx+YFkXIdeWCtHb4A5BXQLFXA7PGX+ywaHnBpY8wWJWCQ5oyY5xtRtTl/BiDy3/EEyQCV8X85UillAzBeoYoDUFKj8/8hLcUBqBpSiCVSrlH3GFwskA5Tjj7z0oFdyApxEH4Dyt25JXEatXoaBqi8o9rjivaQ6h8wumnxUTlnOwlm30CuepHn/ATVI01AD27/XAAAAAElFTkSuQmCC;" parent="1" vertex="1">
          <mxGeometry x="604.3" y="205" width="43.41" height="44" as="geometry" />
        </mxCell>
        <mxCell id="KEYkbQwU7IqM9qzdViw--6" style="edgeStyle=orthogonalEdgeStyle;rounded=0;orthogonalLoop=1;jettySize=auto;html=1;" parent="1" source="KEYkbQwU7IqM9qzdViw--1" target="_gIUkZP-d5PhOVjkKTWp-1" edge="1">
          <mxGeometry relative="1" as="geometry">
            <Array as="points">
              <mxPoint x="102" y="50" />
              <mxPoint x="102" y="50" />
            </Array>
          </mxGeometry>
        </mxCell>
        <mxCell id="KEYkbQwU7IqM9qzdViw--1" value="&lt;div&gt;7core Stable Stage&lt;/div&gt;" style="image;sketch=0;aspect=fixed;html=1;points=[];align=center;fontSize=12;image=img/lib/mscae/Azure_Database_for_PostgreSQL_servers.svg;" parent="1" vertex="1">
          <mxGeometry x="78.8" y="-90" width="46.4" height="61.05" as="geometry" />
        </mxCell>
        <mxCell id="KEYkbQwU7IqM9qzdViw--7" style="edgeStyle=orthogonalEdgeStyle;rounded=0;orthogonalLoop=1;jettySize=auto;html=1;entryX=0.75;entryY=0;entryDx=0;entryDy=0;" parent="1" source="KEYkbQwU7IqM9qzdViw--2" target="_gIUkZP-d5PhOVjkKTWp-6" edge="1">
          <mxGeometry relative="1" as="geometry" />
        </mxCell>
        <mxCell id="KEYkbQwU7IqM9qzdViw--2" value="7core PROD" style="image;sketch=0;aspect=fixed;html=1;points=[];align=center;fontSize=12;image=img/lib/mscae/Azure_Database_for_PostgreSQL_servers.svg;" parent="1" vertex="1">
          <mxGeometry x="421.8" y="-90" width="46.4" height="61.05" as="geometry" />
        </mxCell>
        <mxCell id="KEYkbQwU7IqM9qzdViw--4" value="" style="edgeStyle=orthogonalEdgeStyle;rounded=0;orthogonalLoop=1;jettySize=auto;html=1;" parent="1" source="KEYkbQwU7IqM9qzdViw--3" target="_gIUkZP-d5PhOVjkKTWp-11" edge="1">
          <mxGeometry relative="1" as="geometry">
            <Array as="points">
              <mxPoint x="805" y="50" />
              <mxPoint x="805" y="50" />
            </Array>
          </mxGeometry>
        </mxCell>
        <mxCell id="KEYkbQwU7IqM9qzdViw--3" value="7core PROD" style="image;sketch=0;aspect=fixed;html=1;points=[];align=center;fontSize=12;image=img/lib/mscae/Azure_Database_for_PostgreSQL_servers.svg;" parent="1" vertex="1">
          <mxGeometry x="781.8000000000001" y="-90" width="46.4" height="61.05" as="geometry" />
        </mxCell>
      </root>
    </mxGraphModel>
  </diagram>
</mxfile>
